<svg width="418" height="304" viewBox="0 0 418 304" fill="none" xmlns="http://www.w3.org/2000/svg">
<rect width="38" height="38" transform="matrix(-1 0 0 1 152 38)" fill="#1DC7AD"/>
<rect width="38" height="38" transform="matrix(-1 0 0 1 190 0)" fill="#1DC7AD"/>
<rect width="38" height="38" transform="matrix(-1 0 0 1 228 0)" fill="#1DC7AD"/>
<rect width="38" height="38" transform="matrix(-1 0 0 1 304 38)" fill="#1DC7AD"/>
<rect width="38" height="38" transform="matrix(-1 0 0 1 380 76)" fill="#1DC7AD"/>
<rect width="38" height="38" transform="matrix(-1 0 0 1 342 38)" fill="#1DC7AD"/>
<rect width="38" height="38" transform="matrix(-1 0 0 1 266 0)" fill="#1DC7AD"/>
<rect width="38" height="38" transform="matrix(-1 0 0 1 76 114)" fill="#1DC7AD"/>
<rect width="38" height="38" transform="matrix(-1 0 0 1 114 76)" fill="#1DC7AD"/>
<rect width="38" height="38" transform="matrix(-1 0 0 1 114 266)" fill="#1DC7AD"/>
<rect width="38" height="38" transform="matrix(-1 0 0 1 76 228)" fill="#1DC7AD"/>
<rect width="38" height="38" transform="matrix(-1 0 0 1 152 266)" fill="#1DC7AD"/>
<rect width="38" height="38" transform="matrix(-1 0 0 1 190 266)" fill="#1DC7AD"/>
<rect width="38" height="38" transform="matrix(-1 0 0 1 38 190)" fill="#1DC7AD"/>
<rect width="38" height="38" transform="matrix(-1 0 0 1 38 152)" fill="#1DC7AD"/>
<rect width="38" height="38" transform="matrix(-1 0 0 1 228 154)" fill="#1DC7AD"/>
<rect width="38" height="38" transform="matrix(-1 0 0 1 228 192)" fill="#1DC7AD"/>
<rect width="38" height="38" transform="matrix(-1 0 0 1 266 116)" fill="#1DC7AD"/>
<rect width="38" height="38" transform="matrix(-1 0 0 1 228 116)" fill="#1DC7AD"/>
<rect width="38" height="38" transform="matrix(-1 0 0 1 190 116)" fill="#1DC7AD"/>
<rect width="38" height="38" transform="matrix(-1 0 0 1 228 266)" fill="#1DC7AD"/>
<rect width="38" height="38" transform="matrix(-1 0 0 1 266 266)" fill="#1DC7AD"/>
<rect width="38" height="38" transform="matrix(-1 0 0 1 380 114)" fill="#1DC7AD"/>
<rect width="38" height="38" transform="matrix(-1 0 0 1 418 190)" fill="#1DC7AD"/>
<rect width="38" height="38" transform="matrix(-1 0 0 1 304 266)" fill="#1DC7AD"/>
<rect width="38" height="38" transform="matrix(-1 0 0 1 342 266)" fill="#1DC7AD"/>
<rect width="38" height="38" transform="matrix(-1 0 0 1 418 152)" fill="#1DC7AD"/>
<rect width="38" height="38" transform="matrix(-1 0 0 1 380 228)" fill="#1DC7AD"/>
</svg>
