<svg width="342" height="266" viewBox="0 0 342 266" fill="none" xmlns="http://www.w3.org/2000/svg">
<rect width="38" height="38" transform="matrix(-1 0 0 1 76 0)" fill="#1DC7AD"/>
<rect width="38" height="38" transform="matrix(-1 0 0 1 114 0)" fill="#1DC7AD"/>
<rect width="38" height="38" transform="matrix(-1 0 0 1 152 0)" fill="#1DC7AD"/>
<rect width="38" height="38" transform="matrix(-1 0 0 1 228 0)" fill="#1DC7AD"/>
<rect width="38" height="38" transform="matrix(-1 0 0 1 266 0)" fill="#1DC7AD"/>
<rect width="38" height="38" transform="matrix(-1 0 0 1 304 0)" fill="#1DC7AD"/>
<rect width="38" height="38" transform="matrix(-1 0 0 1 190 0)" fill="#1DC7AD"/>
<rect width="38" height="38" transform="matrix(-1 0 0 1 38 38)" fill="#1DC7AD"/>
<rect width="38" height="38" transform="matrix(-1 0 0 1 38 76)" fill="#1DC7AD"/>
<rect width="38" height="38" transform="matrix(-1 0 0 1 38 190)" fill="#1DC7AD"/>
<rect width="38" height="38" transform="matrix(-1 0 0 1 76 228)" fill="#1DC7AD"/>
<rect width="38" height="38" transform="matrix(-1 0 0 1 114 228)" fill="#1DC7AD"/>
<rect width="38" height="38" transform="matrix(-1 0 0 1 38 152)" fill="#1DC7AD"/>
<rect width="38" height="38" transform="matrix(-1 0 0 1 38 114)" fill="#1DC7AD"/>
<rect width="38" height="38" transform="matrix(-1 0 0 1 114 114)" fill="#1DC7AD"/>
<rect width="38" height="38" transform="matrix(-1 0 0 1 190 114)" fill="#1DC7AD"/>
<rect width="38" height="38" transform="matrix(-1 0 0 1 266 114)" fill="#1DC7AD"/>
<rect width="38" height="38" transform="matrix(-1 0 0 1 152 228)" fill="#1DC7AD"/>
<rect width="38" height="38" transform="matrix(-1 0 0 1 342 38)" fill="#1DC7AD"/>
<rect width="38" height="38" transform="matrix(-1 0 0 1 190 228)" fill="#1DC7AD"/>
<rect width="38" height="38" transform="matrix(-1 0 0 1 342 76)" fill="#1DC7AD"/>
<rect width="38" height="38" transform="matrix(-1 0 0 1 342 152)" fill="#1DC7AD"/>
<rect width="38" height="38" transform="matrix(-1 0 0 1 342 190)" fill="#1DC7AD"/>
<rect width="38" height="38" transform="matrix(-1 0 0 1 228 228)" fill="#1DC7AD"/>
<rect width="38" height="38" transform="matrix(-1 0 0 1 266 228)" fill="#1DC7AD"/>
<rect width="38" height="38" transform="matrix(-1 0 0 1 342 114)" fill="#1DC7AD"/>
<rect width="38" height="38" transform="matrix(-1 0 0 1 304 228)" fill="#1DC7AD"/>
</svg>
