<svg width="418" height="266" viewBox="0 0 418 266" fill="none" xmlns="http://www.w3.org/2000/svg">
<rect width="38" height="38" transform="matrix(4.37114e-08 1 1 -4.37114e-08 0 228)" fill="#1DC7AD"/>
<rect width="38" height="38" transform="matrix(4.37114e-08 1 1 -4.37114e-08 0 190)" fill="#1DC7AD"/>
<rect width="38" height="38" transform="matrix(4.37114e-08 1 1 -4.37114e-08 38 152)" fill="#1DC7AD"/>
<rect width="38" height="38" transform="matrix(4.37114e-08 1 1 -4.37114e-08 76 114)" fill="#1DC7AD"/>
<rect width="38" height="38" transform="matrix(4.37114e-08 1 1 -4.37114e-08 38 228)" fill="#1DC7AD"/>
<rect width="38" height="38" transform="matrix(4.37114e-08 1 1 -4.37114e-08 76 228)" fill="#1DC7AD"/>
<rect width="38" height="38" transform="matrix(4.37114e-08 1 1 -4.37114e-08 114 228)" fill="#1DC7AD"/>
<rect width="38" height="38" transform="matrix(4.37114e-08 1 1 -4.37114e-08 152 228)" fill="#1DC7AD"/>
<rect width="38" height="38" transform="matrix(4.37114e-08 1 1 -4.37114e-08 152 190)" fill="#1DC7AD"/>
<rect width="38" height="38" transform="matrix(4.37114e-08 1 1 -4.37114e-08 114 152)" fill="#1DC7AD"/>
<rect width="38" height="38" transform="matrix(4.37114e-08 1 1 -4.37114e-08 228 228)" fill="#1DC7AD"/>
<rect width="38" height="38" transform="matrix(4.37114e-08 1 1 -4.37114e-08 228 190)" fill="#1DC7AD"/>
<rect width="38" height="38" transform="matrix(4.37114e-08 1 1 -4.37114e-08 266 152)" fill="#1DC7AD"/>
<rect width="38" height="38" transform="matrix(4.37114e-08 1 1 -4.37114e-08 304 114)" fill="#1DC7AD"/>
<rect width="38" height="38" transform="matrix(4.37114e-08 1 1 -4.37114e-08 266 228)" fill="#1DC7AD"/>
<rect width="38" height="38" transform="matrix(4.37114e-08 1 1 -4.37114e-08 304 228)" fill="#1DC7AD"/>
<rect width="38" height="38" transform="matrix(4.37114e-08 1 1 -4.37114e-08 342 228)" fill="#1DC7AD"/>
<rect width="38" height="38" transform="matrix(4.37114e-08 1 1 -4.37114e-08 380 228)" fill="#1DC7AD"/>
<rect width="38" height="38" transform="matrix(4.37114e-08 1 1 -4.37114e-08 380 190)" fill="#1DC7AD"/>
<rect width="38" height="38" transform="matrix(4.37114e-08 1 1 -4.37114e-08 342 152)" fill="#1DC7AD"/>
<rect width="38" height="38" transform="matrix(4.37114e-08 1 1 -4.37114e-08 76 76)" fill="#1DC7AD"/>
<rect width="38" height="38" transform="matrix(4.37114e-08 1 1 -4.37114e-08 304 76)" fill="#1DC7AD"/>
<rect width="38" height="38" transform="matrix(4.37114e-08 1 1 -4.37114e-08 76 38)" fill="#1DC7AD"/>
<rect width="38" height="38" transform="matrix(4.37114e-08 1 1 -4.37114e-08 304 38)" fill="#1DC7AD"/>
<rect width="38" height="190" transform="matrix(4.37114e-08 1 1 -4.37114e-08 114 0)" fill="#1DC7AD"/>
</svg>
