<svg width="266" height="304" viewBox="0 0 266 304" fill="none" xmlns="http://www.w3.org/2000/svg">
<rect width="38" height="38" transform="matrix(-1 0 0 1 76 0)" fill="#1DC7AD"/>
<rect width="38" height="38" transform="matrix(-1 0 0 1 114 0)" fill="#1DC7AD"/>
<rect width="38" height="38" transform="matrix(-1 0 0 1 152 0)" fill="#1DC7AD"/>
<rect width="38" height="38" transform="matrix(-1 0 0 1 190 0)" fill="#1DC7AD"/>
<rect width="38" height="38" transform="matrix(-1 0 0 1 228 0)" fill="#1DC7AD"/>
<rect width="38" height="38" transform="matrix(-1 0 0 1 38 38)" fill="#1DC7AD"/>
<rect width="38" height="38" transform="matrix(-1 0 0 1 38 0)" fill="#1DC7AD"/>
<rect width="38" height="38" transform="matrix(-1 0 0 1 228 38)" fill="#1DC7AD"/>
<rect width="38" height="38" transform="matrix(-1 0 0 1 266 0)" fill="#1DC7AD"/>
<rect width="38" height="38" transform="matrix(-1 0 0 1 38 76)" fill="#1DC7AD"/>
<rect width="38" height="38" transform="matrix(-1 0 0 1 38 114)" fill="#1DC7AD"/>
<rect width="38" height="38" transform="matrix(-1 0 0 1 38 152)" fill="#1DC7AD"/>
<rect width="38" height="38" transform="matrix(-1 0 0 1 38 190)" fill="#1DC7AD"/>
<rect width="38" height="38" transform="matrix(-1 0 0 1 38 228)" fill="#1DC7AD"/>
<rect width="38" height="38" transform="matrix(-1 0 0 1 38 266)" fill="#1DC7AD"/>
<rect width="38" height="38" transform="matrix(-1 0 0 1 190 76)" fill="#1DC7AD"/>
<rect width="38" height="38" transform="matrix(-1 0 0 1 228 114)" fill="#1DC7AD"/>
<rect width="38" height="38" transform="matrix(-1 0 0 1 266 152)" fill="#1DC7AD"/>
<rect width="38" height="38" transform="matrix(-1 0 0 1 266 190)" fill="#1DC7AD"/>
<rect width="38" height="38" transform="matrix(-1 0 0 1 152 190)" fill="#1DC7AD"/>
<rect width="38" height="38" transform="matrix(-1 0 0 1 190 190)" fill="#1DC7AD"/>
<rect width="38" height="38" transform="matrix(-1 0 0 1 228 190)" fill="#1DC7AD"/>
<rect width="38" height="38" transform="matrix(-1 0 0 1 114 190)" fill="#1DC7AD"/>
<rect width="38" height="38" transform="matrix(-1 0 0 1 76 190)" fill="#1DC7AD"/>
</svg>
