<svg width="165" height="117" viewBox="0 0 165 117" fill="none" xmlns="http://www.w3.org/2000/svg">
<path d="M164.214 56.1904C164.244 57.6764 1.95308 63.1074 8.20043e-05 63.0144C-0.007918 63.0144 0.572081 72.5414 0.572081 72.5414L0.593081 72.0774C0.594081 72.0654 0.599081 71.9194 0.599081 71.9074C0.565081 72.8954 1.01108 73.7994 1.99008 74.3634L72.8401 115.115C75.7961 116.817 79.4341 116.798 82.3951 115.104L162.611 69.2094C164.1 68.3574 164.81 66.8344 164.767 65.3354L164.811 65.3044L164.214 56.1904Z" fill="url(#paint0_linear_142_1100)"/>
<path d="M162.23 52.8164L90.3834 13.7204C87.7304 12.2114 84.4703 12.2514 81.8553 13.8264L1.44535 60.4834C-0.410648 61.6014 -0.383648 64.3014 1.49335 65.3824L72.3974 106.215C75.3554 107.919 78.9964 107.924 81.9594 106.229L162.237 60.3114C165.139 58.6534 165.134 54.4684 162.23 52.8164ZM149.092 60.2704L149.088 60.2724L82.0053 98.6424C79.5294 100.058 76.4864 100.054 74.0144 98.6304L16.3654 65.4304L14.7613 64.5064C13.1923 63.6034 13.1704 61.3464 14.7214 60.4124L81.9184 21.4224C84.1033 20.1064 86.8273 20.0724 89.0443 21.3334L149.084 54.0044C151.512 55.3874 151.516 58.8844 149.092 60.2704Z" fill="url(#paint1_linear_142_1100)"/>
<path d="M88.8272 27.4332C86.6102 26.1722 83.8852 26.2062 81.7012 27.5222L16.3662 65.4322L74.0152 98.6322C76.4872 100.056 79.5292 100.06 82.0062 98.6442L149.089 60.2742C149.011 60.2212 148.952 60.1532 148.868 60.1052L88.8272 27.4332Z" fill="url(#paint2_linear_142_1100)"/>
<path d="M149.085 54.0065L89.0454 21.3355C86.8284 20.0745 84.1034 20.1085 81.9194 21.4245L14.7224 60.4145C13.1714 61.3485 13.1934 63.6055 14.7624 64.5085L16.3664 65.4325L81.7014 27.5225C83.8864 26.2065 86.6104 26.1725 88.8274 27.4335L148.867 60.1045C148.951 60.1525 149.01 60.2205 149.088 60.2735L149.092 60.2715C151.516 58.8845 151.512 55.3875 149.085 54.0065Z" fill="url(#paint3_linear_142_1100)"/>
<path opacity="0.33" d="M140.474 53.1243L86.0636 23.5173C84.0546 22.3743 81.5856 22.4053 79.6056 23.5973L18.7106 58.9313C17.9866 59.3673 17.6476 60.1203 17.6776 60.8613C17.7056 61.5583 18.0576 62.2443 18.7476 62.6413L21.0086 63.9433L72.4446 93.5643C74.6846 94.8543 77.4416 94.8583 79.6856 93.5753L139.88 59.1453L140.482 58.8013C141.601 58.1613 142.142 57.0253 142.12 55.8993C142.096 54.8143 141.553 53.7383 140.474 53.1243Z" fill="url(#paint4_linear_142_1100)"/>
<path opacity="0.54" d="M140.474 43.4041L86.0636 13.7971C84.0546 12.6541 81.5856 12.6851 79.6056 13.8771L18.7106 49.2111C17.9866 49.6471 17.6476 50.4001 17.6776 51.1411C17.7056 51.8381 18.0576 52.5241 18.7476 52.9211L21.0086 54.2231L72.4446 83.8451C74.6846 85.1351 77.4416 85.1391 79.6856 83.8561L139.88 49.4261L140.482 49.0821C141.601 48.4421 142.142 47.3061 142.12 46.1791C142.096 45.0941 141.553 44.0181 140.474 43.4041Z" fill="url(#paint5_linear_142_1100)"/>
<path d="M142.135 33.2109L142.118 33.2179C142.14 34.3449 19.1575 38.3389 17.6775 38.2679C17.6715 38.2679 17.6475 39.6209 17.6475 39.6209L17.6725 44.9999L17.6885 44.6479C17.6895 44.6389 17.6925 44.5289 17.6935 44.5189C17.6685 45.2669 18.0055 45.9529 18.7475 46.3799L72.4435 77.2649C74.6835 78.5549 77.4405 78.5399 79.6845 77.2569L140.479 42.4729C141.608 41.8279 142.145 40.6729 142.113 39.5369L142.146 39.5139L142.135 33.2109Z" fill="url(#paint6_linear_142_1100)"/>
<path d="M140.474 30.4441L86.0636 0.836121C84.0546 -0.306879 81.5856 -0.275881 79.6056 0.916119L18.7096 36.2501C17.9856 36.6861 17.6466 37.4391 17.6766 38.1801C17.7046 38.8771 18.0566 39.5631 18.7466 39.9601L21.0076 41.2621L72.4436 70.8831C74.6836 72.1731 77.4406 72.1771 79.6846 70.8941L139.879 36.4641L140.481 36.1201C141.6 35.4801 142.141 34.3441 142.119 33.2171C142.096 32.1331 141.553 31.0571 140.474 30.4441Z" fill="url(#paint7_linear_142_1100)"/>
<mask id="mask0_142_1100" style="mask-type:luminance" maskUnits="userSpaceOnUse" x="17" y="0" width="126" height="72">
<path d="M140.474 30.4441L86.0636 0.836121C84.0546 -0.306879 81.5856 -0.275881 79.6056 0.916119L18.7096 36.2501C17.9856 36.6861 17.6466 37.4391 17.6766 38.1801C17.7046 38.8771 18.0566 39.5631 18.7466 39.9601L21.0076 41.2621L72.4436 70.8831C74.6836 72.1731 77.4406 72.1771 79.6846 70.8941L139.879 36.4641L140.481 36.1201C141.6 35.4801 142.141 34.3441 142.119 33.2171C142.096 32.1331 141.553 31.0571 140.474 30.4441Z" fill="white"/>
</mask>
<g mask="url(#mask0_142_1100)">
<path d="M37.5449 54.7512L47.3149 48.7972C48.1019 48.3172 49.0879 48.3042 49.8879 48.7622L78.1059 64.9342" stroke="#7AE6E3" stroke-width="1.0356" stroke-miterlimit="10"/>
</g>
<mask id="mask1_142_1100" style="mask-type:luminance" maskUnits="userSpaceOnUse" x="17" y="0" width="126" height="72">
<path d="M140.474 30.4441L86.0636 0.836121C84.0546 -0.306879 81.5856 -0.275881 79.6056 0.916119L18.7096 36.2501C17.9856 36.6861 17.6466 37.4391 17.6766 38.1801C17.7046 38.8771 18.0566 39.5631 18.7466 39.9601L21.0076 41.2621L72.4436 70.8831C74.6836 72.1731 77.4406 72.1771 79.6846 70.8941L139.879 36.4641L140.481 36.1201C141.6 35.4801 142.141 34.3441 142.119 33.2171C142.096 32.1331 141.553 31.0571 140.474 30.4441Z" fill="white"/>
</mask>
<g mask="url(#mask1_142_1100)">
<path d="M67.9219 58.894L81.0399 51.127" stroke="#7AE6E3" stroke-width="1.0356" stroke-miterlimit="10"/>
</g>
<mask id="mask2_142_1100" style="mask-type:luminance" maskUnits="userSpaceOnUse" x="17" y="0" width="126" height="72">
<path d="M140.474 30.4441L86.0636 0.836121C84.0546 -0.306879 81.5856 -0.275881 79.6056 0.916119L18.7096 36.2501C17.9856 36.6861 17.6466 37.4391 17.6766 38.1801C17.7046 38.8771 18.0566 39.5631 18.7466 39.9601L21.0076 41.2621L72.4436 70.8831C74.6836 72.1731 77.4406 72.1771 79.6846 70.8941L139.879 36.4641L140.481 36.1201C141.6 35.4801 142.141 34.3441 142.119 33.2171C142.096 32.1331 141.553 31.0571 140.474 30.4441Z" fill="white"/>
</mask>
<g mask="url(#mask2_142_1100)">
<path d="M74.999 63.036L88.117 55.269" stroke="#7AE6E3" stroke-width="1.0356" stroke-miterlimit="10"/>
</g>
<mask id="mask3_142_1100" style="mask-type:luminance" maskUnits="userSpaceOnUse" x="17" y="0" width="126" height="72">
<path d="M140.474 30.4441L86.0636 0.836121C84.0546 -0.306879 81.5856 -0.275881 79.6056 0.916119L18.7096 36.2501C17.9856 36.6861 17.6466 37.4391 17.6766 38.1801C17.7046 38.8771 18.0566 39.5631 18.7466 39.9601L21.0076 41.2621L72.4436 70.8831C74.6836 72.1731 77.4406 72.1771 79.6846 70.8941L139.879 36.4641L140.481 36.1201C141.6 35.4801 142.141 34.3441 142.119 33.2171C142.096 32.1331 141.553 31.0571 140.474 30.4441Z" fill="white"/>
</mask>
<g mask="url(#mask3_142_1100)">
<path d="M76.6006 31.42L84.2686 26.918" stroke="#7AE6E3" stroke-width="1.0356" stroke-miterlimit="10"/>
</g>
<mask id="mask4_142_1100" style="mask-type:luminance" maskUnits="userSpaceOnUse" x="17" y="0" width="126" height="72">
<path d="M140.474 30.4441L86.0636 0.836121C84.0546 -0.306879 81.5856 -0.275881 79.6056 0.916119L18.7096 36.2501C17.9856 36.6861 17.6466 37.4391 17.6766 38.1801C17.7046 38.8771 18.0566 39.5631 18.7466 39.9601L21.0076 41.2621L72.4436 70.8831C74.6836 72.1731 77.4406 72.1771 79.6846 70.8941L139.879 36.4641L140.481 36.1201C141.6 35.4801 142.141 34.3441 142.119 33.2171C142.096 32.1331 141.553 31.0571 140.474 30.4441Z" fill="white"/>
</mask>
<g mask="url(#mask4_142_1100)">
<path d="M71.7402 28.1802L79.4082 23.6782" stroke="#7AE6E3" stroke-width="1.0356" stroke-miterlimit="10"/>
</g>
<mask id="mask5_142_1100" style="mask-type:luminance" maskUnits="userSpaceOnUse" x="17" y="0" width="126" height="72">
<path d="M140.474 30.4441L86.0636 0.836121C84.0546 -0.306879 81.5856 -0.275881 79.6056 0.916119L18.7096 36.2501C17.9856 36.6861 17.6466 37.4391 17.6766 38.1801C17.7046 38.8771 18.0566 39.5631 18.7466 39.9601L21.0076 41.2621L72.4436 70.8831C74.6836 72.1731 77.4406 72.1771 79.6846 70.8941L139.879 36.4641L140.481 36.1201C141.6 35.4801 142.141 34.3441 142.119 33.2171C142.096 32.1331 141.553 31.0571 140.474 30.4441Z" fill="white"/>
</mask>
<g mask="url(#mask5_142_1100)">
<path d="M104.85 47.3169L112.519 42.8149" stroke="#7AE6E3" stroke-width="1.0356" stroke-miterlimit="10"/>
</g>
<mask id="mask6_142_1100" style="mask-type:luminance" maskUnits="userSpaceOnUse" x="17" y="0" width="126" height="72">
<path d="M140.474 30.4441L86.0636 0.836121C84.0546 -0.306879 81.5856 -0.275881 79.6056 0.916119L18.7096 36.2501C17.9856 36.6861 17.6466 37.4391 17.6766 38.1801C17.7046 38.8771 18.0566 39.5631 18.7466 39.9601L21.0076 41.2621L72.4436 70.8831C74.6836 72.1731 77.4406 72.1771 79.6846 70.8941L139.879 36.4641L140.481 36.1201C141.6 35.4801 142.141 34.3441 142.119 33.2171C142.096 32.1331 141.553 31.0571 140.474 30.4441Z" fill="white"/>
</mask>
<g mask="url(#mask6_142_1100)">
<path d="M44.1992 31.42L51.8672 26.918" stroke="#7AE6E3" stroke-width="1.0356" stroke-miterlimit="10"/>
</g>
<mask id="mask7_142_1100" style="mask-type:luminance" maskUnits="userSpaceOnUse" x="17" y="0" width="126" height="72">
<path d="M140.474 30.4441L86.0636 0.836121C84.0546 -0.306879 81.5856 -0.275881 79.6056 0.916119L18.7096 36.2501C17.9856 36.6861 17.6466 37.4391 17.6766 38.1801C17.7046 38.8771 18.0566 39.5631 18.7466 39.9601L21.0076 41.2621L72.4436 70.8831C74.6836 72.1731 77.4406 72.1771 79.6846 70.8941L139.879 36.4641L140.481 36.1201C141.6 35.4801 142.141 34.3441 142.119 33.2171C142.096 32.1331 141.553 31.0571 140.474 30.4441Z" fill="white"/>
</mask>
<g mask="url(#mask7_142_1100)">
<path d="M116.561 53.7972L97.5874 43.2292C96.4824 42.6142 96.3814 41.0632 97.3974 40.3092L100.748 37.8232C102.095 36.8232 101.976 34.7702 100.522 33.9332L94.6914 30.5762" stroke="#7AE6E3" stroke-width="0.8846" stroke-miterlimit="10"/>
</g>
<mask id="mask8_142_1100" style="mask-type:luminance" maskUnits="userSpaceOnUse" x="17" y="0" width="126" height="72">
<path d="M140.474 30.4441L86.0636 0.836121C84.0546 -0.306879 81.5856 -0.275881 79.6056 0.916119L18.7096 36.2501C17.9856 36.6861 17.6466 37.4391 17.6766 38.1801C17.7046 38.8771 18.0566 39.5631 18.7466 39.9601L21.0076 41.2621L72.4436 70.8831C74.6836 72.1731 77.4406 72.1771 79.6846 70.8941L139.879 36.4641L140.481 36.1201C141.6 35.4801 142.141 34.3441 142.119 33.2171C142.096 32.1331 141.553 31.0571 140.474 30.4441Z" fill="white"/>
</mask>
<g mask="url(#mask8_142_1100)">
<path d="M99.6393 28.313L86.8173 19.623C85.6683 18.845 85.6773 17.15 86.8333 16.382L104.546 4.62305" stroke="#7AE6E3" stroke-width="1.0153" stroke-miterlimit="10"/>
</g>
<mask id="mask9_142_1100" style="mask-type:luminance" maskUnits="userSpaceOnUse" x="17" y="0" width="126" height="72">
<path d="M140.474 30.4441L86.0636 0.836121C84.0546 -0.306879 81.5856 -0.275881 79.6056 0.916119L18.7096 36.2501C17.9856 36.6861 17.6466 37.4391 17.6766 38.1801C17.7046 38.8771 18.0566 39.5631 18.7466 39.9601L21.0076 41.2621L72.4436 70.8831C74.6836 72.1731 77.4406 72.1771 79.6846 70.8941L139.879 36.4641L140.481 36.1201C141.6 35.4801 142.141 34.3441 142.119 33.2171C142.096 32.1331 141.553 31.0571 140.474 30.4441Z" fill="white"/>
</mask>
<g mask="url(#mask9_142_1100)">
<path d="M58.6671 11.3003L62.6291 13.9033C63.1771 14.2633 63.1501 15.0753 62.5801 15.3993L49.3501 22.9083C48.5051 23.3883 48.4881 24.6003 49.3201 25.1033L67.2181 35.9223" stroke="#7AE6E3" stroke-width="0.8846" stroke-miterlimit="10"/>
</g>
<mask id="mask10_142_1100" style="mask-type:luminance" maskUnits="userSpaceOnUse" x="17" y="0" width="126" height="72">
<path d="M140.474 30.4441L86.0636 0.836121C84.0546 -0.306879 81.5856 -0.275881 79.6056 0.916119L18.7096 36.2501C17.9856 36.6861 17.6466 37.4391 17.6766 38.1801C17.7046 38.8771 18.0566 39.5631 18.7466 39.9601L21.0076 41.2621L72.4436 70.8831C74.6836 72.1731 77.4406 72.1771 79.6846 70.8941L139.879 36.4641L140.481 36.1201C141.6 35.4801 142.141 34.3441 142.119 33.2171C142.096 32.1331 141.553 31.0571 140.474 30.4441Z" fill="white"/>
</mask>
<g mask="url(#mask10_142_1100)">
<path d="M74.3726 1.75293L81.8496 6.57593C82.6456 7.09893 82.6066 8.27793 81.7786 8.74893L62.5646 19.6539C61.3366 20.3509 61.3126 22.1109 62.5206 22.8419L81.5606 34.3569" stroke="#7AE6E3" stroke-width="0.8846" stroke-miterlimit="10"/>
</g>
<mask id="mask11_142_1100" style="mask-type:luminance" maskUnits="userSpaceOnUse" x="17" y="0" width="126" height="72">
<path d="M140.474 30.4441L86.0636 0.836121C84.0546 -0.306879 81.5856 -0.275881 79.6056 0.916119L18.7096 36.2501C17.9856 36.6861 17.6466 37.4391 17.6766 38.1801C17.7046 38.8771 18.0566 39.5631 18.7466 39.9601L21.0076 41.2621L72.4436 70.8831C74.6836 72.1731 77.4406 72.1771 79.6846 70.8941L139.879 36.4641L140.481 36.1201C141.6 35.4801 142.141 34.3441 142.119 33.2171C142.096 32.1331 141.553 31.0571 140.474 30.4441Z" fill="white"/>
</mask>
<g mask="url(#mask11_142_1100)">
<path d="M29.417 47.6201C29.503 47.3601 41.721 40.0741 45.269 37.9621C45.865 37.6071 46.597 37.6041 47.201 37.9441L62.02 46.3041" stroke="#7AE6E3" stroke-width="0.8846" stroke-miterlimit="10"/>
</g>
<mask id="mask12_142_1100" style="mask-type:luminance" maskUnits="userSpaceOnUse" x="17" y="0" width="126" height="72">
<path d="M140.474 30.4441L86.0636 0.836121C84.0546 -0.306879 81.5856 -0.275881 79.6056 0.916119L18.7096 36.2501C17.9856 36.6861 17.6466 37.4391 17.6766 38.1801C17.7046 38.8771 18.0566 39.5631 18.7466 39.9601L21.0076 41.2621L72.4436 70.8831C74.6836 72.1731 77.4406 72.1771 79.6846 70.8941L139.879 36.4641L140.481 36.1201C141.6 35.4801 142.141 34.3441 142.119 33.2171C142.096 32.1331 141.553 31.0571 140.474 30.4441Z" fill="white"/>
</mask>
<g mask="url(#mask12_142_1100)">
<path d="M80.4972 64.9811C80.5182 65.7361 79.6512 66.3721 78.5612 66.4021C77.4712 66.4321 76.5702 65.8451 76.5502 65.0901C76.5292 64.3351 77.3962 63.6991 78.4862 63.6691C79.5762 63.6391 80.4772 64.2271 80.4972 64.9811Z" fill="#7AE6E3"/>
</g>
<mask id="mask13_142_1100" style="mask-type:luminance" maskUnits="userSpaceOnUse" x="17" y="0" width="126" height="72">
<path d="M140.474 30.4441L86.0636 0.836121C84.0546 -0.306879 81.5856 -0.275881 79.6056 0.916119L18.7096 36.2501C17.9856 36.6861 17.6466 37.4391 17.6766 38.1801C17.7046 38.8771 18.0566 39.5631 18.7466 39.9601L21.0076 41.2621L72.4436 70.8831C74.6836 72.1731 77.4406 72.1771 79.6846 70.8941L139.879 36.4641L140.481 36.1201C141.6 35.4801 142.141 34.3441 142.119 33.2171C142.096 32.1331 141.553 31.0571 140.474 30.4441Z" fill="white"/>
</mask>
<g mask="url(#mask13_142_1100)">
<path d="M64.5011 46.6549C64.5221 47.4099 63.6551 48.0459 62.5651 48.0759C61.4751 48.1059 60.5741 47.5189 60.5541 46.7639C60.5331 46.0089 61.4001 45.3729 62.4901 45.3429C63.5791 45.3129 64.4801 45.8999 64.5011 46.6549Z" fill="#7AE6E3"/>
</g>
<mask id="mask14_142_1100" style="mask-type:luminance" maskUnits="userSpaceOnUse" x="17" y="0" width="126" height="72">
<path d="M140.474 30.4441L86.0636 0.836121C84.0546 -0.306879 81.5856 -0.275881 79.6056 0.916119L18.7096 36.2501C17.9856 36.6861 17.6466 37.4391 17.6766 38.1801C17.7046 38.8771 18.0566 39.5631 18.7466 39.9601L21.0076 41.2621L72.4436 70.8831C74.6836 72.1731 77.4406 72.1771 79.6846 70.8941L139.879 36.4641L140.481 36.1201C141.6 35.4801 142.141 34.3441 142.119 33.2171C142.096 32.1331 141.553 31.0571 140.474 30.4441Z" fill="white"/>
</mask>
<g mask="url(#mask14_142_1100)">
<path d="M46.1739 31.3663C46.1949 32.1213 45.3279 32.7573 44.2379 32.7873C43.1479 32.8173 42.2469 32.2303 42.2269 31.4753C42.2059 30.7203 43.0729 30.0843 44.1629 30.0543C45.2519 30.0243 46.1529 30.6113 46.1739 31.3663Z" fill="#7AE6E3"/>
</g>
<mask id="mask15_142_1100" style="mask-type:luminance" maskUnits="userSpaceOnUse" x="17" y="0" width="126" height="72">
<path d="M140.474 30.4441L86.0636 0.836121C84.0546 -0.306879 81.5856 -0.275881 79.6056 0.916119L18.7096 36.2501C17.9856 36.6861 17.6466 37.4391 17.6766 38.1801C17.7046 38.8771 18.0566 39.5631 18.7466 39.9601L21.0076 41.2621L72.4436 70.8831C74.6836 72.1731 77.4406 72.1771 79.6846 70.8941L139.879 36.4641L140.481 36.1201C141.6 35.4801 142.141 34.3441 142.119 33.2171C142.096 32.1331 141.553 31.0571 140.474 30.4441Z" fill="white"/>
</mask>
<g mask="url(#mask15_142_1100)">
<path d="M69.1915 35.8673C69.2125 36.6223 68.3455 37.2583 67.2555 37.2883C66.1655 37.3183 65.2645 36.7313 65.2445 35.9763C65.2245 35.2213 66.0905 34.5853 67.1805 34.5553C68.2695 34.5253 69.1705 35.1133 69.1915 35.8673Z" fill="#7AE6E3"/>
</g>
<mask id="mask16_142_1100" style="mask-type:luminance" maskUnits="userSpaceOnUse" x="17" y="0" width="126" height="72">
<path d="M140.474 30.4441L86.0636 0.836121C84.0546 -0.306879 81.5856 -0.275881 79.6056 0.916119L18.7096 36.2501C17.9856 36.6861 17.6466 37.4391 17.6766 38.1801C17.7046 38.8771 18.0566 39.5631 18.7466 39.9601L21.0076 41.2621L72.4436 70.8831C74.6836 72.1731 77.4406 72.1771 79.6846 70.8941L139.879 36.4641L140.481 36.1201C141.6 35.4801 142.141 34.3441 142.119 33.2171C142.096 32.1331 141.553 31.0571 140.474 30.4441Z" fill="white"/>
</mask>
<g mask="url(#mask16_142_1100)">
<path d="M81.2706 23.215C81.2916 23.97 80.4246 24.606 79.3346 24.636C78.2446 24.666 77.3436 24.079 77.3236 23.324C77.3026 22.569 78.1696 21.933 79.2596 21.903C80.3486 21.873 81.2496 22.461 81.2706 23.215Z" fill="#7AE6E3"/>
</g>
<mask id="mask17_142_1100" style="mask-type:luminance" maskUnits="userSpaceOnUse" x="17" y="0" width="126" height="72">
<path d="M140.474 30.4441L86.0636 0.836121C84.0546 -0.306879 81.5856 -0.275881 79.6056 0.916119L18.7096 36.2501C17.9856 36.6861 17.6466 37.4391 17.6766 38.1801C17.7046 38.8771 18.0566 39.5631 18.7466 39.9601L21.0076 41.2621L72.4436 70.8831C74.6836 72.1731 77.4406 72.1771 79.6846 70.8941L139.879 36.4641L140.481 36.1201C141.6 35.4801 142.141 34.3441 142.119 33.2171C142.096 32.1331 141.553 31.0571 140.474 30.4441Z" fill="white"/>
</mask>
<g mask="url(#mask17_142_1100)">
<path d="M86.2316 26.7589C86.2526 27.5139 85.3856 28.1499 84.2956 28.1799C83.2056 28.2099 82.3046 27.6229 82.2846 26.8679C82.2636 26.1129 83.1306 25.4769 84.2206 25.4469C85.3106 25.4169 86.2106 26.0039 86.2316 26.7589Z" fill="#7AE6E3"/>
</g>
<mask id="mask18_142_1100" style="mask-type:luminance" maskUnits="userSpaceOnUse" x="17" y="0" width="126" height="72">
<path d="M140.474 30.4441L86.0636 0.836121C84.0546 -0.306879 81.5856 -0.275881 79.6056 0.916119L18.7096 36.2501C17.9856 36.6861 17.6466 37.4391 17.6766 38.1801C17.7046 38.8771 18.0566 39.5631 18.7466 39.9601L21.0076 41.2621L72.4436 70.8831C74.6836 72.1731 77.4406 72.1771 79.6846 70.8941L139.879 36.4641L140.481 36.1201C141.6 35.4801 142.141 34.3441 142.119 33.2171C142.096 32.1331 141.553 31.0571 140.474 30.4441Z" fill="white"/>
</mask>
<g mask="url(#mask18_142_1100)">
<path d="M83.9025 34.3531C83.9235 35.1081 83.0565 35.7441 81.9665 35.7741C80.8765 35.8041 79.9755 35.2171 79.9555 34.4621C79.9345 33.7071 80.8014 33.0711 81.8914 33.0411C82.9814 33.0111 83.8815 33.5981 83.9025 34.3531Z" fill="#7AE6E3"/>
</g>
<mask id="mask19_142_1100" style="mask-type:luminance" maskUnits="userSpaceOnUse" x="17" y="0" width="126" height="72">
<path d="M140.474 30.4441L86.0636 0.836121C84.0546 -0.306879 81.5856 -0.275881 79.6056 0.916119L18.7096 36.2501C17.9856 36.6861 17.6466 37.4391 17.6766 38.1801C17.7046 38.8771 18.0566 39.5631 18.7466 39.9601L21.0076 41.2621L72.4436 70.8831C74.6836 72.1731 77.4406 72.1771 79.6846 70.8941L139.879 36.4641L140.481 36.1201C141.6 35.4801 142.141 34.3441 142.119 33.2171C142.096 32.1331 141.553 31.0571 140.474 30.4441Z" fill="white"/>
</mask>
<g mask="url(#mask19_142_1100)">
<path d="M101.621 28.1774C101.642 28.9324 100.775 29.5684 99.6852 29.5984C98.5952 29.6284 97.6942 29.0414 97.6742 28.2864C97.6532 27.5314 98.5202 26.8954 99.6102 26.8654C100.7 26.8354 101.601 27.4224 101.621 28.1774Z" fill="#7AE6E3"/>
</g>
<mask id="mask20_142_1100" style="mask-type:luminance" maskUnits="userSpaceOnUse" x="17" y="0" width="126" height="72">
<path d="M140.474 30.4441L86.0636 0.836121C84.0546 -0.306879 81.5856 -0.275881 79.6056 0.916119L18.7096 36.2501C17.9856 36.6861 17.6466 37.4391 17.6766 38.1801C17.7046 38.8771 18.0566 39.5631 18.7466 39.9601L21.0076 41.2621L72.4436 70.8831C74.6836 72.1731 77.4406 72.1771 79.6846 70.8941L139.879 36.4641L140.481 36.1201C141.6 35.4801 142.141 34.3441 142.119 33.2171C142.096 32.1331 141.553 31.0571 140.474 30.4441Z" fill="white"/>
</mask>
<g mask="url(#mask20_142_1100)">
<path d="M96.7364 31.0113C96.7574 31.7663 95.8904 32.4023 94.8004 32.4323C93.7104 32.4623 92.8094 31.8753 92.7894 31.1203C92.7684 30.3653 93.6354 29.7293 94.7254 29.6993C95.8144 29.6693 96.7154 30.2563 96.7364 31.0113Z" fill="#7AE6E3"/>
</g>
<mask id="mask21_142_1100" style="mask-type:luminance" maskUnits="userSpaceOnUse" x="17" y="0" width="126" height="72">
<path d="M140.474 30.4441L86.0636 0.836121C84.0546 -0.306879 81.5856 -0.275881 79.6056 0.916119L18.7096 36.2501C17.9856 36.6861 17.6466 37.4391 17.6766 38.1801C17.7046 38.8771 18.0566 39.5631 18.7466 39.9601L21.0076 41.2621L72.4436 70.8831C74.6836 72.1731 77.4406 72.1771 79.6846 70.8941L139.879 36.4641L140.481 36.1201C141.6 35.4801 142.141 34.3441 142.119 33.2171C142.096 32.1331 141.553 31.0571 140.474 30.4441Z" fill="white"/>
</mask>
<g mask="url(#mask21_142_1100)">
<path d="M115.164 42.5533C115.185 43.3083 114.318 43.9443 113.228 43.9743C112.138 44.0043 111.237 43.4173 111.216 42.6623C111.195 41.9073 112.062 41.2713 113.152 41.2413C114.242 41.2123 115.143 41.7993 115.164 42.5533Z" fill="#7AE6E3"/>
</g>
<mask id="mask22_142_1100" style="mask-type:luminance" maskUnits="userSpaceOnUse" x="17" y="0" width="126" height="72">
<path d="M140.474 30.4441L86.0636 0.836121C84.0546 -0.306879 81.5856 -0.275881 79.6056 0.916119L18.7096 36.2501C17.9856 36.6861 17.6466 37.4391 17.6766 38.1801C17.7046 38.8771 18.0566 39.5631 18.7466 39.9601L21.0076 41.2621L72.4436 70.8831C74.6836 72.1731 77.4406 72.1771 79.6846 70.8941L139.879 36.4641L140.481 36.1201C141.6 35.4801 142.141 34.3441 142.119 33.2171C142.096 32.1331 141.553 31.0571 140.474 30.4441Z" fill="white"/>
</mask>
<g mask="url(#mask22_142_1100)">
<path d="M90.3575 55.2101C90.3785 55.9651 89.5115 56.6011 88.4215 56.6311C87.3315 56.6611 86.4305 56.0741 86.4105 55.3191C86.3895 54.5641 87.2565 53.9281 88.3465 53.8981C89.4355 53.8681 90.3365 54.4551 90.3575 55.2101Z" fill="#7AE6E3"/>
</g>
<mask id="mask23_142_1100" style="mask-type:luminance" maskUnits="userSpaceOnUse" x="17" y="0" width="126" height="72">
<path d="M140.474 30.4441L86.0636 0.836121C84.0546 -0.306879 81.5856 -0.275881 79.6056 0.916119L18.7096 36.2501C17.9856 36.6861 17.6466 37.4391 17.6766 38.1801C17.7046 38.8771 18.0566 39.5631 18.7466 39.9601L21.0076 41.2621L72.4436 70.8831C74.6836 72.1731 77.4406 72.1771 79.6846 70.8941L139.879 36.4641L140.481 36.1201C141.6 35.4801 142.141 34.3441 142.119 33.2171C142.096 32.1331 141.553 31.0571 140.474 30.4441Z" fill="white"/>
</mask>
<g mask="url(#mask23_142_1100)">
<path d="M83.7755 50.8561C83.7965 51.6111 82.9295 52.2471 81.8395 52.2771C80.7495 52.3071 79.8485 51.7201 79.8285 50.9651C79.8075 50.2101 80.6745 49.5741 81.7645 49.5441C82.8545 49.5141 83.7545 50.1021 83.7755 50.8561Z" fill="#7AE6E3"/>
</g>
<defs>
<linearGradient id="paint0_linear_142_1100" x1="0.000182004" y1="86.2866" x2="164.811" y2="86.2866" gradientUnits="userSpaceOnUse">
<stop stop-color="#6BADFA"/>
<stop offset="0.9927" stop-color="#535EDD"/>
</linearGradient>
<linearGradient id="paint1_linear_142_1100" x1="0.0691522" y1="60.0573" x2="164.411" y2="60.0573" gradientUnits="userSpaceOnUse">
<stop stop-color="#6BC7FA"/>
<stop offset="0.9927" stop-color="#5381DD"/>
</linearGradient>
<linearGradient id="paint2_linear_142_1100" x1="16.3661" y1="63.1061" x2="149.089" y2="63.1061" gradientUnits="userSpaceOnUse">
<stop stop-color="#4D2FD0"/>
<stop offset="0.3534" stop-color="#502FD5"/>
<stop offset="0.9931" stop-color="#1E2C91"/>
</linearGradient>
<linearGradient id="paint3_linear_142_1100" x1="13.5723" y1="42.922" x2="150.908" y2="42.922" gradientUnits="userSpaceOnUse">
<stop stop-color="#6BADFA"/>
<stop offset="0.9927" stop-color="#535EDD"/>
</linearGradient>
<linearGradient id="paint4_linear_142_1100" x1="17.675" y1="58.6082" x2="142.118" y2="58.6082" gradientUnits="userSpaceOnUse">
<stop offset="0.00040729" stop-color="#C66F89"/>
<stop offset="1" stop-color="#662D91"/>
</linearGradient>
<linearGradient id="paint5_linear_142_1100" x1="17.675" y1="48.8877" x2="142.118" y2="48.8877" gradientUnits="userSpaceOnUse">
<stop offset="0.00040729" stop-color="#C66F89"/>
<stop offset="1" stop-color="#662D91"/>
</linearGradient>
<linearGradient id="paint6_linear_142_1100" x1="121.897" y1="55.7197" x2="-2.60324" y2="55.7197" gradientUnits="userSpaceOnUse">
<stop stop-color="#D84789"/>
<stop offset="1" stop-color="#954ACA"/>
</linearGradient>
<linearGradient id="paint7_linear_142_1100" x1="17.675" y1="35.9274" x2="142.118" y2="35.9274" gradientUnits="userSpaceOnUse">
<stop stop-color="#D84789"/>
<stop offset="1" stop-color="#954ACA"/>
</linearGradient>
</defs>
</svg>
