<svg width="169" height="93" viewBox="0 0 169 93" fill="none" xmlns="http://www.w3.org/2000/svg">
<path d="M96.6797 62.9163L104.413 67.4273C104.835 67.6733 105.094 68.1243 105.094 68.6133V90.0273" stroke="#7AE6E3" stroke-width="0.9348" stroke-miterlimit="10"/>
<path d="M55.7804 58.4753L43.1644 66.0003C42.7254 66.2623 42.4544 66.7323 42.4474 67.2423L42.2374 82.6013C42.2304 83.1433 42.5214 83.6453 42.9954 83.9073L55.3134 90.7263" stroke="#7AE6E3" stroke-width="0.9348" stroke-miterlimit="10"/>
<path d="M41.5236 50.5293L22.8066 62.1163C22.2436 62.4643 21.5346 62.4733 20.9636 62.1383L1.55859 50.7633" stroke="#7AE6E3" stroke-width="0.9348" stroke-miterlimit="10"/>
<path d="M50.6393 36.0393L27.8793 22.8753C27.3963 22.5953 27.3923 21.8993 27.8723 21.6153L53.2093 6.59229" stroke="#7AE6E3" stroke-width="0.9348" stroke-miterlimit="10"/>
<path d="M117.48 52.6333L130.042 60.9333C130.386 61.1603 130.785 61.2913 131.196 61.3133L148.033 62.1763C148.528 62.2013 149.019 62.0673 149.432 61.7913L160.014 54.7363L166.091 59.1773" stroke="#7AE6E3" stroke-width="0.9348" stroke-miterlimit="10"/>
<path d="M112.338 30.4304C112.934 30.2314 122.143 24.1224 124.891 22.2944C125.365 21.9794 125.972 21.9614 126.467 22.2444L145.291 33.0014" stroke="#7AE6E3" stroke-width="0.9348" stroke-miterlimit="10"/>
<path d="M141.567 40.4304L141.55 40.4374C141.572 41.5264 22.6339 45.3894 21.2029 45.3214C21.1969 45.3214 21.1738 46.6304 21.1738 46.6304L21.1988 51.8324L21.2148 51.4924C21.2158 51.4834 21.2188 51.3764 21.2198 51.3684C21.1948 52.0924 21.5218 52.7554 22.2388 53.1684L74.1688 83.0374C76.3358 84.2854 79.0018 84.2704 81.1718 83.0294L139.968 49.3904C141.059 48.7664 141.58 47.6494 141.548 46.5514L141.58 46.5284L141.567 40.4304Z" fill="url(#paint0_linear_133_327)"/>
<path d="M139.96 37.7534L87.3399 9.12037C85.3969 8.01537 83.0089 8.04437 81.0939 9.19837L22.2019 43.3694C21.5019 43.7914 21.1739 44.5194 21.2029 45.2364C21.2299 45.9104 21.5709 46.5744 22.2379 46.9584L24.4239 48.2174L74.1679 76.8644C76.3349 78.1124 79.0009 78.1164 81.1709 76.8744L139.385 43.5774L139.967 43.2444C141.049 42.6254 141.572 41.5264 141.551 40.4374C141.529 39.3874 141.004 38.3474 139.96 37.7534Z" fill="url(#paint1_linear_133_327)"/>
<g opacity="0.35">
<path d="M113.228 30.3083L113.22 30.3113C113.231 30.8663 52.6171 32.8353 51.8871 32.8003C51.8841 32.8003 51.8721 33.4673 51.8721 33.4673L51.8851 44.2453L51.8931 44.0723C51.8931 44.0673 51.8951 44.0133 51.8951 44.0093C51.8831 44.3783 52.0491 44.7163 52.4141 44.9263L78.8791 60.1483C79.9831 60.7843 81.3421 60.7773 82.4481 60.1443L112.412 43.0003C112.968 42.6823 113.233 42.1133 113.217 41.5533L113.234 41.5413L113.228 30.3083Z" fill="url(#paint2_linear_133_327)"/>
<path d="M112.41 28.9443L85.5926 14.3523C84.6026 13.7893 83.3856 13.8043 82.4096 14.3923L52.3966 31.8073C52.0396 32.0223 51.8726 32.3933 51.8876 32.7583C51.9016 33.1023 52.0756 33.4403 52.4146 33.6353L53.5286 34.2773L78.8796 48.8773C79.9836 49.5133 81.3426 49.5153 82.4486 48.8823L112.117 31.9133L112.414 31.7433C112.966 31.4273 113.232 30.8683 113.221 30.3123C113.209 29.7773 112.941 29.2473 112.41 28.9443Z" fill="url(#paint3_linear_133_327)"/>
</g>
<path d="M98.9275 30.1112L83.6914 21.8202C83.1284 21.5002 82.4375 21.5092 81.8835 21.8422L64.8315 31.7362C64.6285 31.8582 64.5345 32.0692 64.5425 32.2762C64.5505 32.4712 64.6495 32.6632 64.8425 32.7742L65.4754 33.1392L79.8785 41.4342C80.5055 41.7952 81.2774 41.7962 81.9064 41.4372L98.7615 31.7962L98.9305 31.7002C99.2435 31.5212 99.3954 31.2032 99.3894 30.8872C99.3824 30.5842 99.2295 30.2832 98.9275 30.1112Z" fill="url(#paint4_linear_133_327)"/>
<g opacity="0.35">
<path d="M129.412 25.3184L129.399 25.3234C129.416 26.1824 35.6598 29.2274 34.5318 29.1734C34.5268 29.1734 34.5088 30.2054 34.5088 30.2054L34.5278 46.8764L34.5398 46.6084C34.5398 46.6014 34.5428 46.5174 34.5438 46.5104C34.5248 47.0814 34.7818 47.6034 35.3468 47.9294L76.2818 71.4754C77.9898 72.4594 80.0918 72.4474 81.8028 71.4694L128.15 44.9524C129.01 44.4604 129.42 43.5804 129.396 42.7144L129.422 42.6964L129.412 25.3184Z" fill="url(#paint5_linear_133_327)"/>
<path d="M128.145 23.2084L86.6646 0.637369C85.1336 -0.233631 83.2506 -0.210626 81.7416 0.698374L35.3186 27.6354C34.7666 27.9684 34.5086 28.5424 34.5306 29.1064C34.5516 29.6384 34.8206 30.1604 35.3466 30.4634L37.0706 31.4564L76.2826 54.0384C77.9906 55.0224 80.0926 55.0254 81.8036 54.0464L127.693 27.7984L128.152 27.5354C129.005 27.0474 129.417 26.1814 129.4 25.3224C129.382 24.4974 128.968 23.6764 128.145 23.2084Z" fill="url(#paint6_linear_133_327)"/>
</g>
<path d="M57.728 90.9613C57.728 91.7363 56.856 92.3633 55.78 92.3633C54.704 92.3633 53.832 91.7353 53.832 90.9613C53.832 90.1873 54.704 89.5593 55.78 89.5593C56.856 89.5593 57.728 90.1873 57.728 90.9613Z" fill="#7AE6E3"/>
<path d="M3.896 50.6073C3.896 51.3823 3.024 52.0093 1.948 52.0093C0.871998 52.0093 0 51.3813 0 50.6073C0 49.8333 0.871998 49.2053 1.948 49.2053C3.025 49.2053 3.896 49.8333 3.896 50.6073Z" fill="#7AE6E3"/>
<path d="M55.2348 6.51431C55.2348 7.28831 54.3628 7.91631 53.2878 7.91631C52.2118 7.91631 51.3398 7.28831 51.3398 6.51431C51.3398 5.74031 52.2118 5.1123 53.2878 5.1123C54.3628 5.1123 55.2348 5.73931 55.2348 6.51431Z" fill="#7AE6E3"/>
<path d="M147.239 32.8454C147.239 33.6204 146.367 34.2474 145.291 34.2474C144.215 34.2474 143.343 33.6194 143.343 32.8454C143.343 32.0714 144.215 31.4434 145.291 31.4434C146.367 31.4434 147.239 32.0714 147.239 32.8454Z" fill="#7AE6E3"/>
<path d="M168.039 59.1774C168.039 59.9514 167.167 60.5794 166.091 60.5794C165.015 60.5794 164.143 59.9514 164.143 59.1774C164.143 58.4034 165.015 57.7754 166.091 57.7754C167.167 57.7744 168.039 58.4024 168.039 59.1774Z" fill="#7AE6E3"/>
<path d="M107.976 90.0263C107.976 90.8003 107.104 91.4283 106.028 91.4283C104.952 91.4283 104.08 90.8003 104.08 90.0263C104.08 89.2513 104.952 88.6243 106.028 88.6243C107.104 88.6243 107.976 89.2523 107.976 90.0263Z" fill="#7AE6E3"/>
<defs>
<linearGradient id="paint0_linear_133_327" x1="121.994" y1="62.1983" x2="1.58902" y2="62.1983" gradientUnits="userSpaceOnUse">
<stop stop-color="#D84789"/>
<stop offset="1" stop-color="#954ACA"/>
</linearGradient>
<linearGradient id="paint1_linear_133_327" x1="21.2012" y1="43.0569" x2="141.551" y2="43.0569" gradientUnits="userSpaceOnUse">
<stop stop-color="#D84789"/>
<stop offset="1" stop-color="#954ACA"/>
</linearGradient>
<linearGradient id="paint2_linear_133_327" x1="103.254" y1="45.4655" x2="41.8917" y2="45.4655" gradientUnits="userSpaceOnUse">
<stop stop-color="#6BC7FA"/>
<stop offset="0.9927" stop-color="#5381DD"/>
</linearGradient>
<linearGradient id="paint3_linear_133_327" x1="51.8861" y1="31.6469" x2="113.22" y2="31.6469" gradientUnits="userSpaceOnUse">
<stop stop-color="#6BC7FA"/>
<stop offset="0.9927" stop-color="#5381DD"/>
</linearGradient>
<linearGradient id="paint4_linear_133_327" x1="64.5421" y1="31.6468" x2="99.3883" y2="31.6468" gradientUnits="userSpaceOnUse">
<stop stop-color="#6BC7FA"/>
<stop offset="0.9927" stop-color="#5381DD"/>
</linearGradient>
<linearGradient id="paint5_linear_133_327" x1="113.983" y1="48.7634" x2="19.0701" y2="48.7634" gradientUnits="userSpaceOnUse">
<stop stop-color="#6BC7FA"/>
<stop offset="0.9927" stop-color="#5381DD"/>
</linearGradient>
<linearGradient id="paint6_linear_133_327" x1="34.5298" y1="27.3892" x2="129.399" y2="27.3892" gradientUnits="userSpaceOnUse">
<stop stop-color="#6BC7FA"/>
<stop offset="0.9927" stop-color="#5381DD"/>
</linearGradient>
</defs>
</svg>
