<svg width="162" height="159" viewBox="0 0 162 159" fill="none" xmlns="http://www.w3.org/2000/svg">
<path d="M3.31993 99.5942L0.00292969 99.3262L0.109928 103.822L7.27993 108.21L13.1129 105.48L3.31993 99.5942Z" fill="url(#paint0_linear_133_580)"/>
<path d="M12.3112 94.457L8.99316 94.189L9.10017 98.684L16.2712 103.072L22.1042 100.343L12.3112 94.457Z" fill="url(#paint1_linear_133_580)"/>
<path d="M21.943 89.3188L18.625 89.0518L18.732 93.5468L25.903 97.9348L31.736 95.2058L21.943 89.3188Z" fill="url(#paint2_linear_133_580)"/>
<path d="M31.5758 83.54L28.2578 83.272L28.3648 87.767L35.5358 92.156L41.3688 89.426L31.5758 83.54Z" fill="url(#paint3_linear_133_580)"/>
<path d="M40.566 78.4018L37.248 78.1348L37.355 82.6298L44.5261 87.0178L50.359 84.2888L40.566 78.4018Z" fill="url(#paint4_linear_133_580)"/>
<path d="M48.9142 73.265L45.5962 72.998L45.7032 77.493L52.8742 81.881L58.7072 79.152L48.9142 73.265Z" fill="url(#paint5_linear_133_580)"/>
<path d="M59.1891 68.1279L55.8711 67.8599L55.9781 72.3549L63.1491 76.7439L68.9821 74.0139L59.1891 68.1279Z" fill="url(#paint6_linear_133_580)"/>
<path d="M67.5368 62.9901L64.2188 62.7231L64.3258 67.2181L71.4967 71.6061L77.3298 68.8771L67.5368 62.9901Z" fill="url(#paint7_linear_133_580)"/>
<path d="M94.7222 62.9899L97.9272 62.4019L97.7922 67.3379L90.7622 71.6059L84.9292 68.8769L94.7222 62.9899Z" fill="url(#paint8_linear_133_580)"/>
<path d="M103.712 68.1281L106.918 67.5391L106.783 72.4761L99.7519 76.7441L93.9189 74.0141L103.712 68.1281Z" fill="url(#paint9_linear_133_580)"/>
<path d="M113.345 73.2648L116.55 72.6768L116.415 77.6128L109.385 81.8808L103.552 79.1518L113.345 73.2648Z" fill="url(#paint10_linear_133_580)"/>
<path d="M122.335 78.402L125.54 77.814L125.406 82.751L118.375 87.018L112.542 84.289L122.335 78.402Z" fill="url(#paint11_linear_133_580)"/>
<path d="M131.326 83.5402L134.531 82.9512L134.396 87.8882L127.366 92.1562L121.533 89.4261L131.326 83.5402Z" fill="url(#paint12_linear_133_580)"/>
<path d="M140.316 88.6769L143.521 88.0879L143.386 93.0249L136.356 97.2929L130.523 94.5639L140.316 88.6769Z" fill="url(#paint13_linear_133_580)"/>
<path d="M149.306 93.8151L152.511 93.2261L152.377 98.1621L145.346 102.43L139.513 99.7011L149.306 93.8151Z" fill="url(#paint14_linear_133_580)"/>
<path d="M158.297 99.5939L161.502 99.0049L161.367 103.942L154.336 108.21L148.503 105.48L158.297 99.5939Z" fill="url(#paint15_linear_133_580)"/>
<path d="M1.2331 114.257C1.0731 114.31 0.350098 114.444 0.350098 114.444L0.404095 119.822L4.2571 121.909L12.1231 117.093L16.3241 119.635L21.8091 116.317L11.9091 110.778L4.0421 114.711L1.2331 114.257Z" fill="url(#paint16_linear_133_580)"/>
<path d="M10.2238 119.394C10.0628 119.447 9.34082 119.581 9.34082 119.581L9.39382 124.959L13.2468 127.046L21.1138 122.23L25.3148 124.772L30.7998 121.454L20.8998 115.915L13.0328 119.848L10.2238 119.394Z" fill="url(#paint17_linear_133_580)"/>
<path d="M19.2141 125.174C19.0531 125.227 18.3311 125.361 18.3311 125.361L18.3841 130.739L22.2371 132.826L30.1031 128.01L34.3041 130.552L39.7891 127.234L29.8891 121.695L22.0221 125.628L19.2141 125.174Z" fill="url(#paint18_linear_133_580)"/>
<path d="M28.2038 130.311C28.0438 130.364 27.3208 130.498 27.3208 130.498L27.3748 135.876L31.2278 137.963L39.0948 133.147L43.2958 135.689L48.7808 132.371L38.8808 126.832L31.0138 130.765L28.2038 130.311Z" fill="url(#paint19_linear_133_580)"/>
<path d="M37.195 135.448C37.035 135.502 36.312 135.635 36.312 135.635L36.366 141.013L40.219 143.1L48.086 138.284L52.287 140.826L57.772 137.508L47.872 131.969L40.005 135.902L37.195 135.448Z" fill="url(#paint20_linear_133_580)"/>
<path d="M46.1848 140.586C46.0238 140.639 45.3018 140.773 45.3018 140.773L45.3548 146.151L49.2078 148.238L57.0748 143.422L61.2758 145.964L66.7608 142.646L56.8608 137.107L48.9938 141.04L46.1848 140.586Z" fill="url(#paint21_linear_133_580)"/>
<path d="M55.175 145.723C55.014 145.776 54.292 145.91 54.292 145.91L54.346 151.288L58.199 153.375L66.066 148.559L70.267 151.101L75.752 147.783L65.852 142.244L57.986 146.177L55.175 145.723Z" fill="url(#paint22_linear_133_580)"/>
<path d="M105.264 145.081C105.425 145.135 106.278 145.245 106.278 145.245L106.294 150.365L102.374 152.626L94.374 147.917L90.173 150.459L84.688 147.141L94.588 141.602L102.455 145.535L105.264 145.081Z" fill="url(#paint23_linear_133_580)"/>
<path d="M114.255 139.943C114.415 139.996 115.269 140.107 115.269 140.107L115.285 145.227L111.365 147.488L103.365 142.779L99.1642 145.321L93.6792 142.003L103.579 136.464L111.445 140.397L114.255 139.943Z" fill="url(#paint24_linear_133_580)"/>
<path d="M123.245 134.806C123.405 134.859 124.259 134.97 124.259 134.97L124.275 140.09L120.355 142.351L112.355 137.642L108.154 140.184L102.669 136.866L112.569 131.327L120.436 135.26L123.245 134.806Z" fill="url(#paint25_linear_133_580)"/>
<path d="M132.235 129.027C132.396 129.08 133.249 129.191 133.249 129.191L133.265 134.311L129.345 136.572L121.345 131.863L117.144 134.405L111.659 131.087L121.559 125.548L129.426 129.481L132.235 129.027Z" fill="url(#paint26_linear_133_580)"/>
<path d="M141.868 123.889C142.029 123.942 142.882 124.053 142.882 124.053L142.898 129.173L138.978 131.434L130.978 126.725L126.777 129.267L121.292 125.949L131.192 120.41L139.059 124.343L141.868 123.889Z" fill="url(#paint27_linear_133_580)"/>
<path d="M150.858 118.752C151.019 118.805 151.872 118.916 151.872 118.916L151.888 124.036L147.968 126.297L139.968 121.588L135.767 124.13L130.282 120.812L140.182 115.273L148.049 119.206L150.858 118.752Z" fill="url(#paint28_linear_133_580)"/>
<path d="M159.848 113.615C160.009 113.668 160.862 113.779 160.862 113.779L160.878 118.899L156.958 121.16L148.958 116.451L144.757 118.993L139.272 115.675L149.172 110.136L157.039 114.069L159.848 113.615Z" fill="url(#paint29_linear_133_580)"/>
<path d="M84.1262 147.114L79.0722 149.922L74.8422 147.382L66.9752 151.315L64.1652 150.86C64.0052 150.913 63.2822 151.047 63.2822 151.047L63.3352 156.425L67.1882 158.512L75.0552 153.696L80.0582 156.853L85.6232 153.856L93.3832 157.977L97.0752 155.89L97.2362 151.02L84.1262 147.114Z" fill="url(#paint30_linear_133_580)"/>
<path d="M10.2771 109.093C10.1971 109.066 4.20312 107.22 4.20312 107.22L4.28312 114.043L11.2401 109.494L10.2771 109.093Z" fill="url(#paint31_linear_133_580)"/>
<path d="M151.527 107.086C151.661 107.139 157.842 106.604 157.842 106.604L157.789 113.989L150.725 108.424L151.527 107.086Z" fill="url(#paint32_linear_133_580)"/>
<path d="M157.868 106.604L153.169 103.89L161.507 99.005L157.547 96.65C157.547 96.65 152.775 99.548 149.306 101.659L143.673 98.406L152.517 93.225L148.557 90.87C148.557 90.87 143.31 94.056 139.82 96.181L134.729 93.241L143.526 88.087L139.566 85.732C139.566 85.732 134.364 88.89 130.875 91.015L125.785 88.076L134.535 82.95L130.575 80.595C130.575 80.595 125.419 83.726 121.93 85.85L116.841 82.911L125.545 77.812L121.585 75.457C121.585 75.457 116.473 78.561 112.986 80.684L107.898 77.746L116.555 72.674L112.595 70.319C112.595 70.319 107.528 73.395 104.041 75.519L98.63 72.394L106.922 67.536L102.962 65.181C102.962 65.181 98.231 68.053 94.767 70.162L89.687 67.228L97.932 62.398L93.972 60.043C93.972 60.043 89.283 62.89 85.822 64.997L81.877 62.719L76.971 65.53L68.391 60.365L64.217 62.72C64.217 62.72 70.125 66.114 72.933 67.845L68.321 70.487L60.042 65.503L55.868 67.858C55.868 67.858 62.141 71.443 64.268 72.81L58.684 76.009L49.767 70.641L45.593 72.996C45.593 72.996 53.61 77.577 54.59 78.356L50.035 80.966L41.419 75.779L37.245 78.134C37.245 78.134 44.258 82.142 45.967 83.297L41.057 86.111L32.429 80.916L28.255 83.271C28.255 83.271 35.3 87.297 36.989 88.442L31.204 91.757L22.797 86.696L18.623 89.051C18.623 89.051 25.152 92.782 27.146 94.083L21.896 97.091L13.164 91.834L8.99 94.189C8.99 94.189 16.321 98.378 17.821 99.427L12.918 102.236L4.174 96.972L0 99.327C0 99.327 6.269 102.9 8.909 104.534L4.174 107.247L8.398 109.686L0.321003 114.418L4.281 116.773C4.281 116.773 8.823 114.015 12.265 111.92L17.341 114.851L9.311 119.555L13.271 121.91C13.271 121.91 17.773 119.177 21.21 117.085L26.837 120.335L18.302 125.335L22.262 127.69C22.262 127.69 27.214 124.683 30.696 122.563L35.781 125.499L27.292 130.472L31.252 132.827C31.252 132.827 36.161 129.846 39.64 127.728L44.724 130.664L36.282 135.61L40.242 137.965C40.242 137.965 45.108 135.01 48.585 132.894L53.668 135.829L45.272 140.748L49.232 143.103C49.232 143.103 54.056 140.174 57.529 138.06L62.611 140.995L54.262 145.886L58.222 148.241C58.222 148.241 63.004 145.338 66.473 143.226L71.554 146.16L63.252 151.024L67.212 153.379C67.212 153.379 71.952 150.501 75.417 148.391L80.162 151.131L85.035 148.339C88.508 150.453 93.326 153.379 93.326 153.379L97.286 151.024L88.911 146.118L94.556 142.883C97.968 144.96 102.316 147.599 102.316 147.599L106.276 145.244L98.443 140.655L103.534 137.738C106.948 139.816 111.306 142.462 111.306 142.462L115.266 140.108L107.421 135.512L112.513 132.594C115.929 134.673 120.297 137.325 120.297 137.325L124.257 134.97L116.4 130.367L122.035 127.138C125.355 129.158 129.287 131.546 129.287 131.546L133.247 129.191L125.932 124.905L131.344 121.804C134.726 123.862 138.92 126.408 138.92 126.408L142.88 124.053L135.235 119.574L140.323 116.659C143.707 118.718 147.911 121.271 147.911 121.271L151.871 118.916L144.214 114.43L149.302 111.515C152.688 113.576 156.902 116.134 156.902 116.134L160.862 113.779L153.192 109.286L157.868 106.604Z" fill="url(#paint33_linear_133_580)"/>
<path d="M126.283 101.029L87.446 79.8958C86.012 79.0798 84.249 79.1018 82.836 79.9528L39.37 105.174C38.853 105.485 38.612 106.023 38.632 106.552C38.652 107.05 38.903 107.539 39.396 107.823L41.01 108.752L77.724 129.895C79.323 130.816 81.291 130.819 82.893 129.903L125.858 105.327L126.288 105.081C127.087 104.624 127.473 103.813 127.457 103.009C127.441 102.235 127.053 101.467 126.283 101.029Z" fill="url(#paint34_linear_133_580)"/>
<path d="M135.226 0L135.212 0.00601196C135.231 0.941012 33.1929 4.25501 31.9649 4.19601C31.9599 4.19601 31.9399 5.319 31.9399 5.319L31.9609 107.96L31.9739 107.668C31.9739 107.66 31.9769 107.569 31.9779 107.561C31.9569 108.182 32.2369 108.751 32.8519 109.105L77.4029 134.73C79.2619 135.8 81.5489 135.788 83.4109 134.723L133.852 105.864C134.788 105.328 135.235 104.371 135.208 103.428L135.236 103.408L135.226 0Z" fill="url(#paint35_linear_133_580)"/>
<path d="M114.63 50.3862C113.622 50.9622 112.716 49.4061 113.722 48.8321C117.136 46.8831 120.55 44.9352 123.964 42.9862C124.972 42.4102 125.878 43.9662 124.872 44.5402C121.458 46.4882 118.044 48.4372 114.63 50.3862ZM107.718 54.4072C109.247 53.5342 110.777 52.6612 112.306 51.7882C113.312 51.2142 112.406 49.6592 111.398 50.2342C109.869 51.1072 108.339 51.9801 106.81 52.8531C105.804 53.4281 106.709 54.9832 107.718 54.4072ZM102.655 57.1692C103.53 56.6702 104.405 56.1702 105.28 55.6712C106.286 55.0972 105.38 53.5422 104.372 54.1172C103.497 54.6162 102.622 55.1162 101.747 55.6152C100.741 56.1902 101.647 57.7452 102.655 57.1692ZM89.9322 64.4842C92.3012 63.1322 94.6702 61.7792 97.0392 60.4272C98.0452 59.8532 97.1392 58.2982 96.1312 58.8732C93.7622 60.2252 91.3932 61.5782 89.0242 62.9302C88.0182 63.5042 88.9242 65.0592 89.9322 64.4842ZM109.853 108.979C110.728 108.48 111.603 107.98 112.478 107.481C113.484 106.907 112.578 105.352 111.57 105.927C110.695 106.426 109.82 106.926 108.945 107.425C107.939 107.999 108.844 109.555 109.853 108.979ZM97.1302 116.293C99.4992 114.941 101.868 113.588 104.237 112.236C105.243 111.662 104.337 110.107 103.329 110.682C100.96 112.034 98.5912 113.387 96.2222 114.739C95.2162 115.314 96.1222 116.869 97.1302 116.293ZM119.654 53.7411C121.393 52.7481 123.133 51.7551 124.872 50.7631C125.878 50.1891 124.972 48.6342 123.964 49.2092C122.225 50.2022 120.485 51.1952 118.746 52.1872C117.74 52.7612 118.646 54.3171 119.654 53.7411ZM110.708 58.8722C112.98 57.5942 115.252 56.3152 117.524 55.0372C118.533 54.4692 117.627 52.9141 116.616 53.4831C114.344 54.7621 112.072 56.0402 109.8 57.3182C108.791 57.8862 109.697 59.4412 110.708 58.8722ZM109.615 59.4722C109.976 59.2662 110.337 59.0602 110.698 58.8542C111.12 58.6132 111.264 58.0392 111.021 57.6232C110.773 57.1992 110.214 57.0582 109.79 57.3002C109.429 57.5062 109.068 57.7121 108.707 57.9181C108.285 58.1591 108.141 58.7332 108.384 59.1492C108.632 59.5732 109.192 59.7132 109.615 59.4722ZM105.149 62.0211C105.52 61.8091 105.891 61.5972 106.262 61.3862C106.684 61.1452 106.828 60.5711 106.585 60.1551C106.337 59.7311 105.778 59.5912 105.354 59.8321C104.983 60.0441 104.612 60.2562 104.241 60.4672C103.819 60.7082 103.675 61.2821 103.918 61.6981C104.166 62.1221 104.726 62.2631 105.149 62.0211ZM95.6262 67.4571C97.8962 66.1621 100.165 64.8662 102.434 63.5712C103.44 62.9972 102.534 61.4421 101.526 62.0171C99.2562 63.3121 96.9872 64.6082 94.7182 65.9032C93.7122 66.4772 94.6182 68.0322 95.6262 67.4571ZM89.9322 70.7071C91.8302 69.6241 93.7282 68.5401 95.6262 67.4571C96.6322 66.8832 95.7262 65.3282 94.7182 65.9032C92.8202 66.9862 90.9222 68.0702 89.0242 69.1532C88.0182 69.7272 88.9242 71.2822 89.9322 70.7071ZM120.697 57.8701C122.089 57.0761 123.48 56.2811 124.872 55.4871C125.878 54.9131 124.972 53.3582 123.964 53.9332C122.572 54.7272 121.18 55.5222 119.789 56.3162C118.783 56.8902 119.688 58.4451 120.697 57.8701ZM119.363 58.6312C119.808 58.3772 120.252 58.1231 120.696 57.8701C121.118 57.6291 121.262 57.0552 121.019 56.6392C120.771 56.2152 120.213 56.0752 119.789 56.3162C119.345 56.5702 118.899 56.8231 118.455 57.0771C118.033 57.3181 117.889 57.8922 118.132 58.3082C118.38 58.7322 118.94 58.8732 119.363 58.6312ZM116.561 60.2302C116.892 60.0412 117.223 59.8522 117.554 59.6632C117.976 59.4222 118.12 58.8482 117.877 58.4322C117.629 58.0082 117.069 57.8672 116.646 58.1092C116.315 58.2982 115.984 58.4871 115.653 58.6761C115.231 58.9171 115.087 59.4912 115.33 59.9072C115.578 60.3322 116.138 60.4722 116.561 60.2302ZM113.613 61.9132C114.596 61.3522 115.578 60.7912 116.561 60.2302C117.567 59.6562 116.661 58.1011 115.653 58.6761C114.67 59.2371 113.688 59.7982 112.705 60.3592C111.7 60.9332 112.605 62.4892 113.613 61.9132ZM89.9322 75.4311C91.4262 74.5781 92.9202 73.7252 94.4152 72.8722C95.4212 72.2982 94.5152 70.7432 93.5072 71.3182C92.0132 72.1712 90.5182 73.0242 89.0242 73.8772C88.0182 74.4512 88.9242 76.0061 89.9322 75.4311ZM113.92 67.0612C117.571 64.9772 121.221 62.8931 124.872 60.8101C125.878 60.2361 124.972 58.6812 123.964 59.2562C120.313 61.3402 116.663 63.4242 113.012 65.5072C112.006 66.0822 112.912 67.6372 113.92 67.0612ZM103.832 72.8202C105.872 71.6552 107.913 70.4912 109.954 69.3262C110.96 68.7522 110.054 67.1972 109.046 67.7722C107.006 68.9372 104.965 70.1022 102.924 71.2662C101.919 71.8402 102.824 73.3952 103.832 72.8202ZM89.9322 80.7541C92.0512 79.5441 94.1702 78.3352 96.2882 77.1262C97.2942 76.5522 96.3882 74.9972 95.3802 75.5722C93.2612 76.7822 91.1422 77.9912 89.0242 79.2002C88.0182 79.7742 88.9242 81.3291 89.9322 80.7541ZM114.63 72.1291C118.044 70.1801 121.458 68.2322 124.872 66.2832C125.878 65.7092 124.972 64.1542 123.964 64.7292C120.55 66.6782 117.136 68.6262 113.722 70.5752C112.716 71.1492 113.622 72.7051 114.63 72.1291ZM107.718 76.1511C109.247 75.2781 110.777 74.4052 112.306 73.5322C113.312 72.9582 112.406 71.4031 111.398 71.9781C109.869 72.8511 108.339 73.7242 106.81 74.5972C105.804 75.1712 106.709 76.7262 107.718 76.1511ZM102.655 78.9132C103.53 78.4132 104.405 77.9142 105.28 77.4152C106.286 76.8412 105.38 75.2862 104.372 75.8612C103.497 76.3612 102.622 76.8602 101.747 77.3592C100.741 77.9332 101.647 79.4882 102.655 78.9132ZM89.9322 86.2272C92.3012 84.8752 94.6702 83.5222 97.0392 82.1702C98.0452 81.5962 97.1392 80.0411 96.1312 80.6161C93.7622 81.9681 91.3932 83.3212 89.0242 84.6732C88.0182 85.2482 88.9242 86.8032 89.9322 86.2272ZM119.654 75.4852C121.393 74.4922 123.133 73.4992 124.872 72.5072C125.878 71.9332 124.972 70.3782 123.964 70.9532C122.225 71.9462 120.485 72.9392 118.746 73.9322C117.74 74.5052 118.646 76.0602 119.654 75.4852ZM110.708 80.6152C112.98 79.3362 115.252 78.0581 117.524 76.7801C118.533 76.2121 117.627 74.6572 116.616 75.2262C114.344 76.5042 112.072 77.7832 109.8 79.0612C108.791 79.6302 109.697 81.1852 110.708 80.6152ZM109.615 81.2151C109.976 81.0091 110.337 80.8032 110.698 80.5972C111.12 80.3562 111.264 79.7821 111.021 79.3661C110.773 78.9421 110.214 78.8011 109.79 79.0431C109.429 79.2491 109.068 79.4552 108.707 79.6612C108.285 79.9022 108.141 80.4761 108.384 80.8921C108.632 81.3161 109.192 81.4571 109.615 81.2151ZM105.149 83.7642C105.52 83.5522 105.891 83.3401 106.262 83.1291C106.684 82.8881 106.828 82.3142 106.585 81.8982C106.337 81.4742 105.778 81.3342 105.354 81.5752C104.983 81.7872 104.612 81.9992 104.241 82.2102C103.819 82.4512 103.675 83.0252 103.918 83.4412C104.166 83.8662 104.726 84.0062 105.149 83.7642ZM95.6262 89.2002C97.8962 87.9042 100.165 86.6091 102.434 85.3141C103.44 84.7401 102.534 83.1852 101.526 83.7602C99.2562 85.0552 96.9872 86.3511 94.7182 87.6461C93.7122 88.2211 94.6182 89.7762 95.6262 89.2002ZM89.9322 92.4502C91.8302 91.3672 93.7282 90.2832 95.6262 89.2002C96.6322 88.6262 95.7262 87.0711 94.7182 87.6461C92.8202 88.7291 90.9222 89.8131 89.0242 90.8961C88.0182 91.4711 88.9242 93.0262 89.9322 92.4502ZM120.697 79.6132C122.089 78.8192 123.48 78.0242 124.872 77.2302C125.878 76.6562 124.972 75.1011 123.964 75.6761C122.572 76.4701 121.18 77.2652 119.789 78.0592C118.783 78.6342 119.688 80.1892 120.697 79.6132ZM119.363 80.3742C119.808 80.1202 120.252 79.8672 120.696 79.6132C121.118 79.3722 121.262 78.7982 121.019 78.3822C120.771 77.9582 120.213 77.8182 119.789 78.0592C119.345 78.3132 118.899 78.5662 118.455 78.8202C118.033 79.0612 117.889 79.6351 118.132 80.0511C118.38 80.4761 118.94 80.6162 119.363 80.3742ZM116.561 81.9741C116.892 81.7851 117.223 81.5962 117.554 81.4072C117.976 81.1662 118.12 80.5921 117.877 80.1761C117.629 79.7521 117.069 79.6121 116.646 79.8531C116.315 80.0421 115.984 80.2312 115.653 80.4202C115.231 80.6612 115.087 81.2351 115.33 81.6511C115.578 82.0751 116.138 82.2161 116.561 81.9741ZM113.613 83.6572C114.596 83.0962 115.578 82.5351 116.561 81.9741C117.567 81.4001 116.661 79.8452 115.653 80.4202C114.67 80.9812 113.688 81.5421 112.705 82.1031C111.7 82.6771 112.605 84.2322 113.613 83.6572ZM89.9322 97.1742C91.4262 96.3212 92.9202 95.4682 94.4152 94.6152C95.4212 94.0412 94.5152 92.4862 93.5072 93.0612C92.0132 93.9142 90.5182 94.7671 89.0242 95.6201C88.0182 96.1941 88.9242 97.7502 89.9322 97.1742ZM113.92 88.8052C117.571 86.7212 121.221 84.6372 124.872 82.5542C125.878 81.9802 124.972 80.4251 123.964 81.0001C120.313 83.0841 116.663 85.1682 113.012 87.2522C112.006 87.8252 112.912 89.3812 113.92 88.8052ZM103.832 94.5632C105.872 93.3982 107.913 92.2332 109.954 91.0691C110.96 90.4951 110.054 88.9402 109.046 89.5152C107.006 90.6802 104.965 91.8451 102.924 93.0092C101.919 93.5832 102.824 95.1392 103.832 94.5632ZM89.9322 102.497C92.0512 101.288 94.1702 100.078 96.2882 98.8692C97.2942 98.2952 96.3882 96.7402 95.3802 97.3152C93.2612 98.5242 91.1422 99.7342 89.0242 100.943C88.0182 101.518 88.9242 103.073 89.9322 102.497Z" fill="url(#paint36_linear_133_580)"/>
<path d="M50.84 50.3858C47.426 48.4368 44.012 46.4888 40.598 44.5398C39.592 43.9658 40.498 42.4108 41.506 42.9858C44.92 44.9348 48.334 46.8828 51.748 48.8318C52.753 49.4058 51.848 50.9608 50.84 50.3858ZM57.752 54.4068C58.76 54.9828 59.666 53.4268 58.66 52.8528C57.131 51.9798 55.601 51.1068 54.072 50.2338C53.064 49.6578 52.158 51.2138 53.164 51.7878C54.694 52.6608 56.223 53.5338 57.752 54.4068ZM62.815 57.1688C63.823 57.7448 64.729 56.1888 63.723 55.6148C62.848 55.1158 61.973 54.6158 61.098 54.1168C60.09 53.5408 59.184 55.0968 60.19 55.6708C61.065 56.1698 61.94 56.6698 62.815 57.1688ZM75.538 64.4838C76.546 65.0598 77.452 63.5038 76.446 62.9298C74.077 61.5778 71.708 60.2248 69.339 58.8728C68.331 58.2968 67.425 59.8528 68.431 60.4268C70.799 61.7788 73.169 63.1308 75.538 64.4838ZM55.617 108.979C56.625 109.555 57.531 107.999 56.525 107.425C55.65 106.926 54.775 106.426 53.9 105.927C52.892 105.351 51.986 106.907 52.992 107.481C53.867 107.98 54.742 108.48 55.617 108.979ZM68.34 116.293C69.348 116.869 70.254 115.313 69.248 114.739C66.879 113.387 64.51 112.034 62.141 110.682C61.133 110.106 60.227 111.662 61.233 112.236C63.602 113.589 65.971 114.941 68.34 116.293ZM45.816 53.7408C46.824 54.3168 47.73 52.7608 46.724 52.1868C44.985 51.1938 43.245 50.2008 41.506 49.2088C40.498 48.6328 39.592 50.1888 40.598 50.7628C42.337 51.7558 44.077 52.7478 45.816 53.7408ZM54.762 58.8718C55.773 59.4408 56.68 57.8858 55.67 57.3178C53.398 56.0388 51.126 54.7608 48.854 53.4828C47.842 52.9138 46.936 54.4688 47.946 55.0368C50.218 56.3148 52.49 57.5928 54.762 58.8718ZM55.855 59.4718C56.279 59.7138 56.838 59.5728 57.086 59.1488C57.329 58.7328 57.185 58.1588 56.763 57.9178C56.402 57.7118 56.041 57.5058 55.68 57.2998C55.256 57.0578 54.697 57.1988 54.449 57.6228C54.206 58.0388 54.35 58.6128 54.772 58.8538C55.133 59.0598 55.494 59.2658 55.855 59.4718ZM60.321 62.0208C60.745 62.2628 61.304 62.1218 61.552 61.6978C61.795 61.2818 61.651 60.7078 61.229 60.4668C60.858 60.2548 60.487 60.0428 60.116 59.8318C59.692 59.5898 59.133 59.7308 58.885 60.1548C58.642 60.5708 58.786 61.1448 59.208 61.3858C59.578 61.5968 59.95 61.8088 60.321 62.0208ZM69.844 67.4568C70.852 68.0328 71.758 66.4768 70.752 65.9028C68.483 64.6078 66.213 63.3118 63.944 62.0168C62.936 61.4408 62.03 62.9968 63.036 63.5708C65.305 64.8658 67.574 66.1608 69.844 67.4568ZM75.538 70.7068C76.546 71.2828 77.452 69.7268 76.446 69.1528C74.548 68.0698 72.65 66.9858 70.752 65.9028C69.744 65.3268 68.838 66.8828 69.844 67.4568C71.742 68.5398 73.64 69.6238 75.538 70.7068ZM44.773 57.8698C45.781 58.4458 46.687 56.8898 45.681 56.3158C44.289 55.5218 42.898 54.7268 41.506 53.9328C40.498 53.3568 39.592 54.9128 40.598 55.4868C41.99 56.2808 43.382 57.0748 44.773 57.8698ZM46.107 58.6308C46.531 58.8728 47.09 58.7318 47.338 58.3078C47.581 57.8918 47.437 57.3178 47.015 57.0768C46.57 56.8228 46.126 56.5688 45.681 56.3158C45.258 56.0738 44.698 56.2148 44.45 56.6388C44.207 57.0548 44.351 57.6288 44.773 57.8698C45.218 58.1228 45.662 58.3768 46.107 58.6308ZM48.909 60.2298C49.333 60.4718 49.892 60.3308 50.14 59.9068C50.383 59.4908 50.239 58.9168 49.817 58.6758C49.486 58.4868 49.155 58.2978 48.824 58.1088C48.4 57.8668 47.841 58.0078 47.593 58.4318C47.35 58.8478 47.494 59.4218 47.916 59.6628C48.247 59.8518 48.578 60.0408 48.909 60.2298ZM51.857 61.9128C52.865 62.4888 53.771 60.9328 52.765 60.3588C51.782 59.7978 50.8 59.2368 49.817 58.6758C48.809 58.0998 47.903 59.6558 48.909 60.2298C49.891 60.7908 50.874 61.3518 51.857 61.9128ZM75.538 75.4308C76.546 76.0068 77.452 74.4508 76.446 73.8768C74.952 73.0238 73.457 72.1708 71.963 71.3178C70.955 70.7418 70.049 72.2978 71.055 72.8718C72.549 73.7248 74.043 74.5778 75.538 75.4308ZM51.55 67.0608C52.558 67.6368 53.464 66.0808 52.458 65.5068C48.807 63.4228 45.157 61.3388 41.506 59.2558C40.498 58.6798 39.592 60.2358 40.598 60.8098C44.249 62.8938 47.899 64.9778 51.55 67.0608ZM61.638 72.8198C62.646 73.3958 63.552 71.8398 62.546 71.2658C60.505 70.1008 58.465 68.9368 56.424 67.7718C55.416 67.1958 54.51 68.7518 55.516 69.3258C57.556 70.4898 59.597 71.6548 61.638 72.8198ZM75.538 80.7538C76.546 81.3298 77.452 79.7738 76.446 79.1998C74.327 77.9908 72.208 76.7808 70.09 75.5718C69.082 74.9958 68.176 76.5518 69.182 77.1258C71.3 78.3348 73.419 79.5438 75.538 80.7538ZM50.84 72.1288C51.848 72.7048 52.754 71.1488 51.748 70.5748C48.334 68.6258 44.92 66.6778 41.506 64.7288C40.498 64.1528 39.592 65.7088 40.598 66.2828C44.012 68.2318 47.426 70.1808 50.84 72.1288ZM57.752 76.1508C58.76 76.7268 59.666 75.1708 58.66 74.5968C57.131 73.7238 55.601 72.8508 54.072 71.9778C53.064 71.4018 52.158 72.9578 53.164 73.5318C54.694 74.4048 56.223 75.2778 57.752 76.1508ZM62.815 78.9128C63.823 79.4878 64.729 77.9328 63.723 77.3588C62.848 76.8588 61.973 76.3598 61.098 75.8608C60.09 75.2848 59.184 76.8408 60.19 77.4148C61.065 77.9138 61.94 78.4138 62.815 78.9128ZM75.538 86.2268C76.546 86.8028 77.452 85.2468 76.446 84.6728C74.077 83.3208 71.708 81.9678 69.339 80.6158C68.331 80.0398 67.425 81.5958 68.431 82.1698C70.799 83.5228 73.169 84.8748 75.538 86.2268ZM45.816 75.4848C46.824 76.0608 47.73 74.5048 46.724 73.9308C44.985 72.9378 43.245 71.9448 41.506 70.9518C40.498 70.3758 39.592 71.9318 40.598 72.5058C42.337 73.4988 44.077 74.4918 45.816 75.4848ZM54.762 80.6148C55.773 81.1838 56.68 79.6288 55.67 79.0608C53.398 77.7828 51.126 76.5038 48.854 75.2258C47.842 74.6568 46.936 76.2118 47.946 76.7798C50.218 78.0588 52.49 79.3368 54.762 80.6148ZM55.855 81.2148C56.279 81.4568 56.838 81.3158 57.086 80.8918C57.329 80.4758 57.185 79.9018 56.763 79.6608C56.402 79.4548 56.041 79.2488 55.68 79.0428C55.256 78.8008 54.697 78.9418 54.449 79.3658C54.206 79.7818 54.35 80.3558 54.772 80.5968C55.133 80.8028 55.494 81.0088 55.855 81.2148ZM60.321 83.7638C60.745 84.0058 61.304 83.8648 61.552 83.4408C61.795 83.0248 61.651 82.4508 61.229 82.2098C60.858 81.9978 60.487 81.7858 60.116 81.5748C59.692 81.3328 59.133 81.4738 58.885 81.8978C58.642 82.3138 58.786 82.8878 59.208 83.1288C59.578 83.3408 59.95 83.5528 60.321 83.7638ZM69.844 89.1998C70.852 89.7758 71.758 88.2198 70.752 87.6458C68.483 86.3498 66.213 85.0548 63.944 83.7598C62.936 83.1838 62.03 84.7398 63.036 85.3138C65.305 86.6088 67.574 87.9048 69.844 89.1998ZM75.538 92.4498C76.546 93.0258 77.452 91.4698 76.446 90.8958C74.548 89.8128 72.65 88.7288 70.752 87.6458C69.744 87.0698 68.838 88.6258 69.844 89.1998C71.742 90.2838 73.64 91.3668 75.538 92.4498ZM44.773 79.6128C45.781 80.1888 46.687 78.6328 45.681 78.0588C44.289 77.2648 42.898 76.4698 41.506 75.6758C40.498 75.0998 39.592 76.6558 40.598 77.2298C41.99 78.0238 43.382 78.8188 44.773 79.6128ZM46.107 80.3738C46.531 80.6158 47.09 80.4748 47.338 80.0508C47.581 79.6348 47.437 79.0608 47.015 78.8198C46.57 78.5658 46.126 78.3128 45.681 78.0588C45.258 77.8168 44.698 77.9578 44.45 78.3818C44.207 78.7978 44.351 79.3718 44.773 79.6128C45.218 79.8668 45.662 80.1208 46.107 80.3738ZM48.909 81.9738C49.333 82.2158 49.892 82.0748 50.14 81.6508C50.383 81.2348 50.239 80.6608 49.817 80.4198C49.486 80.2308 49.155 80.0418 48.824 79.8528C48.4 79.6108 47.841 79.7518 47.593 80.1758C47.35 80.5918 47.494 81.1658 47.916 81.4068C48.247 81.5958 48.578 81.7848 48.909 81.9738ZM51.857 83.6568C52.865 84.2328 53.771 82.6768 52.765 82.1028C51.782 81.5418 50.8 80.9808 49.817 80.4198C48.809 79.8438 47.903 81.3998 48.909 81.9738C49.891 82.5348 50.874 83.0958 51.857 83.6568ZM75.538 97.1738C76.546 97.7498 77.452 96.1938 76.446 95.6198C74.952 94.7668 73.457 93.9138 71.963 93.0608C70.955 92.4848 70.049 94.0408 71.055 94.6148C72.549 95.4678 74.043 96.3208 75.538 97.1738ZM51.55 88.8048C52.558 89.3808 53.464 87.8248 52.458 87.2508C48.807 85.1668 45.157 83.0828 41.506 80.9988C40.498 80.4228 39.592 81.9788 40.598 82.5528C44.249 84.6368 47.899 86.7208 51.55 88.8048ZM61.638 94.5628C62.646 95.1388 63.552 93.5828 62.546 93.0088C60.505 91.8438 58.465 90.6788 56.424 89.5148C55.416 88.9388 54.51 90.4948 55.516 91.0688C57.556 92.2338 59.597 93.3978 61.638 94.5628ZM75.538 102.497C76.546 103.073 77.452 101.517 76.446 100.943C74.327 99.7338 72.208 98.5238 70.09 97.3148C69.082 96.7388 68.176 98.2948 69.182 98.8688C71.3 100.079 73.419 101.288 75.538 102.497Z" fill="url(#paint37_linear_133_580)"/>
<defs>
<linearGradient id="paint0_linear_133_580" x1="0.00252969" y1="103.768" x2="13.1134" y2="103.768" gradientUnits="userSpaceOnUse">
<stop stop-color="#6B84FA"/>
<stop offset="0.9935" stop-color="#5358DD"/>
</linearGradient>
<linearGradient id="paint1_linear_133_580" x1="8.99306" y1="98.6308" x2="22.104" y2="98.6308" gradientUnits="userSpaceOnUse">
<stop stop-color="#6B84FA"/>
<stop offset="0.9935" stop-color="#5358DD"/>
</linearGradient>
<linearGradient id="paint2_linear_133_580" x1="18.6254" y1="93.4931" x2="31.7363" y2="93.4931" gradientUnits="userSpaceOnUse">
<stop stop-color="#6B84FA"/>
<stop offset="0.9935" stop-color="#5358DD"/>
</linearGradient>
<linearGradient id="paint3_linear_133_580" x1="28.2577" y1="87.7139" x2="41.3686" y2="87.7139" gradientUnits="userSpaceOnUse">
<stop stop-color="#6B84FA"/>
<stop offset="0.9935" stop-color="#5358DD"/>
</linearGradient>
<linearGradient id="paint4_linear_133_580" x1="37.2482" y1="82.5764" x2="50.3591" y2="82.5764" gradientUnits="userSpaceOnUse">
<stop stop-color="#6B84FA"/>
<stop offset="0.9935" stop-color="#5358DD"/>
</linearGradient>
<linearGradient id="paint5_linear_133_580" x1="45.5966" y1="77.4393" x2="58.7075" y2="77.4393" gradientUnits="userSpaceOnUse">
<stop stop-color="#6B84FA"/>
<stop offset="0.9935" stop-color="#5358DD"/>
</linearGradient>
<linearGradient id="paint6_linear_133_580" x1="55.8712" y1="72.3019" x2="68.9821" y2="72.3019" gradientUnits="userSpaceOnUse">
<stop stop-color="#6B84FA"/>
<stop offset="0.9935" stop-color="#5358DD"/>
</linearGradient>
<linearGradient id="paint7_linear_133_580" x1="64.2189" y1="67.1646" x2="77.3299" y2="67.1646" gradientUnits="userSpaceOnUse">
<stop stop-color="#6B84FA"/>
<stop offset="0.9935" stop-color="#5358DD"/>
</linearGradient>
<linearGradient id="paint8_linear_133_580" x1="84.9293" y1="67.0039" x2="97.9275" y2="67.0039" gradientUnits="userSpaceOnUse">
<stop stop-color="#6B84FA"/>
<stop offset="0.9935" stop-color="#5358DD"/>
</linearGradient>
<linearGradient id="paint9_linear_133_580" x1="93.9193" y1="72.1415" x2="106.918" y2="72.1415" gradientUnits="userSpaceOnUse">
<stop stop-color="#6B84FA"/>
<stop offset="0.9935" stop-color="#5358DD"/>
</linearGradient>
<linearGradient id="paint10_linear_133_580" x1="103.552" y1="77.2785" x2="116.55" y2="77.2785" gradientUnits="userSpaceOnUse">
<stop stop-color="#6B84FA"/>
<stop offset="0.9935" stop-color="#5358DD"/>
</linearGradient>
<linearGradient id="paint11_linear_133_580" x1="112.542" y1="82.416" x2="125.54" y2="82.416" gradientUnits="userSpaceOnUse">
<stop stop-color="#6B84FA"/>
<stop offset="0.9935" stop-color="#5358DD"/>
</linearGradient>
<linearGradient id="paint12_linear_133_580" x1="121.533" y1="87.5535" x2="134.531" y2="87.5535" gradientUnits="userSpaceOnUse">
<stop stop-color="#6B84FA"/>
<stop offset="0.9935" stop-color="#5358DD"/>
</linearGradient>
<linearGradient id="paint13_linear_133_580" x1="130.523" y1="92.6906" x2="143.521" y2="92.6906" gradientUnits="userSpaceOnUse">
<stop stop-color="#6B84FA"/>
<stop offset="0.9935" stop-color="#5358DD"/>
</linearGradient>
<linearGradient id="paint14_linear_133_580" x1="139.513" y1="97.8281" x2="152.512" y2="97.8281" gradientUnits="userSpaceOnUse">
<stop stop-color="#6B84FA"/>
<stop offset="0.9935" stop-color="#5358DD"/>
</linearGradient>
<linearGradient id="paint15_linear_133_580" x1="148.503" y1="103.607" x2="161.502" y2="103.607" gradientUnits="userSpaceOnUse">
<stop stop-color="#6B84FA"/>
<stop offset="0.9935" stop-color="#5358DD"/>
</linearGradient>
<linearGradient id="paint16_linear_133_580" x1="0.350498" y1="116.344" x2="21.8096" y2="116.344" gradientUnits="userSpaceOnUse">
<stop stop-color="#6B84FA"/>
<stop offset="0.9935" stop-color="#5358DD"/>
</linearGradient>
<linearGradient id="paint17_linear_133_580" x1="9.34062" y1="121.481" x2="30.7996" y2="121.481" gradientUnits="userSpaceOnUse">
<stop stop-color="#6B84FA"/>
<stop offset="0.9935" stop-color="#5358DD"/>
</linearGradient>
<linearGradient id="paint18_linear_133_580" x1="18.3312" y1="127.26" x2="39.7902" y2="127.26" gradientUnits="userSpaceOnUse">
<stop stop-color="#6B84FA"/>
<stop offset="0.9935" stop-color="#5358DD"/>
</linearGradient>
<linearGradient id="paint19_linear_133_580" x1="27.3212" y1="132.398" x2="48.7803" y2="132.398" gradientUnits="userSpaceOnUse">
<stop stop-color="#6B84FA"/>
<stop offset="0.9935" stop-color="#5358DD"/>
</linearGradient>
<linearGradient id="paint20_linear_133_580" x1="36.3117" y1="137.535" x2="57.7708" y2="137.535" gradientUnits="userSpaceOnUse">
<stop stop-color="#6B84FA"/>
<stop offset="0.9935" stop-color="#5358DD"/>
</linearGradient>
<linearGradient id="paint21_linear_133_580" x1="45.3019" y1="142.673" x2="66.7609" y2="142.673" gradientUnits="userSpaceOnUse">
<stop stop-color="#6B84FA"/>
<stop offset="0.9935" stop-color="#5358DD"/>
</linearGradient>
<linearGradient id="paint22_linear_133_580" x1="54.2924" y1="147.81" x2="75.7515" y2="147.81" gradientUnits="userSpaceOnUse">
<stop stop-color="#6B84FA"/>
<stop offset="0.9935" stop-color="#5358DD"/>
</linearGradient>
<linearGradient id="paint23_linear_133_580" x1="84.6883" y1="147.114" x2="106.294" y2="147.114" gradientUnits="userSpaceOnUse">
<stop stop-color="#6B84FA"/>
<stop offset="0.9935" stop-color="#5358DD"/>
</linearGradient>
<linearGradient id="paint24_linear_133_580" x1="93.6788" y1="141.977" x2="115.285" y2="141.977" gradientUnits="userSpaceOnUse">
<stop stop-color="#6B84FA"/>
<stop offset="0.9935" stop-color="#5358DD"/>
</linearGradient>
<linearGradient id="paint25_linear_133_580" x1="102.669" y1="136.84" x2="124.275" y2="136.84" gradientUnits="userSpaceOnUse">
<stop stop-color="#6B84FA"/>
<stop offset="0.9935" stop-color="#5358DD"/>
</linearGradient>
<linearGradient id="paint26_linear_133_580" x1="111.659" y1="131.06" x2="133.266" y2="131.06" gradientUnits="userSpaceOnUse">
<stop stop-color="#6B84FA"/>
<stop offset="0.9935" stop-color="#5358DD"/>
</linearGradient>
<linearGradient id="paint27_linear_133_580" x1="121.292" y1="125.923" x2="142.898" y2="125.923" gradientUnits="userSpaceOnUse">
<stop stop-color="#6B84FA"/>
<stop offset="0.9935" stop-color="#5358DD"/>
</linearGradient>
<linearGradient id="paint28_linear_133_580" x1="130.282" y1="120.785" x2="151.889" y2="120.785" gradientUnits="userSpaceOnUse">
<stop stop-color="#6B84FA"/>
<stop offset="0.9935" stop-color="#5358DD"/>
</linearGradient>
<linearGradient id="paint29_linear_133_580" x1="139.272" y1="115.648" x2="160.879" y2="115.648" gradientUnits="userSpaceOnUse">
<stop stop-color="#6B84FA"/>
<stop offset="0.9935" stop-color="#5358DD"/>
</linearGradient>
<linearGradient id="paint30_linear_133_580" x1="63.2829" y1="152.814" x2="97.2375" y2="152.814" gradientUnits="userSpaceOnUse">
<stop stop-color="#6B84FA"/>
<stop offset="0.9935" stop-color="#5358DD"/>
</linearGradient>
<linearGradient id="paint31_linear_133_580" x1="4.20352" y1="110.631" x2="11.2406" y2="110.631" gradientUnits="userSpaceOnUse">
<stop stop-color="#6B84FA"/>
<stop offset="0.9935" stop-color="#5358DD"/>
</linearGradient>
<linearGradient id="paint32_linear_133_580" x1="150.724" y1="110.297" x2="157.842" y2="110.297" gradientUnits="userSpaceOnUse">
<stop stop-color="#6B84FA"/>
<stop offset="0.9935" stop-color="#5358DD"/>
</linearGradient>
<linearGradient id="paint33_linear_133_580" x1="0.0026" y1="106.711" x2="161.507" y2="106.711" gradientUnits="userSpaceOnUse">
<stop stop-color="#6BC7FA"/>
<stop offset="0.9927" stop-color="#5381DD"/>
</linearGradient>
<linearGradient id="paint34_linear_133_580" x1="38.6317" y1="104.943" x2="127.457" y2="104.943" gradientUnits="userSpaceOnUse">
<stop stop-color="#D84789"/>
<stop offset="1" stop-color="#954ACA"/>
</linearGradient>
<linearGradient id="paint35_linear_133_580" x1="83.5885" y1="22.0443" x2="83.5885" y2="157.572" gradientUnits="userSpaceOnUse">
<stop stop-color="#D84789" stop-opacity="0"/>
<stop offset="1" stop-color="#954ACA"/>
</linearGradient>
<linearGradient id="paint36_linear_133_580" x1="106.948" y1="42.8604" x2="106.948" y2="116.419" gradientUnits="userSpaceOnUse">
<stop stop-color="#6BC7FA" stop-opacity="0"/>
<stop offset="0.998" stop-color="#53D0DD"/>
</linearGradient>
<linearGradient id="paint37_linear_133_580" x1="58.522" y1="42.86" x2="58.522" y2="116.419" gradientUnits="userSpaceOnUse">
<stop stop-color="#6BC7FA" stop-opacity="0"/>
<stop offset="0.998" stop-color="#53D0DD"/>
</linearGradient>
</defs>
</svg>
