<svg width="162" height="159" viewBox="0 0 162 159" fill="none" xmlns="http://www.w3.org/2000/svg">
<path d="M3.31993 99.5939L0.00292969 99.3259L0.109928 103.822L7.27993 108.21L13.1129 105.48L3.31993 99.5939Z" fill="url(#paint0_linear_133_446)"/>
<path d="M12.3112 94.457L8.99316 94.189L9.10017 98.684L16.2712 103.072L22.1042 100.343L12.3112 94.457Z" fill="url(#paint1_linear_133_446)"/>
<path d="M21.943 89.319L18.625 89.052L18.732 93.547L25.903 97.935L31.736 95.206L21.943 89.319Z" fill="url(#paint2_linear_133_446)"/>
<path d="M31.5758 83.54L28.2578 83.272L28.3648 87.767L35.5358 92.156L41.3688 89.426L31.5758 83.54Z" fill="url(#paint3_linear_133_446)"/>
<path d="M40.566 78.402L37.248 78.135L37.355 82.63L44.5261 87.018L50.359 84.289L40.566 78.402Z" fill="url(#paint4_linear_133_446)"/>
<path d="M48.9137 73.265L45.5957 72.998L45.7027 77.493L52.8737 81.881L58.7067 79.152L48.9137 73.265Z" fill="url(#paint5_linear_133_446)"/>
<path d="M59.1891 68.1281L55.8711 67.8601L55.9781 72.3551L63.1491 76.7441L68.9821 74.0141L59.1891 68.1281Z" fill="url(#paint6_linear_133_446)"/>
<path d="M67.5368 62.9901L64.2188 62.7231L64.3258 67.2181L71.4967 71.6061L77.3298 68.8771L67.5368 62.9901Z" fill="url(#paint7_linear_133_446)"/>
<path d="M94.7217 62.9901L97.9267 62.4021L97.7917 67.3381L90.7617 71.6061L84.9287 68.8771L94.7217 62.9901Z" fill="url(#paint8_linear_133_446)"/>
<path d="M103.712 68.1281L106.918 67.5391L106.783 72.4761L99.7519 76.7441L93.9189 74.0141L103.712 68.1281Z" fill="url(#paint9_linear_133_446)"/>
<path d="M113.345 73.265L116.55 72.677L116.415 77.613L109.385 81.881L103.552 79.152L113.345 73.265Z" fill="url(#paint10_linear_133_446)"/>
<path d="M122.335 78.402L125.54 77.814L125.406 82.751L118.375 87.018L112.542 84.289L122.335 78.402Z" fill="url(#paint11_linear_133_446)"/>
<path d="M131.326 83.5399L134.531 82.9509L134.396 87.8879L127.366 92.1559L121.533 89.4259L131.326 83.5399Z" fill="url(#paint12_linear_133_446)"/>
<path d="M140.316 88.6769L143.521 88.0879L143.386 93.0249L136.356 97.2929L130.523 94.5639L140.316 88.6769Z" fill="url(#paint13_linear_133_446)"/>
<path d="M149.306 93.8151L152.511 93.2261L152.377 98.1621L145.346 102.43L139.513 99.7011L149.306 93.8151Z" fill="url(#paint14_linear_133_446)"/>
<path d="M158.297 99.5939L161.502 99.0049L161.367 103.942L154.336 108.21L148.503 105.48L158.297 99.5939Z" fill="url(#paint15_linear_133_446)"/>
<path d="M1.23261 114.257C1.07261 114.31 0.349609 114.444 0.349609 114.444L0.403606 119.822L4.25661 121.909L12.1226 117.093L16.3236 119.635L21.8086 116.317L11.9086 110.778L4.04161 114.711L1.23261 114.257Z" fill="url(#paint16_linear_133_446)"/>
<path d="M10.2238 119.394C10.0628 119.447 9.34082 119.581 9.34082 119.581L9.39382 124.959L13.2468 127.046L21.1138 122.23L25.3148 124.772L30.7998 121.454L20.8998 115.915L13.0328 119.848L10.2238 119.394Z" fill="url(#paint17_linear_133_446)"/>
<path d="M19.2141 125.174C19.0531 125.227 18.3311 125.361 18.3311 125.361L18.3841 130.739L22.2371 132.826L30.1031 128.01L34.3041 130.552L39.7891 127.234L29.8891 121.695L22.0221 125.628L19.2141 125.174Z" fill="url(#paint18_linear_133_446)"/>
<path d="M28.2043 130.311C28.0443 130.364 27.3213 130.498 27.3213 130.498L27.3753 135.876L31.2283 137.963L39.0953 133.147L43.2963 135.689L48.7813 132.371L38.8813 126.832L31.0143 130.765L28.2043 130.311Z" fill="url(#paint19_linear_133_446)"/>
<path d="M37.1945 135.448C37.0345 135.502 36.3115 135.635 36.3115 135.635L36.3655 141.013L40.2185 143.1L48.0855 138.284L52.2865 140.826L57.7715 137.508L47.8715 131.969L40.0045 135.902L37.1945 135.448Z" fill="url(#paint20_linear_133_446)"/>
<path d="M46.1848 140.586C46.0238 140.639 45.3018 140.773 45.3018 140.773L45.3548 146.151L49.2078 148.238L57.0748 143.422L61.2758 145.964L66.7608 142.646L56.8608 137.107L48.9938 141.04L46.1848 140.586Z" fill="url(#paint21_linear_133_446)"/>
<path d="M55.175 145.723C55.014 145.776 54.292 145.91 54.292 145.91L54.346 151.288L58.199 153.375L66.066 148.559L70.267 151.101L75.752 147.783L65.852 142.244L57.986 146.177L55.175 145.723Z" fill="url(#paint22_linear_133_446)"/>
<path d="M105.264 145.081C105.425 145.135 106.278 145.245 106.278 145.245L106.294 150.365L102.374 152.626L94.3745 147.917L90.1735 150.459L84.6885 147.141L94.5885 141.602L102.455 145.535L105.264 145.081Z" fill="url(#paint23_linear_133_446)"/>
<path d="M114.255 139.943C114.415 139.996 115.269 140.107 115.269 140.107L115.285 145.227L111.365 147.488L103.365 142.779L99.1637 145.321L93.6787 142.003L103.579 136.464L111.445 140.397L114.255 139.943Z" fill="url(#paint24_linear_133_446)"/>
<path d="M123.245 134.806C123.405 134.859 124.259 134.97 124.259 134.97L124.275 140.09L120.355 142.351L112.355 137.642L108.154 140.184L102.669 136.866L112.569 131.327L120.436 135.26L123.245 134.806Z" fill="url(#paint25_linear_133_446)"/>
<path d="M132.235 129.027C132.396 129.08 133.249 129.191 133.249 129.191L133.265 134.311L129.345 136.572L121.345 131.863L117.144 134.405L111.659 131.087L121.559 125.548L129.426 129.481L132.235 129.027Z" fill="url(#paint26_linear_133_446)"/>
<path d="M141.868 123.889C142.029 123.942 142.882 124.053 142.882 124.053L142.898 129.173L138.978 131.434L130.978 126.725L126.777 129.267L121.292 125.949L131.192 120.41L139.059 124.343L141.868 123.889Z" fill="url(#paint27_linear_133_446)"/>
<path d="M150.858 118.752C151.019 118.805 151.872 118.916 151.872 118.916L151.888 124.036L147.968 126.297L139.968 121.588L135.767 124.13L130.282 120.812L140.182 115.273L148.049 119.206L150.858 118.752Z" fill="url(#paint28_linear_133_446)"/>
<path d="M159.848 113.615C160.009 113.668 160.862 113.779 160.862 113.779L160.878 118.899L156.958 121.16L148.958 116.451L144.757 118.993L139.272 115.675L149.172 110.136L157.039 114.069L159.848 113.615Z" fill="url(#paint29_linear_133_446)"/>
<path d="M84.1262 147.114L79.0722 149.922L74.8422 147.382L66.9752 151.315L64.1652 150.86C64.0052 150.913 63.2822 151.047 63.2822 151.047L63.3352 156.425L67.1882 158.512L75.0552 153.696L80.0582 156.853L85.6232 153.856L93.3832 157.977L97.0752 155.89L97.2362 151.02L84.1262 147.114Z" fill="url(#paint30_linear_133_446)"/>
<path d="M10.2771 109.093C10.1971 109.066 4.20312 107.22 4.20312 107.22L4.28312 114.043L11.2401 109.494L10.2771 109.093Z" fill="url(#paint31_linear_133_446)"/>
<path d="M151.527 107.086C151.661 107.139 157.842 106.604 157.842 106.604L157.789 113.989L150.725 108.424L151.527 107.086Z" fill="url(#paint32_linear_133_446)"/>
<path d="M157.868 106.604L153.169 103.89L161.507 99.005L157.547 96.65C157.547 96.65 152.775 99.548 149.306 101.659L143.673 98.406L152.517 93.225L148.557 90.87C148.557 90.87 143.31 94.056 139.82 96.181L134.729 93.241L143.526 88.087L139.566 85.732C139.566 85.732 134.364 88.89 130.875 91.015L125.785 88.076L134.535 82.95L130.575 80.595C130.575 80.595 125.419 83.726 121.93 85.85L116.841 82.911L125.545 77.812L121.585 75.457C121.585 75.457 116.473 78.561 112.986 80.684L107.898 77.746L116.555 72.674L112.595 70.319C112.595 70.319 107.528 73.395 104.041 75.519L98.63 72.394L106.922 67.536L102.962 65.181C102.962 65.181 98.231 68.053 94.767 70.162L89.687 67.228L97.932 62.398L93.972 60.043C93.972 60.043 89.283 62.89 85.822 64.997L81.877 62.719L76.971 65.53L68.391 60.365L64.217 62.72C64.217 62.72 70.125 66.114 72.933 67.845L68.321 70.487L60.042 65.503L55.868 67.858C55.868 67.858 62.141 71.443 64.268 72.81L58.684 76.009L49.767 70.641L45.593 72.996C45.593 72.996 53.61 77.577 54.59 78.356L50.035 80.966L41.419 75.779L37.245 78.134C37.245 78.134 44.258 82.142 45.967 83.297L41.057 86.111L32.429 80.916L28.255 83.271C28.255 83.271 35.3 87.297 36.989 88.442L31.204 91.757L22.797 86.696L18.623 89.051C18.623 89.051 25.152 92.782 27.146 94.083L21.896 97.091L13.164 91.834L8.99 94.189C8.99 94.189 16.321 98.378 17.821 99.427L12.918 102.236L4.174 96.972L0 99.327C0 99.327 6.269 102.9 8.909 104.534L4.174 107.247L8.398 109.686L0.321003 114.418L4.281 116.773C4.281 116.773 8.823 114.015 12.265 111.92L17.341 114.851L9.311 119.555L13.271 121.91C13.271 121.91 17.773 119.177 21.21 117.085L26.837 120.335L18.302 125.335L22.262 127.69C22.262 127.69 27.214 124.683 30.696 122.563L35.781 125.499L27.292 130.472L31.252 132.827C31.252 132.827 36.161 129.846 39.64 127.728L44.724 130.664L36.282 135.61L40.242 137.965C40.242 137.965 45.108 135.01 48.585 132.894L53.668 135.829L45.272 140.748L49.232 143.103C49.232 143.103 54.056 140.174 57.529 138.06L62.611 140.995L54.262 145.886L58.222 148.241C58.222 148.241 63.004 145.338 66.473 143.226L71.554 146.16L63.252 151.024L67.212 153.379C67.212 153.379 71.952 150.501 75.417 148.391L80.162 151.131L85.035 148.339C88.508 150.453 93.326 153.379 93.326 153.379L97.286 151.024L88.911 146.118L94.556 142.883C97.968 144.96 102.316 147.599 102.316 147.599L106.276 145.244L98.443 140.655L103.534 137.738C106.948 139.816 111.306 142.462 111.306 142.462L115.266 140.108L107.421 135.512L112.513 132.594C115.929 134.673 120.297 137.325 120.297 137.325L124.257 134.97L116.4 130.367L122.035 127.138C125.355 129.158 129.287 131.546 129.287 131.546L133.247 129.191L125.932 124.905L131.344 121.804C134.726 123.862 138.92 126.408 138.92 126.408L142.88 124.053L135.235 119.574L140.323 116.659C143.707 118.718 147.911 121.271 147.911 121.271L151.871 118.916L144.214 114.43L149.302 111.515C152.688 113.576 156.902 116.134 156.902 116.134L160.862 113.779L153.192 109.286L157.868 106.604Z" fill="url(#paint33_linear_133_446)"/>
<path d="M126.283 101.029L87.446 79.896C86.012 79.08 84.249 79.1021 82.836 79.9531L39.37 105.174C38.853 105.485 38.612 106.023 38.632 106.552C38.652 107.05 38.903 107.539 39.396 107.823L41.01 108.752L77.724 129.895C79.323 130.816 81.291 130.819 82.893 129.903L125.858 105.327L126.288 105.081C127.087 104.624 127.473 103.813 127.457 103.009C127.441 102.235 127.053 101.467 126.283 101.029Z" fill="url(#paint34_linear_133_446)"/>
<path d="M135.226 0L135.212 0.00601196C135.231 0.941012 33.1934 4.25501 31.9654 4.19601C31.9604 4.19601 31.9404 5.319 31.9404 5.319L31.9614 107.96L31.9744 107.668C31.9744 107.66 31.9774 107.569 31.9784 107.561C31.9574 108.182 32.2374 108.751 32.8524 109.105L77.4034 134.73C79.2624 135.8 81.5494 135.788 83.4114 134.723L133.852 105.864C134.788 105.328 135.235 104.371 135.208 103.428L135.236 103.408L135.226 0Z" fill="url(#paint35_linear_133_446)"/>
<path d="M114.63 50.3859C113.622 50.9619 112.716 49.4059 113.722 48.8319C117.136 46.8829 120.55 44.9349 123.964 42.9859C124.972 42.4099 125.878 43.9659 124.872 44.5399C121.458 46.4879 118.044 48.4369 114.63 50.3859ZM107.718 54.4069C109.247 53.5339 110.777 52.6609 112.306 51.7879C113.312 51.2139 112.406 49.6589 111.398 50.2339C109.869 51.1069 108.339 51.9799 106.81 52.8529C105.804 53.4279 106.709 54.9829 107.718 54.4069ZM102.655 57.1689C103.53 56.6699 104.405 56.1699 105.28 55.6709C106.286 55.0969 105.38 53.5419 104.372 54.1169C103.497 54.6159 102.622 55.1159 101.747 55.6149C100.741 56.1899 101.647 57.7449 102.655 57.1689ZM89.9322 64.4839C92.3012 63.1319 94.6702 61.7789 97.0392 60.4269C98.0452 59.8529 97.1392 58.2979 96.1312 58.8729C93.7622 60.2249 91.3932 61.5779 89.0242 62.9299C88.0182 63.5039 88.9242 65.0589 89.9322 64.4839ZM109.853 108.979C110.728 108.48 111.603 107.98 112.478 107.481C113.484 106.907 112.578 105.352 111.57 105.927C110.695 106.426 109.82 106.926 108.945 107.425C107.939 107.999 108.844 109.555 109.853 108.979ZM97.1302 116.293C99.4992 114.941 101.868 113.588 104.237 112.236C105.243 111.662 104.337 110.107 103.329 110.682C100.96 112.034 98.5912 113.387 96.2222 114.739C95.2162 115.314 96.1222 116.869 97.1302 116.293ZM119.654 53.7409C121.393 52.7479 123.133 51.7549 124.872 50.7629C125.878 50.1889 124.972 48.6339 123.964 49.2089C122.225 50.2019 120.485 51.1949 118.746 52.1869C117.74 52.7609 118.646 54.3169 119.654 53.7409ZM110.708 58.8719C112.98 57.5939 115.252 56.3149 117.524 55.0369C118.533 54.4689 117.627 52.9139 116.616 53.4829C114.344 54.7619 112.072 56.0399 109.8 57.3179C108.791 57.8859 109.697 59.4409 110.708 58.8719ZM109.615 59.4719C109.976 59.2659 110.337 59.0599 110.698 58.8539C111.12 58.6129 111.264 58.0389 111.021 57.6229C110.773 57.1989 110.214 57.0579 109.79 57.2999C109.429 57.5059 109.068 57.7119 108.707 57.9179C108.285 58.1589 108.141 58.7329 108.384 59.1489C108.632 59.5729 109.192 59.7129 109.615 59.4719ZM105.149 62.0209C105.52 61.8089 105.891 61.5969 106.262 61.3859C106.684 61.1449 106.828 60.5709 106.585 60.1549C106.337 59.7309 105.778 59.5909 105.354 59.8319C104.983 60.0439 104.612 60.2559 104.241 60.4669C103.819 60.7079 103.675 61.2819 103.918 61.6979C104.166 62.1219 104.726 62.2629 105.149 62.0209ZM95.6262 67.4569C97.8962 66.1619 100.165 64.8659 102.434 63.5709C103.44 62.9969 102.534 61.4419 101.526 62.0169C99.2562 63.3119 96.9872 64.6079 94.7182 65.9029C93.7122 66.4769 94.6182 68.0319 95.6262 67.4569ZM89.9322 70.7069C91.8302 69.6239 93.7282 68.5399 95.6262 67.4569C96.6322 66.8829 95.7262 65.3279 94.7182 65.9029C92.8202 66.9859 90.9222 68.0699 89.0242 69.1529C88.0182 69.7269 88.9242 71.2819 89.9322 70.7069ZM120.697 57.8699C122.089 57.0759 123.48 56.2809 124.872 55.4869C125.878 54.9129 124.972 53.3579 123.964 53.9329C122.572 54.7269 121.18 55.5219 119.789 56.3159C118.783 56.8899 119.688 58.4449 120.697 57.8699ZM119.363 58.6309C119.808 58.3769 120.252 58.1229 120.696 57.8699C121.118 57.6289 121.262 57.0549 121.019 56.6389C120.771 56.2149 120.213 56.0749 119.789 56.3159C119.345 56.5699 118.899 56.8229 118.455 57.0769C118.033 57.3179 117.889 57.8919 118.132 58.3079C118.38 58.7319 118.94 58.8729 119.363 58.6309ZM116.561 60.2299C116.892 60.0409 117.223 59.8519 117.554 59.6629C117.976 59.4219 118.12 58.8479 117.877 58.4319C117.629 58.0079 117.069 57.8669 116.646 58.1089C116.315 58.2979 115.984 58.4869 115.653 58.6759C115.231 58.9169 115.087 59.4909 115.33 59.9069C115.578 60.3319 116.138 60.4719 116.561 60.2299ZM113.613 61.9129C114.596 61.3519 115.578 60.7909 116.561 60.2299C117.567 59.6559 116.661 58.1009 115.653 58.6759C114.67 59.2369 113.688 59.7979 112.705 60.3589C111.7 60.9329 112.605 62.4889 113.613 61.9129ZM89.9322 75.4309C91.4262 74.5779 92.9202 73.7249 94.4152 72.8719C95.4212 72.2979 94.5152 70.7429 93.5072 71.3179C92.0132 72.1709 90.5182 73.0239 89.0242 73.8769C88.0182 74.4509 88.9242 76.0059 89.9322 75.4309ZM113.92 67.0609C117.571 64.9769 121.221 62.8929 124.872 60.8099C125.878 60.2359 124.972 58.6809 123.964 59.2559C120.313 61.3399 116.663 63.4239 113.012 65.5069C112.006 66.0819 112.912 67.6369 113.92 67.0609ZM103.832 72.8199C105.872 71.6549 107.913 70.4909 109.954 69.3259C110.96 68.7519 110.054 67.1969 109.046 67.7719C107.006 68.9369 104.965 70.1019 102.924 71.2659C101.919 71.8399 102.824 73.3949 103.832 72.8199ZM89.9322 80.7539C92.0512 79.5439 94.1702 78.3349 96.2882 77.1259C97.2942 76.5519 96.3882 74.9969 95.3802 75.5719C93.2612 76.7819 91.1422 77.9909 89.0242 79.1999C88.0182 79.7739 88.9242 81.3289 89.9322 80.7539ZM114.63 72.1289C118.044 70.1799 121.458 68.2319 124.872 66.2829C125.878 65.7089 124.972 64.1539 123.964 64.7289C120.55 66.6779 117.136 68.6259 113.722 70.5749C112.716 71.1489 113.622 72.7049 114.63 72.1289ZM107.718 76.1509C109.247 75.2779 110.777 74.4049 112.306 73.5319C113.312 72.9579 112.406 71.4029 111.398 71.9779C109.869 72.8509 108.339 73.7239 106.81 74.5969C105.804 75.1709 106.709 76.7259 107.718 76.1509ZM102.655 78.9129C103.53 78.4129 104.405 77.9139 105.28 77.4149C106.286 76.8409 105.38 75.2859 104.372 75.8609C103.497 76.3609 102.622 76.8599 101.747 77.3589C100.741 77.9329 101.647 79.4879 102.655 78.9129ZM89.9322 86.2269C92.3012 84.8749 94.6702 83.5219 97.0392 82.1699C98.0452 81.5959 97.1392 80.0409 96.1312 80.6159C93.7622 81.9679 91.3932 83.3209 89.0242 84.6729C88.0182 85.2479 88.9242 86.8029 89.9322 86.2269ZM119.654 75.4849C121.393 74.4919 123.133 73.4989 124.872 72.5069C125.878 71.9329 124.972 70.3779 123.964 70.9529C122.225 71.9459 120.485 72.9389 118.746 73.9319C117.74 74.5049 118.646 76.0599 119.654 75.4849ZM110.708 80.6149C112.98 79.3359 115.252 78.0579 117.524 76.7799C118.533 76.2119 117.627 74.6569 116.616 75.2259C114.344 76.5039 112.072 77.7829 109.8 79.0609C108.791 79.6299 109.697 81.1849 110.708 80.6149ZM109.615 81.2149C109.976 81.0089 110.337 80.8029 110.698 80.5969C111.12 80.3559 111.264 79.7819 111.021 79.3659C110.773 78.9419 110.214 78.8009 109.79 79.0429C109.429 79.2489 109.068 79.4549 108.707 79.6609C108.285 79.9019 108.141 80.4759 108.384 80.8919C108.632 81.3159 109.192 81.4569 109.615 81.2149ZM105.149 83.7639C105.52 83.5519 105.891 83.3399 106.262 83.1289C106.684 82.8879 106.828 82.3139 106.585 81.8979C106.337 81.4739 105.778 81.3339 105.354 81.5749C104.983 81.7869 104.612 81.9989 104.241 82.2099C103.819 82.4509 103.675 83.0249 103.918 83.4409C104.166 83.8659 104.726 84.0059 105.149 83.7639ZM95.6262 89.1999C97.8962 87.9039 100.165 86.6089 102.434 85.3139C103.44 84.7399 102.534 83.1849 101.526 83.7599C99.2562 85.0549 96.9872 86.3509 94.7182 87.6459C93.7122 88.2209 94.6182 89.7759 95.6262 89.1999ZM89.9322 92.4499C91.8302 91.3669 93.7282 90.2829 95.6262 89.1999C96.6322 88.6259 95.7262 87.0709 94.7182 87.6459C92.8202 88.7289 90.9222 89.8129 89.0242 90.8959C88.0182 91.4709 88.9242 93.0259 89.9322 92.4499ZM120.697 79.6129C122.089 78.8189 123.48 78.0239 124.872 77.2299C125.878 76.6559 124.972 75.1009 123.964 75.6759C122.572 76.4699 121.18 77.2649 119.789 78.0589C118.783 78.6339 119.688 80.1889 120.697 79.6129ZM119.363 80.3739C119.808 80.1199 120.252 79.8669 120.696 79.6129C121.118 79.3719 121.262 78.7979 121.019 78.3819C120.771 77.9579 120.213 77.8179 119.789 78.0589C119.345 78.3129 118.899 78.5659 118.455 78.8199C118.033 79.0609 117.889 79.6349 118.132 80.0509C118.38 80.4759 118.94 80.6159 119.363 80.3739ZM116.561 81.9739C116.892 81.7849 117.223 81.5959 117.554 81.4069C117.976 81.1659 118.12 80.5919 117.877 80.1759C117.629 79.7519 117.069 79.6119 116.646 79.8529C116.315 80.0419 115.984 80.2309 115.653 80.4199C115.231 80.6609 115.087 81.2349 115.33 81.6509C115.578 82.0749 116.138 82.2159 116.561 81.9739ZM113.613 83.6569C114.596 83.0959 115.578 82.5349 116.561 81.9739C117.567 81.3999 116.661 79.8449 115.653 80.4199C114.67 80.9809 113.688 81.5419 112.705 82.1029C111.7 82.6769 112.605 84.2319 113.613 83.6569ZM89.9322 97.1739C91.4262 96.3209 92.9202 95.4679 94.4152 94.6149C95.4212 94.0409 94.5152 92.4859 93.5072 93.0609C92.0132 93.9139 90.5182 94.7669 89.0242 95.6199C88.0182 96.1939 88.9242 97.7499 89.9322 97.1739ZM113.92 88.8049C117.571 86.7209 121.221 84.6369 124.872 82.5539C125.878 81.9799 124.972 80.4249 123.964 80.9999C120.313 83.0839 116.663 85.1679 113.012 87.2519C112.006 87.8249 112.912 89.3809 113.92 88.8049ZM103.832 94.5629C105.872 93.3979 107.913 92.2329 109.954 91.0689C110.96 90.4949 110.054 88.9399 109.046 89.5149C107.006 90.6799 104.965 91.8449 102.924 93.0089C101.919 93.5829 102.824 95.1389 103.832 94.5629ZM89.9322 102.497C92.0512 101.288 94.1702 100.078 96.2882 98.8689C97.2942 98.2949 96.3882 96.7399 95.3802 97.3149C93.2612 98.5239 91.1422 99.7339 89.0242 100.943C88.0182 101.518 88.9242 103.073 89.9322 102.497Z" fill="url(#paint36_linear_133_446)"/>
<path d="M50.8404 50.3861C47.4264 48.4371 44.0124 46.4891 40.5984 44.5401C39.5924 43.9661 40.4984 42.4111 41.5064 42.9861C44.9204 44.9351 48.3344 46.8831 51.7484 48.8321C52.7534 49.4061 51.8484 50.9611 50.8404 50.3861ZM57.7524 54.4071C58.7604 54.9831 59.6664 53.4271 58.6604 52.8531C57.1314 51.9801 55.6014 51.1071 54.0724 50.2341C53.0644 49.6581 52.1584 51.2141 53.1644 51.7881C54.6944 52.6611 56.2234 53.5341 57.7524 54.4071ZM62.8154 57.1691C63.8234 57.7451 64.7294 56.1891 63.7234 55.6151C62.8484 55.1161 61.9734 54.6161 61.0984 54.1171C60.0904 53.5411 59.1844 55.0971 60.1904 55.6711C61.0654 56.1701 61.9404 56.6701 62.8154 57.1691ZM75.5384 64.4841C76.5464 65.0601 77.4524 63.5041 76.4464 62.9301C74.0774 61.5781 71.7084 60.2251 69.3394 58.8731C68.3314 58.2971 67.4254 59.8531 68.4314 60.4271C70.7994 61.7791 73.1694 63.1311 75.5384 64.4841ZM55.6174 108.979C56.6254 109.555 57.5314 107.999 56.5254 107.425C55.6504 106.926 54.7754 106.426 53.9004 105.927C52.8924 105.351 51.9864 106.907 52.9924 107.481C53.8674 107.98 54.7424 108.48 55.6174 108.979ZM68.3404 116.293C69.3484 116.869 70.2544 115.313 69.2484 114.739C66.8794 113.387 64.5104 112.034 62.1414 110.682C61.1334 110.106 60.2274 111.662 61.2334 112.236C63.6024 113.589 65.9714 114.941 68.3404 116.293ZM45.8164 53.7411C46.8244 54.3171 47.7304 52.7611 46.7244 52.1871C44.9854 51.1941 43.2454 50.2011 41.5064 49.2091C40.4984 48.6331 39.5924 50.1891 40.5984 50.7631C42.3374 51.7561 44.0774 52.7481 45.8164 53.7411ZM54.7624 58.8721C55.7734 59.4411 56.6804 57.8861 55.6704 57.3181C53.3984 56.0391 51.1264 54.7611 48.8544 53.4831C47.8424 52.9141 46.9364 54.4691 47.9464 55.0371C50.2184 56.3151 52.4904 57.5931 54.7624 58.8721ZM55.8554 59.4721C56.2794 59.7141 56.8384 59.5731 57.0864 59.1491C57.3294 58.7331 57.1854 58.1591 56.7634 57.9181C56.4024 57.7121 56.0414 57.5061 55.6804 57.3001C55.2564 57.0581 54.6974 57.1991 54.4494 57.6231C54.2064 58.0391 54.3504 58.6131 54.7724 58.8541C55.1334 59.0601 55.4944 59.2661 55.8554 59.4721ZM60.3214 62.0211C60.7454 62.2631 61.3044 62.1221 61.5524 61.6981C61.7954 61.2821 61.6514 60.7081 61.2294 60.4671C60.8584 60.2551 60.4874 60.0431 60.1164 59.8321C59.6924 59.5901 59.1334 59.7311 58.8854 60.1551C58.6424 60.5711 58.7864 61.1451 59.2084 61.3861C59.5784 61.5971 59.9504 61.8091 60.3214 62.0211ZM69.8444 67.4571C70.8524 68.0331 71.7584 66.4771 70.7524 65.9031C68.4834 64.6081 66.2134 63.3121 63.9444 62.0171C62.9364 61.4411 62.0304 62.9971 63.0364 63.5711C65.3054 64.8661 67.5744 66.1611 69.8444 67.4571ZM75.5384 70.7071C76.5464 71.2831 77.4524 69.7271 76.4464 69.1531C74.5484 68.0701 72.6504 66.9861 70.7524 65.9031C69.7444 65.3271 68.8384 66.8831 69.8444 67.4571C71.7424 68.5401 73.6404 69.6241 75.5384 70.7071ZM44.7734 57.8701C45.7814 58.4461 46.6874 56.8901 45.6814 56.3161C44.2894 55.5221 42.8984 54.7271 41.5064 53.9331C40.4984 53.3571 39.5924 54.9131 40.5984 55.4871C41.9904 56.2811 43.3824 57.0751 44.7734 57.8701ZM46.1074 58.6311C46.5314 58.8731 47.0904 58.7321 47.3384 58.3081C47.5814 57.8921 47.4374 57.3181 47.0154 57.0771C46.5704 56.8231 46.1264 56.5691 45.6814 56.3161C45.2584 56.0741 44.6984 56.2151 44.4504 56.6391C44.2074 57.0551 44.3514 57.6291 44.7734 57.8701C45.2184 58.1231 45.6624 58.3771 46.1074 58.6311ZM48.9094 60.2301C49.3334 60.4721 49.8924 60.3311 50.1404 59.9071C50.3834 59.4911 50.2394 58.9171 49.8174 58.6761C49.4864 58.4871 49.1554 58.2981 48.8244 58.1091C48.4004 57.8671 47.8414 58.0081 47.5934 58.4321C47.3504 58.8481 47.4944 59.4221 47.9164 59.6631C48.2474 59.8521 48.5784 60.0411 48.9094 60.2301ZM51.8574 61.9131C52.8654 62.4891 53.7714 60.9331 52.7654 60.3591C51.7824 59.7981 50.8004 59.2371 49.8174 58.6761C48.8094 58.1001 47.9034 59.6561 48.9094 60.2301C49.8914 60.7911 50.8744 61.3521 51.8574 61.9131ZM75.5384 75.4311C76.5464 76.0071 77.4524 74.4511 76.4464 73.8771C74.9524 73.0241 73.4574 72.1711 71.9634 71.3181C70.9554 70.7421 70.0494 72.2981 71.0554 72.8721C72.5494 73.7251 74.0434 74.5781 75.5384 75.4311ZM51.5504 67.0611C52.5584 67.6371 53.4644 66.0811 52.4584 65.5071C48.8074 63.4231 45.1574 61.3391 41.5064 59.2561C40.4984 58.6801 39.5924 60.2361 40.5984 60.8101C44.2494 62.8941 47.8994 64.9781 51.5504 67.0611ZM61.6384 72.8201C62.6464 73.3961 63.5524 71.8401 62.5464 71.2661C60.5054 70.1011 58.4654 68.9371 56.4244 67.7721C55.4164 67.1961 54.5104 68.7521 55.5164 69.3261C57.5564 70.4901 59.5974 71.6551 61.6384 72.8201ZM75.5384 80.7541C76.5464 81.3301 77.4524 79.7741 76.4464 79.2001C74.3274 77.9911 72.2084 76.7811 70.0904 75.5721C69.0824 74.9961 68.1764 76.5521 69.1824 77.1261C71.3004 78.3351 73.4194 79.5441 75.5384 80.7541ZM50.8404 72.1291C51.8484 72.7051 52.7544 71.1491 51.7484 70.5751C48.3344 68.6261 44.9204 66.6781 41.5064 64.7291C40.4984 64.1531 39.5924 65.7091 40.5984 66.2831C44.0124 68.2321 47.4264 70.1811 50.8404 72.1291ZM57.7524 76.1511C58.7604 76.7271 59.6664 75.1711 58.6604 74.5971C57.1314 73.7241 55.6014 72.8511 54.0724 71.9781C53.0644 71.4021 52.1584 72.9581 53.1644 73.5321C54.6944 74.4051 56.2234 75.2781 57.7524 76.1511ZM62.8154 78.9131C63.8234 79.4881 64.7294 77.9331 63.7234 77.3591C62.8484 76.8591 61.9734 76.3601 61.0984 75.8611C60.0904 75.2851 59.1844 76.8411 60.1904 77.4151C61.0654 77.9141 61.9404 78.4141 62.8154 78.9131ZM75.5384 86.2271C76.5464 86.8031 77.4524 85.2471 76.4464 84.6731C74.0774 83.3211 71.7084 81.9681 69.3394 80.6161C68.3314 80.0401 67.4254 81.5961 68.4314 82.1701C70.7994 83.5231 73.1694 84.8751 75.5384 86.2271ZM45.8164 75.4851C46.8244 76.0611 47.7304 74.5051 46.7244 73.9311C44.9854 72.9381 43.2454 71.9451 41.5064 70.9521C40.4984 70.3761 39.5924 71.9321 40.5984 72.5061C42.3374 73.4991 44.0774 74.4921 45.8164 75.4851ZM54.7624 80.6151C55.7734 81.1841 56.6804 79.6291 55.6704 79.0611C53.3984 77.7831 51.1264 76.5041 48.8544 75.2261C47.8424 74.6571 46.9364 76.2121 47.9464 76.7801C50.2184 78.0591 52.4904 79.3371 54.7624 80.6151ZM55.8554 81.2151C56.2794 81.4571 56.8384 81.3161 57.0864 80.8921C57.3294 80.4761 57.1854 79.9021 56.7634 79.6611C56.4024 79.4551 56.0414 79.2491 55.6804 79.0431C55.2564 78.8011 54.6974 78.9421 54.4494 79.3661C54.2064 79.7821 54.3504 80.3561 54.7724 80.5971C55.1334 80.8031 55.4944 81.0091 55.8554 81.2151ZM60.3214 83.7641C60.7454 84.0061 61.3044 83.8651 61.5524 83.4411C61.7954 83.0251 61.6514 82.4511 61.2294 82.2101C60.8584 81.9981 60.4874 81.7861 60.1164 81.5751C59.6924 81.3331 59.1334 81.4741 58.8854 81.8981C58.6424 82.3141 58.7864 82.8881 59.2084 83.1291C59.5784 83.3411 59.9504 83.5531 60.3214 83.7641ZM69.8444 89.2001C70.8524 89.7761 71.7584 88.2201 70.7524 87.6461C68.4834 86.3501 66.2134 85.0551 63.9444 83.7601C62.9364 83.1841 62.0304 84.7401 63.0364 85.3141C65.3054 86.6091 67.5744 87.9051 69.8444 89.2001ZM75.5384 92.4501C76.5464 93.0261 77.4524 91.4701 76.4464 90.8961C74.5484 89.8131 72.6504 88.7291 70.7524 87.6461C69.7444 87.0701 68.8384 88.6261 69.8444 89.2001C71.7424 90.2841 73.6404 91.3671 75.5384 92.4501ZM44.7734 79.6131C45.7814 80.1891 46.6874 78.6331 45.6814 78.0591C44.2894 77.2651 42.8984 76.4701 41.5064 75.6761C40.4984 75.1001 39.5924 76.6561 40.5984 77.2301C41.9904 78.0241 43.3824 78.8191 44.7734 79.6131ZM46.1074 80.3741C46.5314 80.6161 47.0904 80.4751 47.3384 80.0511C47.5814 79.6351 47.4374 79.0611 47.0154 78.8201C46.5704 78.5661 46.1264 78.3131 45.6814 78.0591C45.2584 77.8171 44.6984 77.9581 44.4504 78.3821C44.2074 78.7981 44.3514 79.3721 44.7734 79.6131C45.2184 79.8671 45.6624 80.1211 46.1074 80.3741ZM48.9094 81.9741C49.3334 82.2161 49.8924 82.0751 50.1404 81.6511C50.3834 81.2351 50.2394 80.6611 49.8174 80.4201C49.4864 80.2311 49.1554 80.0421 48.8244 79.8531C48.4004 79.6111 47.8414 79.7521 47.5934 80.1761C47.3504 80.5921 47.4944 81.1661 47.9164 81.4071C48.2474 81.5961 48.5784 81.7851 48.9094 81.9741ZM51.8574 83.6571C52.8654 84.2331 53.7714 82.6771 52.7654 82.1031C51.7824 81.5421 50.8004 80.9811 49.8174 80.4201C48.8094 79.8441 47.9034 81.4001 48.9094 81.9741C49.8914 82.5351 50.8744 83.0961 51.8574 83.6571ZM75.5384 97.1741C76.5464 97.7501 77.4524 96.1941 76.4464 95.6201C74.9524 94.7671 73.4574 93.9141 71.9634 93.0611C70.9554 92.4851 70.0494 94.0411 71.0554 94.6151C72.5494 95.4681 74.0434 96.3211 75.5384 97.1741ZM51.5504 88.8051C52.5584 89.3811 53.4644 87.8251 52.4584 87.2511C48.8074 85.1671 45.1574 83.0831 41.5064 80.9991C40.4984 80.4231 39.5924 81.9791 40.5984 82.5531C44.2494 84.6371 47.8994 86.7211 51.5504 88.8051ZM61.6384 94.5631C62.6464 95.1391 63.5524 93.5831 62.5464 93.0091C60.5054 91.8441 58.4654 90.6791 56.4244 89.5151C55.4164 88.9391 54.5104 90.4951 55.5164 91.0691C57.5564 92.2341 59.5974 93.3981 61.6384 94.5631ZM75.5384 102.497C76.5464 103.073 77.4524 101.517 76.4464 100.943C74.3274 99.7341 72.2084 98.5241 70.0904 97.3151C69.0824 96.7391 68.1764 98.2951 69.1824 98.8691C71.3004 100.079 73.4194 101.288 75.5384 102.497Z" fill="url(#paint37_linear_133_446)"/>
<defs>
<linearGradient id="paint0_linear_133_446" x1="0.00252969" y1="103.768" x2="13.1134" y2="103.768" gradientUnits="userSpaceOnUse">
<stop stop-color="#6B84FA"/>
<stop offset="0.9935" stop-color="#5358DD"/>
</linearGradient>
<linearGradient id="paint1_linear_133_446" x1="8.99306" y1="98.6308" x2="22.104" y2="98.6308" gradientUnits="userSpaceOnUse">
<stop stop-color="#6B84FA"/>
<stop offset="0.9935" stop-color="#5358DD"/>
</linearGradient>
<linearGradient id="paint2_linear_133_446" x1="18.6254" y1="93.4933" x2="31.7363" y2="93.4933" gradientUnits="userSpaceOnUse">
<stop stop-color="#6B84FA"/>
<stop offset="0.9935" stop-color="#5358DD"/>
</linearGradient>
<linearGradient id="paint3_linear_133_446" x1="28.2577" y1="87.7139" x2="41.3686" y2="87.7139" gradientUnits="userSpaceOnUse">
<stop stop-color="#6B84FA"/>
<stop offset="0.9935" stop-color="#5358DD"/>
</linearGradient>
<linearGradient id="paint4_linear_133_446" x1="37.2482" y1="82.5766" x2="50.3591" y2="82.5766" gradientUnits="userSpaceOnUse">
<stop stop-color="#6B84FA"/>
<stop offset="0.9935" stop-color="#5358DD"/>
</linearGradient>
<linearGradient id="paint5_linear_133_446" x1="45.5961" y1="77.4393" x2="58.707" y2="77.4393" gradientUnits="userSpaceOnUse">
<stop stop-color="#6B84FA"/>
<stop offset="0.9935" stop-color="#5358DD"/>
</linearGradient>
<linearGradient id="paint6_linear_133_446" x1="55.8712" y1="72.3021" x2="68.9821" y2="72.3021" gradientUnits="userSpaceOnUse">
<stop stop-color="#6B84FA"/>
<stop offset="0.9935" stop-color="#5358DD"/>
</linearGradient>
<linearGradient id="paint7_linear_133_446" x1="64.2189" y1="67.1646" x2="77.3299" y2="67.1646" gradientUnits="userSpaceOnUse">
<stop stop-color="#6B84FA"/>
<stop offset="0.9935" stop-color="#5358DD"/>
</linearGradient>
<linearGradient id="paint8_linear_133_446" x1="84.9288" y1="67.0041" x2="97.927" y2="67.0041" gradientUnits="userSpaceOnUse">
<stop stop-color="#6B84FA"/>
<stop offset="0.9935" stop-color="#5358DD"/>
</linearGradient>
<linearGradient id="paint9_linear_133_446" x1="93.9193" y1="72.1415" x2="106.918" y2="72.1415" gradientUnits="userSpaceOnUse">
<stop stop-color="#6B84FA"/>
<stop offset="0.9935" stop-color="#5358DD"/>
</linearGradient>
<linearGradient id="paint10_linear_133_446" x1="103.552" y1="77.2787" x2="116.55" y2="77.2787" gradientUnits="userSpaceOnUse">
<stop stop-color="#6B84FA"/>
<stop offset="0.9935" stop-color="#5358DD"/>
</linearGradient>
<linearGradient id="paint11_linear_133_446" x1="112.542" y1="82.416" x2="125.54" y2="82.416" gradientUnits="userSpaceOnUse">
<stop stop-color="#6B84FA"/>
<stop offset="0.9935" stop-color="#5358DD"/>
</linearGradient>
<linearGradient id="paint12_linear_133_446" x1="121.533" y1="87.5532" x2="134.531" y2="87.5532" gradientUnits="userSpaceOnUse">
<stop stop-color="#6B84FA"/>
<stop offset="0.9935" stop-color="#5358DD"/>
</linearGradient>
<linearGradient id="paint13_linear_133_446" x1="130.523" y1="92.6906" x2="143.522" y2="92.6906" gradientUnits="userSpaceOnUse">
<stop stop-color="#6B84FA"/>
<stop offset="0.9935" stop-color="#5358DD"/>
</linearGradient>
<linearGradient id="paint14_linear_133_446" x1="139.513" y1="97.8281" x2="152.511" y2="97.8281" gradientUnits="userSpaceOnUse">
<stop stop-color="#6B84FA"/>
<stop offset="0.9935" stop-color="#5358DD"/>
</linearGradient>
<linearGradient id="paint15_linear_133_446" x1="148.503" y1="103.607" x2="161.502" y2="103.607" gradientUnits="userSpaceOnUse">
<stop stop-color="#6B84FA"/>
<stop offset="0.9935" stop-color="#5358DD"/>
</linearGradient>
<linearGradient id="paint16_linear_133_446" x1="0.350009" y1="116.344" x2="21.8091" y2="116.344" gradientUnits="userSpaceOnUse">
<stop stop-color="#6B84FA"/>
<stop offset="0.9935" stop-color="#5358DD"/>
</linearGradient>
<linearGradient id="paint17_linear_133_446" x1="9.34062" y1="121.481" x2="30.7996" y2="121.481" gradientUnits="userSpaceOnUse">
<stop stop-color="#6B84FA"/>
<stop offset="0.9935" stop-color="#5358DD"/>
</linearGradient>
<linearGradient id="paint18_linear_133_446" x1="18.3312" y1="127.261" x2="39.7902" y2="127.261" gradientUnits="userSpaceOnUse">
<stop stop-color="#6B84FA"/>
<stop offset="0.9935" stop-color="#5358DD"/>
</linearGradient>
<linearGradient id="paint19_linear_133_446" x1="27.3217" y1="132.398" x2="48.7808" y2="132.398" gradientUnits="userSpaceOnUse">
<stop stop-color="#6B84FA"/>
<stop offset="0.9935" stop-color="#5358DD"/>
</linearGradient>
<linearGradient id="paint20_linear_133_446" x1="36.3112" y1="137.535" x2="57.7703" y2="137.535" gradientUnits="userSpaceOnUse">
<stop stop-color="#6B84FA"/>
<stop offset="0.9935" stop-color="#5358DD"/>
</linearGradient>
<linearGradient id="paint21_linear_133_446" x1="45.3019" y1="142.673" x2="66.7609" y2="142.673" gradientUnits="userSpaceOnUse">
<stop stop-color="#6B84FA"/>
<stop offset="0.9935" stop-color="#5358DD"/>
</linearGradient>
<linearGradient id="paint22_linear_133_446" x1="54.2924" y1="147.81" x2="75.7515" y2="147.81" gradientUnits="userSpaceOnUse">
<stop stop-color="#6B84FA"/>
<stop offset="0.9935" stop-color="#5358DD"/>
</linearGradient>
<linearGradient id="paint23_linear_133_446" x1="84.6888" y1="147.114" x2="106.295" y2="147.114" gradientUnits="userSpaceOnUse">
<stop stop-color="#6B84FA"/>
<stop offset="0.9935" stop-color="#5358DD"/>
</linearGradient>
<linearGradient id="paint24_linear_133_446" x1="93.6783" y1="141.977" x2="115.285" y2="141.977" gradientUnits="userSpaceOnUse">
<stop stop-color="#6B84FA"/>
<stop offset="0.9935" stop-color="#5358DD"/>
</linearGradient>
<linearGradient id="paint25_linear_133_446" x1="102.669" y1="136.84" x2="124.275" y2="136.84" gradientUnits="userSpaceOnUse">
<stop stop-color="#6B84FA"/>
<stop offset="0.9935" stop-color="#5358DD"/>
</linearGradient>
<linearGradient id="paint26_linear_133_446" x1="111.659" y1="131.06" x2="133.266" y2="131.06" gradientUnits="userSpaceOnUse">
<stop stop-color="#6B84FA"/>
<stop offset="0.9935" stop-color="#5358DD"/>
</linearGradient>
<linearGradient id="paint27_linear_133_446" x1="121.292" y1="125.923" x2="142.898" y2="125.923" gradientUnits="userSpaceOnUse">
<stop stop-color="#6B84FA"/>
<stop offset="0.9935" stop-color="#5358DD"/>
</linearGradient>
<linearGradient id="paint28_linear_133_446" x1="130.282" y1="120.785" x2="151.889" y2="120.785" gradientUnits="userSpaceOnUse">
<stop stop-color="#6B84FA"/>
<stop offset="0.9935" stop-color="#5358DD"/>
</linearGradient>
<linearGradient id="paint29_linear_133_446" x1="139.273" y1="115.648" x2="160.879" y2="115.648" gradientUnits="userSpaceOnUse">
<stop stop-color="#6B84FA"/>
<stop offset="0.9935" stop-color="#5358DD"/>
</linearGradient>
<linearGradient id="paint30_linear_133_446" x1="63.2829" y1="152.813" x2="97.2375" y2="152.813" gradientUnits="userSpaceOnUse">
<stop stop-color="#6B84FA"/>
<stop offset="0.9935" stop-color="#5358DD"/>
</linearGradient>
<linearGradient id="paint31_linear_133_446" x1="4.20352" y1="110.631" x2="11.2406" y2="110.631" gradientUnits="userSpaceOnUse">
<stop stop-color="#6B84FA"/>
<stop offset="0.9935" stop-color="#5358DD"/>
</linearGradient>
<linearGradient id="paint32_linear_133_446" x1="150.724" y1="110.297" x2="157.841" y2="110.297" gradientUnits="userSpaceOnUse">
<stop stop-color="#6B84FA"/>
<stop offset="0.9935" stop-color="#5358DD"/>
</linearGradient>
<linearGradient id="paint33_linear_133_446" x1="0.0026" y1="106.711" x2="161.507" y2="106.711" gradientUnits="userSpaceOnUse">
<stop stop-color="#6BC7FA"/>
<stop offset="0.9927" stop-color="#5381DD"/>
</linearGradient>
<linearGradient id="paint34_linear_133_446" x1="38.6317" y1="104.944" x2="127.457" y2="104.944" gradientUnits="userSpaceOnUse">
<stop stop-color="#D84789"/>
<stop offset="1" stop-color="#954ACA"/>
</linearGradient>
<linearGradient id="paint35_linear_133_446" x1="83.589" y1="22.0443" x2="83.589" y2="157.572" gradientUnits="userSpaceOnUse">
<stop stop-color="#D84789" stop-opacity="0"/>
<stop offset="1" stop-color="#954ACA"/>
</linearGradient>
<linearGradient id="paint36_linear_133_446" x1="106.948" y1="42.8601" x2="106.948" y2="116.419" gradientUnits="userSpaceOnUse">
<stop stop-color="#6BC7FA" stop-opacity="0"/>
<stop offset="0.998" stop-color="#53D0DD"/>
</linearGradient>
<linearGradient id="paint37_linear_133_446" x1="58.5224" y1="42.8603" x2="58.5224" y2="116.419" gradientUnits="userSpaceOnUse">
<stop stop-color="#6BC7FA" stop-opacity="0"/>
<stop offset="0.998" stop-color="#53D0DD"/>
</linearGradient>
</defs>
</svg>
