<svg width="125" height="160" viewBox="0 0 125 160" fill="none" xmlns="http://www.w3.org/2000/svg">
<path opacity="0.53" d="M120.86 119.004C120.692 119.004 120.536 119.034 120.386 119.073L107.195 111.34C106.938 111.19 106.652 111.114 106.366 111.114C106.067 111.114 105.768 111.196 105.503 111.36L101.18 114.036L91.442 108.737C91.616 108.502 91.726 108.221 91.73 107.923L91.884 96.7462C91.889 96.2252 91.611 95.7452 91.156 95.4942L83.013 90.9862C83.062 90.8822 83.105 90.7752 83.105 90.6592C83.105 90.0952 82.47 89.6392 81.688 89.6392C80.905 89.6392 80.271 90.0962 80.271 90.6592C80.271 91.2232 80.905 91.6792 81.688 91.6792C81.994 91.6792 82.262 91.5942 82.494 91.4752L90.827 96.0882C91.063 96.2182 91.207 96.4672 91.203 96.7362L91.049 107.913C91.047 108.102 90.952 108.266 90.822 108.399L68.094 96.0312C66.589 95.1742 64.738 95.1972 63.254 96.0912L36.449 111.644L33.47 109.645C33.269 109.527 33.591 109.309 33.591 109.076V94.1952C33.591 94.0122 33.54 93.7662 33.54 93.4932C33.54 92.9302 32.682 92.4732 31.899 92.4732C31.116 92.4732 30.37 92.9302 30.37 93.4932C30.37 94.0572 30.737 94.5142 31.52 94.5142C31.64 94.5142 31.592 94.4852 31.592 94.4652V109.076C31.592 109.55 32.058 109.993 32.469 110.233L35.667 112.037L31.343 114.576L27.811 112.225C27.511 112.026 27.174 111.912 26.814 111.893L14.569 111.264C14.535 111.263 14.504 111.261 14.47 111.261C14.073 111.261 13.679 111.38 13.349 111.601L5.84601 116.603L2.647 114.264C2.756 114.119 2.83401 113.962 2.83401 113.786C2.83401 113.222 2.20002 112.766 1.41702 112.766C0.634023 112.766 0 113.223 0 113.786C0 114.35 0.634023 114.806 1.41702 114.806C1.65402 114.806 1.868 114.754 2.064 114.68L5.83002 117.432L13.728 112.167C13.965 112.008 14.25 111.925 14.54 111.944L26.791 112.573C27.03 112.585 27.261 112.661 27.461 112.793L30.738 114.958L17.615 122.573C17.072 122.9 16.819 123.464 16.84 124.02C16.841 124.042 16.849 124.064 16.85 124.086C16.89 124.585 17.147 125.069 17.641 125.354L19.335 126.33L37.015 136.512C35.282 137.641 33.145 139.055 31.208 140.344C30.97 140.502 30.667 140.51 30.418 140.368L17.895 133.212C17.928 133.126 17.969 133.042 17.969 132.949C17.969 132.385 17.334 131.929 16.552 131.929C15.769 131.929 15.135 132.386 15.135 132.949C15.135 133.513 15.769 133.969 16.552 133.969C16.89 133.969 17.188 133.872 17.432 133.729L30.082 140.957C30.557 141.228 31.133 141.209 31.586 140.909C34.04 139.277 36.124 137.904 37.679 136.892L39.756 138.088L36.762 139.874C36.344 140.123 36.081 140.58 36.075 141.065L35.921 152.242C35.916 152.763 36.194 153.243 36.649 153.494L44.792 158.002C44.743 158.106 44.7 158.213 44.7 158.329C44.7 158.893 45.334 159.349 46.117 159.349C46.9 159.349 47.534 158.892 47.534 158.329C47.534 157.765 46.899 157.309 46.117 157.309C45.811 157.309 45.543 157.394 45.311 157.513L36.978 152.9C36.742 152.77 36.598 152.521 36.602 152.252L36.756 141.075C36.759 140.824 36.895 140.588 37.111 140.459L40.432 138.478L57.886 148.53C59.565 149.497 61.631 149.5 63.313 148.538L89.663 133.466L101.82 140.498C101.906 140.548 101.915 140.63 101.915 140.663C101.915 140.696 101.906 140.778 101.821 140.828L84.233 151.256C84.016 151.159 83.775 151.088 83.501 151.088C82.718 151.088 82.084 151.545 82.084 152.108C82.084 152.671 82.719 153.128 83.501 153.128C84.284 153.128 84.918 152.671 84.918 152.108C84.918 151.966 84.877 151.831 84.803 151.707L102.167 141.412C102.436 141.253 102.596 140.971 102.594 140.658C102.592 140.345 102.43 140.065 102.159 139.908L90.344 133.074L108.424 122.733L108.875 122.475C109.714 121.995 110.119 121.144 110.102 120.3C110.086 119.487 109.678 118.681 108.87 118.221L101.866 114.41L105.859 111.938C106.162 111.75 106.542 111.746 106.85 111.926L119.706 119.462C119.552 119.625 119.441 119.811 119.441 120.023C119.441 120.587 120.076 121.043 120.858 121.043C121.641 121.043 122.275 120.586 122.275 120.023C122.277 119.46 121.643 119.004 120.86 119.004Z" fill="url(#paint0_linear_142_1005)"/>
<path d="M115.172 34.5239L115.158 34.5299C115.176 35.4569 13.9315 38.7459 12.7135 38.6879C12.7085 38.6879 12.6885 39.8019 12.6885 39.8019L12.7095 44.2299L12.7225 43.9409C12.7225 43.9329 12.7255 43.8429 12.7265 43.8349C12.7055 44.4509 12.9835 98.1209 13.5945 98.4729L57.7995 123.899C59.6435 124.961 61.9135 124.949 63.7615 123.892L113.81 95.2569C114.739 94.7259 115.182 40.6699 115.155 39.7349L115.182 92.8209L115.172 34.5239Z" fill="url(#paint1_linear_142_1005)"/>
<path d="M113.804 32.2451L69.0114 7.87116C67.3574 6.93016 65.3244 6.95513 63.6944 7.93713L13.5624 37.0251C12.9664 37.3841 12.6874 38.0041 12.7114 38.6141C12.7344 39.1881 13.0244 39.7531 13.5924 40.0801L15.4534 41.1521L57.7974 65.5381C59.6414 66.6001 61.9114 66.6031 63.7594 65.5471L113.313 37.2032L113.808 36.9192C114.729 36.3922 115.175 35.4572 115.156 34.5302C115.14 33.6362 114.693 32.7512 113.804 32.2451Z" fill="url(#paint2_linear_142_1005)"/>
<path d="M95.9393 62.0471C99.0363 60.2791 102.133 58.5111 105.23 56.7441C106.263 56.1541 105.333 54.5571 104.297 55.1481C101.2 56.9161 98.1033 58.6841 95.0063 60.4511C93.9743 61.0411 94.9033 62.6381 95.9393 62.0471Z" fill="#76E8E2"/>
<path d="M92.8972 61.7243C91.5092 62.5163 90.1223 63.3083 88.7353 64.1003C87.7023 64.6903 88.6322 66.2873 89.6682 65.6963C91.0552 64.9043 92.4433 64.1123 93.8303 63.3203C94.8633 62.7303 93.9332 61.1333 92.8972 61.7243Z" fill="#76E8E2"/>
<path d="M86.5235 65.2472C85.7295 65.7002 84.9355 66.1532 84.1425 66.6062C83.1095 67.1962 84.0395 68.7932 85.0755 68.2022C85.8695 67.7492 86.6635 67.2962 87.4565 66.8432C88.4895 66.2532 87.5595 64.6562 86.5235 65.2472Z" fill="#76E8E2"/>
<path d="M73.534 74.8372C75.683 73.6102 77.832 72.3832 79.982 71.1562C81.015 70.5662 80.085 68.9692 79.049 69.5602C76.9 70.7872 74.75 72.0142 72.601 73.2402C71.569 73.8312 72.498 75.4282 73.534 74.8372Z" fill="#76E8E2"/>
<path d="M104.297 60.7941C102.719 61.6951 101.141 62.5951 99.5634 63.4961C98.5304 64.0861 99.4604 65.6831 100.496 65.0921C102.074 64.1911 103.652 63.2911 105.23 62.3901C106.263 61.8001 105.333 60.2031 104.297 60.7941Z" fill="#76E8E2"/>
<path d="M97.6319 64.6712C95.5989 65.8152 93.5659 66.9592 91.5339 68.1032C91.5019 68.1172 91.4719 68.1162 91.4389 68.1342C91.1119 68.3212 90.7839 68.5082 90.4569 68.6952C89.4239 69.2842 90.3539 70.8822 91.3899 70.2912C91.6909 70.1192 91.9919 69.9472 92.2929 69.7762C92.3229 69.7632 92.3519 69.7642 92.3819 69.7472C94.4429 68.5872 96.5039 67.4272 98.5649 66.2682C99.6009 65.6832 98.6709 64.0862 97.6319 64.6712Z" fill="#76E8E2"/>
<path d="M87.4152 70.4303C87.0782 70.6223 86.7422 70.8143 86.4052 71.0073C85.3722 71.5963 86.3022 73.1943 87.3382 72.6033C87.6752 72.4113 88.0112 72.2193 88.3482 72.0273C89.3802 71.4373 88.4502 69.8393 87.4152 70.4303Z" fill="#76E8E2"/>
<path d="M72.6005 78.8873C71.5675 79.4773 72.4975 81.0743 73.5335 80.4833C75.2555 79.5003 76.9775 78.5173 78.6985 77.5343C80.7575 76.3593 82.8165 75.1843 84.8755 74.0083C85.9085 73.4183 84.9785 71.8213 83.9425 72.4123C81.8835 73.5873 79.8245 74.7623 77.7655 75.9383C76.0445 76.9213 74.3225 77.9043 72.6005 78.8873Z" fill="#76E8E2"/>
<path d="M104.298 65.0793C103.035 65.8003 101.773 66.5203 100.51 67.2413C100.107 67.4713 99.7037 67.7013 99.2997 67.9323C98.2667 68.5213 99.1967 70.1193 100.233 69.5283C100.636 69.2983 101.039 69.0683 101.443 68.8383C102.706 68.1173 103.968 67.3973 105.231 66.6763C106.264 66.0853 105.334 64.4883 104.298 65.0793Z" fill="#76E8E2"/>
<path d="M95.0163 72.5053C95.9073 71.9963 96.7992 71.4873 97.6902 70.9783C97.9902 70.8073 98.2912 70.6353 98.5912 70.4643C99.6242 69.8753 98.6943 68.2773 97.6583 68.8683C97.3583 69.0403 97.0573 69.2113 96.7573 69.3823C95.8653 69.8913 94.9742 70.4003 94.0832 70.9093C93.0512 71.4993 93.9813 73.0963 95.0163 72.5053Z" fill="#76E8E2"/>
<path d="M73.534 84.7683C74.89 83.9943 76.245 83.2202 77.601 82.4472C78.634 81.8572 77.704 80.2602 76.668 80.8512C75.312 81.6252 73.957 82.3993 72.601 83.1733C71.569 83.7623 72.498 85.3593 73.534 84.7683Z" fill="#76E8E2"/>
<path d="M104.297 69.9089C100.985 71.7989 97.6732 73.6898 94.3612 75.5798C93.3282 76.1688 94.2582 77.7668 95.2942 77.1748C98.6062 75.2848 101.918 73.3939 105.23 71.5039C106.263 70.9149 105.333 69.3179 104.297 69.9089Z" fill="#76E8E2"/>
<path d="M86.1432 82.3993C87.9942 81.3423 89.8452 80.2863 91.6962 79.2293C92.7292 78.6403 91.7992 77.0423 90.7632 77.6343C88.9122 78.6913 87.0612 79.7473 85.2102 80.8043C84.1782 81.3933 85.1082 82.9903 86.1432 82.3993Z" fill="#76E8E2"/>
<path d="M73.534 89.5971C75.456 88.5001 77.378 87.4031 79.301 86.3051C80.334 85.7151 79.404 84.1181 78.368 84.7091C76.446 85.8061 74.524 86.9032 72.601 88.0012C71.569 88.5912 72.498 90.1881 73.534 89.5971Z" fill="#76E8E2"/>
<path d="M104.298 74.8742C101.201 76.6422 98.1037 78.4102 95.0067 80.1772C93.9737 80.7672 94.9037 82.3642 95.9397 81.7732C99.0367 80.0052 102.134 78.2372 105.231 76.4702C106.264 75.8802 105.334 74.2832 104.298 74.8742Z" fill="#76E8E2"/>
<path d="M89.6682 85.4209C91.0552 84.6289 92.4433 83.8369 93.8303 83.0449C94.8633 82.4549 93.9332 80.8579 92.8972 81.4489C91.5092 82.2409 90.1223 83.0329 88.7353 83.8249C87.7023 84.4149 88.6322 86.0119 89.6682 85.4209Z" fill="#76E8E2"/>
<path d="M86.5235 84.9723C85.7295 85.4253 84.9355 85.8783 84.1425 86.3313C83.1095 86.9203 84.0395 88.5183 85.0755 87.9263C85.8695 87.4733 86.6635 87.0203 87.4565 86.5673C88.4895 85.9783 87.5595 84.3813 86.5235 84.9723Z" fill="#76E8E2"/>
<path d="M73.534 94.5632C75.683 93.3362 77.832 92.1092 79.982 90.8832C81.015 90.2942 80.085 88.6962 79.049 89.2872C76.9 90.5142 74.75 91.7412 72.601 92.9672C71.569 93.5572 72.498 95.1542 73.534 94.5632Z" fill="#76E8E2"/>
<path d="M104.297 80.5202C102.719 81.4212 101.141 82.3212 99.5634 83.2222C98.5304 83.8122 99.4604 85.4092 100.496 84.8182C102.074 83.9172 103.652 83.0172 105.23 82.1162C106.263 81.5262 105.333 79.9292 104.297 80.5202Z" fill="#76E8E2"/>
<path d="M98.5649 85.9923C99.6009 85.4093 98.6709 83.8123 97.6319 84.3973C95.5989 85.5413 93.5659 86.6852 91.5339 87.8292C91.5019 87.8432 91.4719 87.8422 91.4389 87.8602C91.1119 88.0472 90.7839 88.2342 90.4569 88.4212C89.4239 89.0102 90.3539 90.6082 91.3899 90.0162C91.6909 89.8442 91.9919 89.6723 92.2929 89.5013C92.3229 89.4883 92.3519 89.4892 92.3819 89.4722C94.4429 88.3122 96.5039 87.1523 98.5649 85.9923Z" fill="#76E8E2"/>
<path d="M87.3382 92.3279C87.6752 92.1359 88.0112 91.9439 88.3482 91.7519C89.3812 91.1619 88.4512 89.5649 87.4152 90.1559C87.0782 90.3479 86.7422 90.5399 86.4052 90.7329C85.3722 91.3219 86.3022 92.9189 87.3382 92.3279Z" fill="#76E8E2"/>
<path d="M84.8755 93.7343C85.9085 93.1443 84.9785 91.5473 83.9425 92.1383C81.8835 93.3133 79.8245 94.4883 77.7655 95.6643C76.0435 96.6473 74.3215 97.6303 72.6005 98.6123C71.5675 99.2013 72.4975 100.799 73.5335 100.208C75.2555 99.2253 76.9775 98.2423 78.6985 97.2593C80.7575 96.0853 82.8165 94.9093 84.8755 93.7343Z" fill="#76E8E2"/>
<path d="M104.298 84.8053C103.035 85.5263 101.773 86.2463 100.51 86.9673C100.107 87.1973 99.7037 87.4273 99.2997 87.6573C98.2667 88.2463 99.1967 89.8443 100.233 89.2533C100.636 89.0233 101.039 88.7933 101.443 88.5623C102.706 87.8413 103.968 87.1213 105.231 86.4003C106.264 85.8113 105.334 84.2143 104.298 84.8053Z" fill="#76E8E2"/>
<path d="M95.0163 92.2313C95.9073 91.7223 96.7992 91.2133 97.6902 90.7043C97.9902 90.5333 98.2912 90.3613 98.5912 90.1903C99.6242 89.6013 98.6943 88.0033 97.6583 88.5943C97.3583 88.7653 97.0573 88.9373 96.7573 89.1083C95.8653 89.6173 94.9742 90.1263 94.0832 90.6343C93.0512 91.2243 93.9813 92.8223 95.0163 92.2313Z" fill="#76E8E2"/>
<path d="M76.6675 100.577C75.3115 101.351 73.9565 102.124 72.6005 102.898C71.5675 103.487 72.4975 105.085 73.5335 104.494C74.8895 103.72 76.2445 102.946 77.6005 102.173C78.6325 101.583 77.7025 99.9863 76.6675 100.577Z" fill="#76E8E2"/>
<path d="M104.297 89.6339C100.985 91.5239 97.6732 93.4149 94.3612 95.3049C93.3282 95.8949 94.2582 97.4919 95.2942 96.9009C98.6062 95.0099 101.918 93.1199 105.23 91.2299C106.263 90.6399 105.333 89.0429 104.297 89.6339Z" fill="#76E8E2"/>
<path d="M90.7648 97.359C88.9138 98.416 87.0628 99.4721 85.2118 100.529C84.1788 101.118 85.1088 102.716 86.1448 102.124C87.9958 101.067 89.8468 100.011 91.6978 98.954C92.7298 98.365 91.7998 96.768 90.7648 97.359Z" fill="#76E8E2"/>
<path d="M78.3675 104.436C76.4455 105.533 74.5235 106.63 72.6005 107.728C71.5675 108.317 72.4975 109.915 73.5335 109.324C75.4555 108.227 77.3775 107.129 79.3005 106.032C80.3325 105.442 79.4025 103.845 78.3675 104.436Z" fill="#76E8E2"/>
<path d="M20.1505 56.7443C23.2475 58.5123 26.3445 60.2803 29.4415 62.0473C30.4755 62.6373 31.4075 61.0423 30.3745 60.4513C27.2775 58.6833 24.1805 56.9153 21.0835 55.1483C20.0485 54.5583 19.1165 56.1543 20.1505 56.7443Z" fill="#76E8E2"/>
<path d="M31.5509 63.3199C32.9379 64.1119 34.3259 64.9039 35.7129 65.6959C36.7479 66.2869 37.6799 64.691 36.6459 64.1C35.2589 63.308 33.8709 62.516 32.4839 61.724C31.4489 61.134 30.5169 62.7299 31.5509 63.3199Z" fill="#76E8E2"/>
<path d="M41.2383 66.6059C40.4443 66.1529 39.6513 65.6999 38.8573 65.2469C37.8233 64.6569 36.8913 66.2529 37.9243 66.8429C38.7183 67.2959 39.5123 67.7489 40.3053 68.2019C41.3403 68.7919 42.2723 67.1959 41.2383 66.6059Z" fill="#76E8E2"/>
<path d="M52.7803 73.2412C50.6313 72.0142 48.4814 70.7873 46.3324 69.5613C45.2984 68.9703 44.3654 70.5662 45.3994 71.1572C47.5484 72.3842 49.6974 73.6112 51.8474 74.8382C52.8814 75.4282 53.8133 73.8322 52.7803 73.2412Z" fill="#76E8E2"/>
<path d="M20.1506 62.3901C21.7286 63.2911 23.3065 64.1911 24.8835 65.0921C25.9175 65.6831 26.8506 64.0872 25.8166 63.4962C24.2386 62.5952 22.6605 61.6952 21.0825 60.7942C20.0485 60.2032 19.1166 61.7991 20.1506 62.3901Z" fill="#76E8E2"/>
<path d="M33.0885 69.7749C33.3895 69.9469 33.6905 70.1179 33.9915 70.2899C35.0255 70.8799 35.9585 69.2849 34.9245 68.6939C34.5975 68.5069 34.2695 68.3199 33.9425 68.1329C33.9105 68.1149 33.8805 68.1159 33.8485 68.1019C31.8155 66.9579 29.7835 65.8139 27.7505 64.6699C26.7125 64.0859 25.7805 65.6819 26.8175 66.2659C28.8785 67.4259 30.9395 68.5859 33.0005 69.7449C33.0295 69.7629 33.0585 69.7609 33.0885 69.7749Z" fill="#76E8E2"/>
<path d="M38.9757 71.007C38.6387 70.815 38.3027 70.623 37.9657 70.43C36.9317 69.84 35.9997 71.436 37.0327 72.026C37.3697 72.218 37.7057 72.41 38.0427 72.602C39.0777 73.193 40.0087 71.597 38.9757 71.007Z" fill="#76E8E2"/>
<path d="M52.7804 78.887C51.0584 77.904 49.3364 76.921 47.6154 75.939C45.5564 74.764 43.4974 73.589 41.4384 72.413C40.4044 71.823 39.4724 73.418 40.5054 74.009C42.5644 75.184 44.6234 76.359 46.6824 77.535C48.4044 78.518 50.1264 79.501 51.8474 80.484C52.8814 81.073 53.8134 79.477 52.7804 78.887Z" fill="#76E8E2"/>
<path d="M20.1505 66.675C21.4125 67.396 22.6755 68.1161 23.9385 68.8371C24.3415 69.0671 24.7455 69.297 25.1485 69.527C26.1825 70.118 27.1145 68.522 26.0815 67.931C25.6785 67.701 25.2745 67.471 24.8715 67.24C23.6085 66.519 22.3465 65.7991 21.0835 65.0781C20.0485 64.4891 19.1165 66.085 20.1505 66.675Z" fill="#76E8E2"/>
<path d="M26.7882 70.464C27.0882 70.635 27.3892 70.807 27.6892 70.978C28.5802 71.487 29.4722 71.996 30.3632 72.505C31.3972 73.096 32.3302 71.5 31.2962 70.909C30.4042 70.4 29.5132 69.891 28.6222 69.382C28.3222 69.211 28.0212 69.039 27.7212 68.868C26.6862 68.278 25.7542 69.874 26.7882 70.464Z" fill="#76E8E2"/>
<path d="M52.7808 83.1719C51.4248 82.3979 50.0698 81.6239 48.7138 80.8499C47.6798 80.2599 46.7478 81.8559 47.7808 82.4459C49.1368 83.2199 50.4918 83.9929 51.8478 84.7669C52.8818 85.3579 53.8138 83.7619 52.7808 83.1719Z" fill="#76E8E2"/>
<path d="M20.1505 71.5039C23.4625 73.3949 26.7745 75.2849 30.0855 77.1749C31.1195 77.7659 32.0515 76.1699 31.0185 75.5799C27.7065 73.6889 24.3945 71.7989 21.0835 69.9089C20.0485 69.3179 19.1165 70.9139 20.1505 71.5039Z" fill="#76E8E2"/>
<path d="M40.1691 80.804C38.3181 79.747 36.4671 78.691 34.6151 77.634C33.5811 77.043 32.6491 78.639 33.6821 79.229C35.5331 80.286 37.3841 81.342 39.2351 82.399C40.2711 82.99 41.2031 81.394 40.1691 80.804Z" fill="#76E8E2"/>
<path d="M52.7805 88.0023C50.8585 86.9053 48.9365 85.8083 47.0135 84.7103C45.9795 84.1203 45.0476 85.7163 46.0806 86.3063C48.0026 87.4033 49.9246 88.5003 51.8476 89.5983C52.8816 90.1883 53.8135 88.5923 52.7805 88.0023Z" fill="#76E8E2"/>
<path d="M20.1505 76.4702C23.2475 78.2382 26.3445 80.0062 29.4415 81.7732C30.4755 82.3632 31.4075 80.7672 30.3745 80.1772C27.2775 78.4092 24.1805 76.6412 21.0835 74.8742C20.0485 74.2832 19.1165 75.8792 20.1505 76.4702Z" fill="#76E8E2"/>
<path d="M31.5509 83.0459C32.9379 83.8379 34.3259 84.6299 35.7129 85.4219C36.7479 86.0119 37.6799 84.4169 36.6459 83.8259C35.2589 83.0339 33.8709 82.2419 32.4839 81.4499C31.4489 80.8589 30.5169 82.4549 31.5509 83.0459Z" fill="#76E8E2"/>
<path d="M41.2383 86.332C40.4443 85.879 39.6513 85.426 38.8573 84.973C37.8233 84.383 36.8913 85.978 37.9243 86.568C38.7183 87.021 39.5123 87.474 40.3053 87.927C41.3403 88.518 42.2723 86.922 41.2383 86.332Z" fill="#76E8E2"/>
<path d="M52.7803 92.967C50.6313 91.74 48.4814 90.513 46.3324 89.287C45.2984 88.697 44.3654 90.292 45.3994 90.883C47.5484 92.11 49.6974 93.337 51.8474 94.563C52.8814 95.153 53.8133 93.557 52.7803 92.967Z" fill="#76E8E2"/>
<path d="M20.1506 82.1149C21.7286 83.0159 23.3065 83.9159 24.8835 84.8169C25.9175 85.4069 26.8506 83.8119 25.8166 83.2209C24.2386 82.3199 22.6605 81.4199 21.0825 80.5189C20.0485 79.9289 19.1166 81.5249 20.1506 82.1149Z" fill="#76E8E2"/>
<path d="M33.9915 90.0159C35.0255 90.6069 35.9585 89.0109 34.9245 88.4209C34.5975 88.2339 34.2695 88.0469 33.9425 87.8599C33.9105 87.8419 33.8805 87.8429 33.8485 87.8289C31.8155 86.6849 29.7835 85.5409 27.7505 84.3969C26.7125 83.8129 25.7805 85.4089 26.8175 85.9919C28.8785 87.1519 30.9395 88.3119 33.0005 89.4709C33.0305 89.4879 33.0595 89.4859 33.0895 89.4999C33.3895 89.6719 33.6905 89.8439 33.9915 90.0159Z" fill="#76E8E2"/>
<path d="M37.0324 91.7522C37.3694 91.9442 37.7054 92.1362 38.0424 92.3282C39.0764 92.9192 40.0084 91.3232 38.9754 90.7322C38.6384 90.5402 38.3024 90.3482 37.9654 90.1552C36.9304 89.5662 35.9984 91.1622 37.0324 91.7522Z" fill="#76E8E2"/>
<path d="M52.7804 98.613C51.0584 97.63 49.3364 96.647 47.6154 95.665C45.5564 94.49 43.4974 93.314 41.4384 92.139C40.4044 91.549 39.4724 93.145 40.5054 93.735C42.5644 94.91 44.6234 96.085 46.6824 97.261C48.4044 98.244 50.1264 99.227 51.8474 100.21C52.8814 100.799 53.8134 99.203 52.7804 98.613Z" fill="#76E8E2"/>
<path d="M20.1505 86.3999C21.4125 87.1209 22.6755 87.8409 23.9385 88.5619C24.3415 88.7919 24.7455 89.0219 25.1485 89.2529C26.1825 89.8429 27.1145 88.2469 26.0815 87.6569C25.6785 87.4269 25.2745 87.1969 24.8715 86.9669C23.6085 86.2459 22.3465 85.5259 21.0835 84.8049C20.0485 84.2139 19.1165 85.8099 20.1505 86.3999Z" fill="#76E8E2"/>
<path d="M31.2966 90.6351C30.4046 90.1261 29.5136 89.6171 28.6226 89.1091C28.3226 88.9371 28.0216 88.7661 27.7216 88.5951C26.6876 88.0051 25.7556 89.6001 26.7886 90.1911C27.0886 90.3621 27.3895 90.5341 27.6895 90.7051C28.5805 91.2141 29.4726 91.7231 30.3636 92.2321C31.3986 92.8211 32.3306 91.2251 31.2966 90.6351Z" fill="#76E8E2"/>
<path d="M52.7808 102.898C51.4248 102.124 50.0698 101.35 48.7138 100.577C47.6798 99.9859 46.7478 101.582 47.7808 102.173C49.1368 102.947 50.4918 103.721 51.8478 104.494C52.8818 105.084 53.8138 103.488 52.7808 102.898Z" fill="#76E8E2"/>
<path d="M31.0189 95.3052C27.7069 93.4152 24.3949 91.5242 21.0839 89.6342C20.0499 89.0442 19.1179 90.6391 20.1509 91.2301C23.4629 93.1201 26.7749 95.0112 30.0859 96.9012C31.1209 97.4922 32.0529 95.8962 31.0189 95.3052Z" fill="#76E8E2"/>
<path d="M40.1691 100.529C38.3181 99.4723 36.4671 98.4163 34.6151 97.3593C33.5811 96.7693 32.6491 98.3643 33.6821 98.9553C35.5331 100.012 37.3841 101.068 39.2351 102.125C40.2711 102.715 41.2031 101.119 40.1691 100.529Z" fill="#76E8E2"/>
<path d="M52.7805 107.727C50.8585 106.63 48.9365 105.533 47.0135 104.435C45.9795 103.845 45.0476 105.441 46.0806 106.031C48.0026 107.128 49.9246 108.225 51.8476 109.323C52.8816 109.913 53.8135 108.318 52.7805 107.727Z" fill="#76E8E2"/>
<path d="M32.4826 35.6422C35.5736 37.4212 38.6636 39.2003 41.7546 40.9793C42.7876 41.5733 43.7186 39.9772 42.6876 39.3832C39.5966 37.6042 36.5066 35.8252 33.4156 34.0462C32.3836 33.4522 31.4516 35.0492 32.4826 35.6422Z" fill="#76E8E2"/>
<path d="M44.8514 40.56C43.8184 39.966 42.8873 41.562 43.9183 42.156C45.3033 42.953 46.6874 43.75 48.0724 44.547C49.1044 45.141 50.0364 43.545 49.0054 42.951C47.6203 42.154 46.2364 41.357 44.8514 40.56Z" fill="#76E8E2"/>
<path d="M53.4881 45.6482C52.6961 45.1922 51.9041 44.7362 51.1121 44.2802C50.0791 43.6862 49.1481 45.2822 50.1791 45.8762C50.9711 46.3322 51.7631 46.7882 52.5551 47.2442C53.5881 47.8382 54.5201 46.2412 53.4881 45.6482Z" fill="#76E8E2"/>
<path d="M65.0471 52.2532C62.9021 51.0182 60.7571 49.7842 58.6121 48.5492C57.5791 47.9552 56.6481 49.5512 57.6791 50.1452C59.8241 51.3792 61.9691 52.6142 64.1131 53.8492C65.1471 54.4432 66.0791 52.8472 65.0471 52.2532Z" fill="#76E8E2"/>
<path d="M37.3543 32.7893C38.9293 33.6953 40.5033 34.6023 42.0783 35.5083C43.1103 36.1023 44.0423 34.5063 43.0113 33.9123C41.4363 33.0063 39.8623 32.0993 38.2873 31.1933C37.2543 30.5993 36.3223 32.1953 37.3543 32.7893Z" fill="#76E8E2"/>
<path d="M50.1861 40.175C50.5131 40.363 50.8391 40.551 51.1661 40.739C52.1981 41.333 53.1301 39.737 52.0991 39.143C51.7991 38.97 51.4981 38.797 51.1981 38.624C51.1711 38.605 51.1581 38.58 51.1281 38.562C49.0861 37.37 47.0431 36.177 45.0011 34.985C43.9721 34.384 43.0411 35.981 44.0681 36.581C46.0821 37.757 48.0971 38.933 50.1111 40.109C50.1401 40.13 50.1541 40.156 50.1861 40.175Z" fill="#76E8E2"/>
<path d="M56.1423 41.471C55.8063 41.278 55.4703 41.084 55.1343 40.891C54.1023 40.297 53.1704 41.893 54.2014 42.487C54.5374 42.68 54.8734 42.874 55.2094 43.067C56.2424 43.661 57.1743 42.064 56.1423 41.471Z" fill="#76E8E2"/>
<path d="M69.9194 49.4002C68.2014 48.4112 66.4824 47.4222 64.7644 46.4332C62.7094 45.2502 60.6554 44.0682 58.6004 42.8852C57.5674 42.2912 56.6364 43.8872 57.6674 44.4812C59.7224 45.6642 61.7764 46.8462 63.8314 48.0292C65.5494 49.0182 67.2684 50.0072 68.9864 50.9962C70.0184 51.5902 70.9504 49.9942 69.9194 49.4002Z" fill="#76E8E2"/>
<path d="M41.0526 30.6233C42.3126 31.3483 43.5726 32.0733 44.8326 32.7993C45.2346 33.0313 45.6376 33.2623 46.0396 33.4943C47.0726 34.0883 48.0036 32.4923 46.9726 31.8983C46.5706 31.6663 46.1676 31.4353 45.7656 31.2033C44.5056 30.4783 43.2456 29.7533 41.9856 29.0273C40.9526 28.4333 40.0206 30.0293 41.0526 30.6233Z" fill="#76E8E2"/>
<path d="M52.1771 34.8942C51.2871 34.3822 50.3981 33.8702 49.5081 33.3582C49.2081 33.1852 48.9091 33.0132 48.6091 32.8412C47.5761 32.2472 46.6452 33.8432 47.6762 34.4362C47.9762 34.6092 48.2762 34.7812 48.5752 34.9542C49.4642 35.4662 50.3542 35.9782 51.2442 36.4902C52.2772 37.0842 53.2091 35.4882 52.1771 34.8942Z" fill="#76E8E2"/>
<path d="M68.6254 46.4942C69.9784 47.2732 71.3314 48.0512 72.6844 48.8302C73.7164 49.4242 74.6484 47.8282 73.6174 47.2352C72.2644 46.4562 70.9114 45.6782 69.5584 44.8992C68.5254 44.3042 67.5944 45.9002 68.6254 46.4942Z" fill="#76E8E2"/>
<path d="M45.2196 28.1833C48.5246 30.0853 51.8296 31.9883 55.1346 33.8903C56.1676 34.4843 57.0986 32.8883 56.0676 32.2943C52.7626 30.3923 49.4576 28.4893 46.1526 26.5873C45.1196 25.9933 44.1876 27.5893 45.2196 28.1833Z" fill="#76E8E2"/>
<path d="M59.658 34.3603C58.625 33.7663 57.694 35.3623 58.725 35.9563C60.572 37.0193 62.42 38.0833 64.267 39.1463C65.3 39.7403 66.231 38.1443 65.2 37.5503C63.353 36.4873 61.505 35.4243 59.658 34.3603Z" fill="#76E8E2"/>
<path d="M71.0971 43.0769C73.0151 44.1809 74.9341 45.2849 76.8521 46.3889C77.8851 46.9829 78.816 45.3869 77.785 44.7929C75.867 43.6889 73.9481 42.5849 72.0301 41.4809C70.9971 40.8869 70.0661 42.4829 71.0971 43.0769Z" fill="#76E8E2"/>
<path d="M49.5047 25.6731C52.5957 27.4521 55.6857 29.231 58.7767 31.01C59.8097 31.604 60.7407 30.0081 59.7097 29.4141C56.6187 27.6351 53.5287 25.8561 50.4377 24.0771C49.4047 23.4831 48.4727 25.0791 49.5047 25.6731Z" fill="#76E8E2"/>
<path d="M66.0268 32.9822C64.6418 32.1852 63.2578 31.3882 61.8728 30.5912C60.8398 29.9972 59.9088 31.5932 60.9398 32.1872C62.3248 32.9842 63.7089 33.7812 65.0939 34.5782C66.1269 35.1712 67.0578 33.5752 66.0268 32.9822Z" fill="#76E8E2"/>
<path d="M67.2006 35.9059C67.9926 36.3619 68.7846 36.8178 69.5766 37.2738C70.6096 37.8678 71.5406 36.2718 70.5096 35.6788C69.7176 35.2228 68.9256 34.7668 68.1336 34.3108C67.1006 33.7158 66.1696 35.3119 67.2006 35.9059Z" fill="#76E8E2"/>
<path d="M82.0686 42.284C79.9236 41.05 77.7786 39.815 75.6336 38.58C74.6006 37.986 73.6696 39.582 74.7006 40.176C76.8456 41.41 78.9906 42.645 81.1356 43.88C82.1686 44.474 83.1006 42.878 82.0686 42.284Z" fill="#76E8E2"/>
<path d="M54.3754 22.82C55.9504 23.726 57.5244 24.633 59.0994 25.539C60.1314 26.133 61.0634 24.537 60.0324 23.943C58.4574 23.037 56.8834 22.13 55.3084 21.224C54.2754 20.63 53.3444 22.226 54.3754 22.82Z" fill="#76E8E2"/>
<path d="M67.2076 30.2063C67.5346 30.3943 67.8616 30.5822 68.1876 30.7702C69.2206 31.3642 70.1516 29.7682 69.1206 29.1742C68.8206 29.0012 68.5196 28.8283 68.2196 28.6553C68.1926 28.6363 68.1796 28.6102 68.1496 28.5932C66.1076 27.4012 64.0646 26.2082 62.0226 25.0162C60.9936 24.4152 60.0626 26.0123 61.0896 26.6123C63.1036 27.7883 65.1186 28.9642 67.1326 30.1402C67.1616 30.1602 67.1756 30.1873 67.2076 30.2063Z" fill="#76E8E2"/>
<path d="M73.1631 31.5013C72.8271 31.3083 72.491 31.1143 72.155 30.9213C71.122 30.3273 70.1911 31.9233 71.2221 32.5173C71.5581 32.7103 71.8941 32.9043 72.2301 33.0973C73.2631 33.6913 74.1951 32.0953 73.1631 31.5013Z" fill="#76E8E2"/>
<path d="M74.6889 34.5119C76.7439 35.6949 78.7979 36.8769 80.8529 38.0599C82.5709 39.0489 84.2889 40.0379 86.0079 41.0269C87.0399 41.6209 87.9718 40.0249 86.9408 39.4309C85.2228 38.4419 83.5038 37.4529 81.7858 36.4639C79.7308 35.2809 77.6768 34.0989 75.6218 32.9159C74.5888 32.3219 73.6579 33.9179 74.6889 34.5119Z" fill="#76E8E2"/>
<path d="M58.0731 20.654C59.3331 21.379 60.5931 22.104 61.8531 22.83C62.2551 23.062 62.6581 23.293 63.0601 23.525C64.0921 24.119 65.0241 22.523 63.9931 21.929C63.5911 21.697 63.1881 21.466 62.7861 21.234C61.5261 20.509 60.2661 19.784 59.0061 19.058C57.9731 18.464 57.0411 20.06 58.0731 20.654Z" fill="#76E8E2"/>
<path d="M65.5976 24.985C66.4876 25.497 67.3766 26.009 68.2666 26.521C69.2986 27.115 70.2306 25.519 69.1996 24.925C68.3096 24.413 67.4206 23.901 66.5306 23.389C66.2306 23.217 65.9316 23.044 65.6316 22.871C64.5986 22.277 63.6676 23.873 64.6986 24.467C64.9976 24.64 65.2976 24.812 65.5976 24.985Z" fill="#76E8E2"/>
<path d="M85.6469 36.5251C86.9999 37.3041 88.3529 38.0821 89.7049 38.8611C90.7379 39.4551 91.6689 37.8591 90.6379 37.2651C89.2849 36.4861 87.9319 35.7081 86.5789 34.9291C85.5469 34.3351 84.6159 35.9311 85.6469 36.5251Z" fill="#76E8E2"/>
<path d="M62.2401 18.2131C65.5451 20.1151 68.8501 22.0181 72.1551 23.9201C73.1881 24.5141 74.1191 22.9181 73.0881 22.3241C69.7831 20.4221 66.4781 18.5191 63.1731 16.6171C62.1401 16.0231 61.2081 17.6191 62.2401 18.2131Z" fill="#76E8E2"/>
<path d="M75.7453 25.987C77.5923 27.05 79.4403 28.114 81.2873 29.177C82.3203 29.771 83.2513 28.175 82.2203 27.581C80.3733 26.518 78.5253 25.454 76.6783 24.391C75.6463 23.797 74.7143 25.393 75.7453 25.987Z" fill="#76E8E2"/>
<path d="M88.1176 33.108C90.0356 34.212 91.9546 35.316 93.8726 36.42C94.9056 37.014 95.8366 35.418 94.8056 34.825C92.8876 33.721 90.9696 32.617 89.0506 31.513C88.0176 30.918 87.0866 32.514 88.1176 33.108Z" fill="#76E8E2"/>
<path opacity="0.14" d="M124.592 39.0885C124.592 39.1465 124.557 39.3855 124.555 39.7685L124.612 102.838L124.592 32.8325V32.8395C124.592 33.9535 124.044 35.0765 122.938 35.7085L122.326 36.0485L62.8097 70.0855C60.5917 71.3545 57.8617 71.3505 55.6467 70.0755L4.79474 40.7915L2.55875 39.5125C1.90575 39.1365 1.56573 37.8485 1.51373 37.8485C1.50973 37.8485 1.50273 37.8485 1.49973 37.8485C1.49373 37.8485 1.46973 39.1785 1.46973 39.1785L1.49475 44.4925L1.51074 44.1425C1.51074 44.1335 1.51475 44.0235 1.51575 44.0145C1.49075 44.7545 1.82474 109.204 2.55774 109.626L55.6417 140.159C57.8567 141.434 60.5817 141.42 62.8008 140.151L122.94 105.764C123.998 105.159 124.592 46.7765 124.592 39.7695V39.0885Z" fill="url(#paint3_linear_142_1005)"/>
<path opacity="0.14" d="M122.897 30.0964L69.1067 0.826367C67.1207 -0.303633 64.6797 -0.272616 62.7227 0.906384L2.52167 35.8374C1.80567 36.2684 1.47167 37.0134 1.49967 37.7454C1.50067 37.7744 1.51168 37.8034 1.51368 37.8324C1.56568 38.4914 1.90468 39.1294 2.55768 39.5054L4.79267 40.7924L55.6417 70.0764C57.8567 71.3514 60.5817 71.3554 62.8007 70.0864L122.309 36.0494L122.904 35.7094C124.01 35.0764 124.545 33.9534 124.523 32.8404C124.501 31.7664 123.963 30.7034 122.897 30.0964Z" fill="url(#paint4_linear_142_1005)"/>
<defs>
<linearGradient id="paint0_linear_142_1005" x1="0.0003" y1="124.495" x2="122.278" y2="124.495" gradientUnits="userSpaceOnUse">
<stop stop-color="#6BC7FA"/>
<stop offset="0.9927" stop-color="#5381DD"/>
</linearGradient>
<linearGradient id="paint1_linear_142_1005" x1="115.183" y1="79.6062" x2="-33.7724" y2="79.6062" gradientUnits="userSpaceOnUse">
<stop stop-color="#D84789"/>
<stop offset="1" stop-color="#954ACA"/>
</linearGradient>
<linearGradient id="paint2_linear_142_1005" x1="12.7119" y1="36.7598" x2="115.159" y2="36.7598" gradientUnits="userSpaceOnUse">
<stop stop-color="#D84789"/>
<stop offset="1" stop-color="#954ACA"/>
</linearGradient>
<linearGradient id="paint3_linear_142_1005" x1="124.612" y1="86.9707" x2="-54.351" y2="86.9707" gradientUnits="userSpaceOnUse">
<stop stop-color="#6BC7FA"/>
<stop offset="0.9927" stop-color="#5381DD"/>
</linearGradient>
<linearGradient id="paint4_linear_142_1005" x1="1.49777" y1="35.5176" x2="124.522" y2="35.5176" gradientUnits="userSpaceOnUse">
<stop stop-color="#6BC7FA"/>
<stop offset="0.9927" stop-color="#5381DD"/>
</linearGradient>
</defs>
</svg>
