<svg width="223" height="81" viewBox="0 0 223 81" fill="none" xmlns="http://www.w3.org/2000/svg">
<g clip-path="url(#clip0_46_578)">
<path d="M20.2402 20.2319H0V80.9998H20.2402V20.2319Z" fill="white"/>
<path d="M182.448 0H20.2402V20.2321H182.448V0Z" fill="white"/>
<path d="M223 20.2319H182.448V60.7677H223V20.2319Z" fill="white"/>
<path d="M50.4219 63.4847V54.4053H51.8523V63.4847H50.4219Z" fill="white"/>
<path d="M56.2156 57.0505V63.4847H54.7852V54.4053H56.001L61.0789 60.8395V54.4053H62.5093V63.4847H61.2935L56.2156 57.0505Z" fill="white"/>
<path d="M127.02 57.0505V63.4847H125.59V54.4053H126.806L131.884 60.8395V54.4053H133.314V63.4847H132.098L127.02 57.0505Z" fill="white"/>
<path d="M69.1601 55.7634V63.4845H67.7297V55.7634H64.7974V54.4766H72.2355V55.7634H69.1601Z" fill="white"/>
<path d="M80.6033 63.4847H74.3096V54.4053H80.6033V55.7636H75.74V58.3373H80.0312V59.6242H75.74V62.1979H80.6033V63.4847Z" fill="white"/>
<path d="M89.6863 63.4847H83.2495V54.4053H84.6799V62.1979H89.6148V63.4847H89.6863Z" fill="white"/>
<path d="M98.4832 63.4847H92.0464V54.4053H93.4768V62.1979H98.4117V63.4847H98.4832Z" fill="white"/>
<path d="M100.844 63.4847V54.4053H102.274V63.4847H100.844Z" fill="white"/>
<path d="M112.858 58.9807C112.858 60.8394 111.428 62.3408 109.568 62.3408C107.78 62.3408 106.279 60.8394 106.279 58.9807C106.279 57.1219 107.709 55.6205 109.568 55.6205C110.498 55.6205 111.285 55.978 111.929 56.6214L112.93 55.6205C112.072 54.7626 110.927 54.2622 109.568 54.2622C106.994 54.2622 104.848 56.407 104.848 58.9807C104.848 61.5543 106.994 63.6991 109.568 63.6991C112.143 63.6991 114.289 61.5543 114.289 58.9807C114.289 58.7662 114.289 58.5517 114.217 58.3372H112.787C112.787 58.5517 112.858 58.7662 112.858 58.9807Z" fill="white"/>
<path d="M140.394 62.269C138.606 62.269 137.104 60.7677 137.104 58.9089C137.104 57.0501 138.534 55.5488 140.394 55.5488C141.323 55.5488 142.11 55.9062 142.754 56.5496L143.755 55.5488C142.897 54.6909 141.753 54.1904 140.394 54.1904C137.819 54.1904 135.673 56.3352 135.673 58.9089C135.673 61.4826 137.819 63.6273 140.394 63.6273C141.681 63.6273 142.897 63.1269 143.755 62.269L142.754 61.2681C142.11 61.9115 141.252 62.269 140.394 62.269Z" fill="white"/>
<path d="M122.943 63.4842H116.578V54.4048H122.871V55.7631H118.008V58.3368H122.299V59.6237H118.008V62.1974H122.871V63.4842H122.943Z" fill="white"/>
<path d="M152.338 63.4842H146.044V54.4048H152.338V55.7631H147.474V58.3368H151.766V59.6237H147.474V62.1974H152.338V63.4842Z" fill="white"/>
<path d="M112.859 59.6958H109.283V58.3369H114.218" fill="white"/>
<path d="M82.9635 45.7543C81.1755 45.7543 79.6736 44.253 79.6736 42.3942C79.6736 40.5354 81.104 39.0341 82.9635 39.0341C83.8933 39.0341 84.68 39.3916 85.3237 40.035L86.3249 39.0341C85.4667 38.1762 84.3224 37.6758 82.9635 37.6758C80.3888 37.6758 78.2432 39.8205 78.2432 42.3942C78.2432 44.9679 80.3888 47.1127 82.9635 47.1127C84.2509 47.1127 85.4667 46.6122 86.3249 45.7543L85.3237 44.7534C84.7515 45.3254 83.8933 45.7543 82.9635 45.7543Z" fill="white"/>
<path d="M76.1688 46.8988H69.875V37.8193H76.1688V39.1062H71.3054V41.6799H75.5966V42.9667H71.3054V45.5404H76.1688V46.8988Z" fill="white"/>
<path d="M103.275 37.8193H99.1987V46.8988H100.629V43.6102H103.204C105.135 43.6102 106.351 42.3233 106.351 40.679C106.351 39.1062 105.206 37.8193 103.275 37.8193ZM103.275 42.3233H100.701V39.1777H103.275C104.348 39.1777 104.92 39.8926 104.92 40.7505C104.92 41.6084 104.348 42.3233 103.275 42.3233Z" fill="white"/>
<path d="M108.925 46.8988V37.8193H110.356V46.8988H108.925Z" fill="white"/>
<path d="M117.007 39.1775V46.8986H115.577V39.1775H112.645V37.8906H120.083V39.1775H117.007Z" fill="white"/>
<path d="M126.376 46.8988H124.946V43.8961L121.298 37.8193H122.943L125.733 42.3948L128.522 37.8193H130.167L126.448 43.8246V46.8988H126.376Z" fill="white"/>
<path d="M142.683 45.826L141.324 44.7537C141.61 44.1102 141.754 43.3238 141.754 42.4659H140.538C140.538 42.8234 140.466 43.3953 140.323 43.9672L137.033 41.3935C136.676 41.1076 136.533 40.6786 136.533 40.2497C136.533 39.4633 137.176 38.8199 137.963 38.8199C138.75 38.8199 139.393 39.4633 139.393 40.2497H140.609C140.609 38.8199 139.465 37.6045 137.963 37.6045C136.533 37.6045 135.317 38.7484 135.317 40.2497C135.317 40.7501 135.46 41.2506 135.746 41.6795C134.888 42.1085 134.315 42.9664 134.315 44.1102C134.315 45.826 135.817 47.1129 137.82 47.1129C139.036 47.1129 140.037 46.6124 140.752 45.826L141.968 46.8269L142.683 45.826ZM137.82 45.8975C136.461 45.8975 135.531 45.1826 135.531 44.1102C135.531 43.3238 136.032 42.7519 136.747 42.6089L139.822 45.0396C139.393 45.5401 138.75 45.8975 137.82 45.8975Z" fill="white"/>
<path d="M96.3379 43.2525V37.8906H94.9075V43.2525C94.9075 44.6108 93.8347 45.7547 92.4759 45.7547C91.117 45.7547 90.0442 44.6823 90.0442 43.2525V37.8906H88.6138V43.2525C88.6138 45.3972 90.3303 47.113 92.4759 47.113C94.6215 47.113 96.3379 45.3972 96.3379 43.2525Z" fill="white"/>
<path d="M106.637 46.8985L104.277 42.752H102.703L105.063 46.8985H106.637Z" fill="white"/>
<path d="M64.9405 41.894L63.0095 41.465C62.3658 41.3221 61.8652 40.9646 61.8652 40.3212C61.8652 39.4633 62.5804 38.8913 63.5816 38.8913C64.5114 38.8913 65.2267 39.3918 65.2982 40.1782H66.8716C66.8 38.6769 65.3696 37.6045 63.6532 37.6045C61.8652 37.6045 60.4347 38.6769 60.4347 40.2497C60.4347 41.5365 61.293 42.3229 62.7234 42.6804L64.583 43.1093C65.5128 43.3238 65.8703 43.8243 65.8703 44.3247C65.8703 45.1826 64.9406 45.7545 63.7248 45.7545C62.5805 45.7545 61.5792 45.1826 61.5792 44.3247H60.0771C60.0771 46.112 61.7937 47.0414 63.7248 47.0414C65.6558 47.0414 67.3722 46.0405 67.3722 44.2532C67.3007 42.8949 66.4424 42.2514 64.9405 41.894Z" fill="white"/>
</g>
<defs>
<clipPath id="clip0_46_578">
<rect width="223" height="81" fill="white"/>
</clipPath>
</defs>
</svg>
