<svg width="193" height="32" viewBox="0 0 193 32" fill="none" xmlns="http://www.w3.org/2000/svg">
<path d="M8 8H0V31.9993H8V8Z" fill="white"/>
<path d="M71.9998 0H8V8H71.9998V0Z" fill="white"/>
<path d="M88 8H72V24H88V8Z" fill="white"/>
<path d="M107.007 8.01953H104.016V24.0003H107.007V8.01953Z" fill="white"/>
<path d="M139.288 8.01953H136.297V18.6357C136.297 21.6286 138.724 24.0567 141.715 24.0567H149.447V21.0639H139.288V8.01953Z" fill="white"/>
<path d="M161.579 7.17188C156.726 7.17188 152.719 11.1247 152.719 16.0375C152.719 20.8938 156.669 24.9031 161.579 24.9031C166.433 24.9031 170.44 20.9503 170.44 16.0375C170.384 11.1247 166.433 7.17188 161.579 7.17188ZM161.579 21.8538C158.362 21.8538 155.71 19.1998 155.71 15.981C155.71 12.7623 158.362 10.1083 161.579 10.1083C164.796 10.1083 167.449 12.7623 167.449 15.981C167.392 19.2562 164.796 21.8538 161.579 21.8538Z" fill="white"/>
<path d="M183.142 7.17188C178.288 7.17188 174.281 11.1247 174.281 16.0375C174.281 20.8938 178.232 24.9031 183.142 24.9031C187.995 24.9031 192.003 20.9503 192.003 16.0375C192.003 11.1247 187.995 7.17188 183.142 7.17188ZM183.142 21.8538C179.925 21.8538 177.272 19.1998 177.272 15.981C177.272 12.7623 179.925 10.1083 183.142 10.1083C186.359 10.1083 189.011 12.7623 189.011 15.981C189.011 19.2562 186.359 21.8538 183.142 21.8538Z" fill="white"/>
<path d="M121.624 14.9644V17.5055H127.268C126.59 19.9902 124.333 21.8536 121.624 21.8536C118.407 21.8536 115.755 19.1996 115.755 15.9809C115.755 12.7621 118.407 10.1081 121.624 10.1081C123.204 10.1081 124.672 10.7292 125.744 11.8022L127.832 9.71281C126.139 8.01874 123.938 7.11523 121.568 7.11523C116.714 7.11523 112.707 11.0681 112.707 15.9809C112.707 20.8372 116.658 24.8465 121.568 24.8465C126.421 24.8465 130.428 20.8937 130.428 15.9809C130.428 15.6421 130.428 15.3032 130.372 14.9644H121.624Z" fill="white"/>
</svg>
