<svg width="261" height="261" viewBox="0 0 261 261" fill="none" xmlns="http://www.w3.org/2000/svg">
<rect width="261" height="261" rx="80" fill="#7187FF"/>
<rect width="19" height="19" transform="matrix(-1 0 0 1 121 83)" fill="white"/>
<rect width="19" height="19" transform="matrix(-1 0 0 1 121 45)" fill="white"/>
<rect width="19" height="19" transform="matrix(-1 0 0 1 159 83)" fill="white"/>
<rect width="19" height="19" transform="matrix(-1 0 0 1 140 83)" fill="white"/>
<rect width="19" height="19" transform="matrix(-1 0 0 1 159 45)" fill="white"/>
<rect width="19" height="19" transform="matrix(-1 0 0 1 102 102)" fill="white"/>
<rect width="19" height="19" transform="matrix(-1 0 0 1 64 102)" fill="white"/>
<rect width="19" height="19" transform="matrix(-1 0 0 1 102 140)" fill="white"/>
<rect width="19" height="19" transform="matrix(-1 0 0 1 102 121)" fill="white"/>
<rect width="19" height="19" transform="matrix(-1 0 0 1 64 140)" fill="white"/>
<rect width="19" height="19" transform="matrix(-1 0 0 1 121 159)" fill="white"/>
<rect width="19" height="19" transform="matrix(-1 0 0 1 121 197)" fill="white"/>
<rect width="19" height="19" transform="matrix(-1 0 0 1 140 159)" fill="white"/>
<rect width="19" height="19" transform="matrix(-1 0 0 1 178 102)" fill="white"/>
<rect width="19" height="19" transform="matrix(-1 0 0 1 216 102)" fill="white"/>
<rect width="19" height="19" transform="matrix(-1 0 0 1 178 140)" fill="white"/>
<rect width="19" height="19" transform="matrix(-1 0 0 1 178 121)" fill="white"/>
<rect width="19" height="19" transform="matrix(-1 0 0 1 159 159)" fill="white"/>
<rect width="19" height="19" transform="matrix(-1 0 0 1 216 140)" fill="white"/>
<rect width="19" height="19" transform="matrix(-1 0 0 1 159 197)" fill="white"/>
</svg>
