<svg width="261" height="261" viewBox="0 0 261 261" fill="none" xmlns="http://www.w3.org/2000/svg">
<rect width="261" height="261" rx="80" fill="#7187FF"/>
<path fill-rule="evenodd" clip-rule="evenodd" d="M103.998 85H85.9978V103H103.998V85ZM121.999 102.996H103.999V120.996H120.875V138.888H138.875V120.888H121.999V102.996ZM103.999 138.999H121.999V156.999H103.999V138.999ZM103.998 157.002H85.9978V175.002H103.998V157.002ZM139.999 138.999H157.999V156.999H139.999V138.999ZM175.999 157.002H157.999V175.002H175.999V157.002ZM157.999 103H175.999V85H157.999V102.996H139.999V120.996H157.999V103Z" fill="white"/>
<path d="M211.999 49H194V103.002H211.999V49Z" fill="white"/>
<path d="M194.001 49H158.001V67H194.001V49Z" fill="white"/>
<path d="M50 49.0078V67.0078H104V49.0078H50Z" fill="white"/>
<path d="M50 67.0028V103.004H68V67.0028H50Z" fill="white"/>
<path d="M211.999 211.004V193.004H157.999V211.004H211.999Z" fill="white"/>
<path d="M211.999 193.009V157.008H193.999V193.009H211.999Z" fill="white"/>
<path d="M50 211.004V193.004H104V211.004H50Z" fill="white"/>
<path d="M50 193.009V157.008H68V193.009H50Z" fill="white"/>
</svg>
