<svg width="414" height="414" viewBox="0 0 414 414" fill="none" xmlns="http://www.w3.org/2000/svg">
<rect x="368" y="92" width="46" height="46" transform="rotate(-180 368 92)" fill="#00C3A4"/>
<rect x="414" y="184" width="46" height="46" transform="rotate(-180 414 184)" fill="#00C3A4"/>
<rect x="46" y="184" width="46" height="46" transform="rotate(-180 46 184)" fill="#00C3A4"/>
<rect width="46" height="46" transform="matrix(1 0 0 -1 46 92)" fill="#00C3A4"/>
<rect x="276" y="414" width="138" height="46" transform="rotate(-180 276 414)" fill="#00C3A4"/>
<rect x="230" y="46" width="46" height="46" transform="rotate(-180 230 46)" fill="#00C3A4"/>
<rect x="138" y="184" width="46" height="46" transform="rotate(-180 138 184)" fill="#00C3A4"/>
<rect x="184" y="138" width="46" height="46" transform="rotate(-180 184 138)" fill="#00C3A4"/>
<rect x="230" y="276" width="46" height="46" transform="rotate(-180 230 276)" fill="#00C3A4"/>
<rect x="230" y="138" width="46" height="46" transform="rotate(-180 230 138)" fill="#00C3A4"/>
<rect x="276" y="138" width="46" height="46" transform="rotate(-180 276 138)" fill="#00C3A4"/>
<rect x="322" y="184" width="46" height="46" transform="rotate(-180 322 184)" fill="#00C3A4"/>
<rect x="322" y="230" width="46" height="46" transform="rotate(-180 322 230)" fill="#00C3A4"/>
<rect x="322" y="276" width="46" height="46" transform="rotate(-180 322 276)" fill="#00C3A4"/>
<rect x="184" y="322" width="46" height="46" transform="rotate(-180 184 322)" fill="#00C3A4"/>
<rect x="230" y="322" width="46" height="46" transform="rotate(-180 230 322)" fill="#00C3A4"/>
<rect x="276" y="322" width="46" height="46" transform="rotate(-180 276 322)" fill="#00C3A4"/>
<rect x="138" y="276" width="46" height="46" transform="rotate(-180 138 276)" fill="#00C3A4"/>
<rect x="138" y="230" width="46" height="46" transform="rotate(-180 138 230)" fill="#00C3A4"/>
</svg>
