<svg width="261" height="261" viewBox="0 0 261 261" fill="none" xmlns="http://www.w3.org/2000/svg">
<rect width="261" height="261" rx="80" fill="#7187FF"/>
<rect width="19" height="19" transform="matrix(-1 0 0 1 140 64)" fill="white"/>
<rect width="19" height="19" transform="matrix(-1 0 0 1 159 64)" fill="white"/>
<rect width="19" height="19" transform="matrix(-1 0 0 1 178 64)" fill="white"/>
<rect width="19" height="19" transform="matrix(-1 0 0 1 197 121)" fill="white"/>
<rect width="19" height="19" transform="matrix(-1 0 0 1 197 102)" fill="white"/>
<rect width="19" height="19" transform="matrix(-1 0 0 1 197 83)" fill="white"/>
<rect width="19" height="19" transform="matrix(-1 0 0 1 140 178)" fill="white"/>
<rect width="19" height="19" transform="matrix(-1 0 0 1 140 102)" fill="white"/>
<rect width="19" height="19" transform="matrix(-1 0 0 1 159 159)" fill="white"/>
<rect width="19" height="19" transform="matrix(-1 0 0 1 159 121)" fill="white"/>
<rect width="19" height="19" transform="matrix(-1 0 0 1 159 140)" fill="white"/>
<rect width="19" height="19" transform="matrix(-1 0 0 1 121 178)" fill="white"/>
<rect width="19" height="19" transform="matrix(-1 0 0 1 121 102)" fill="white"/>
<rect width="19" height="19" transform="matrix(-1 0 0 1 102 178)" fill="white"/>
<rect width="19" height="19" transform="matrix(-1 0 0 1 83 140)" fill="white"/>
<rect width="19" height="19" transform="matrix(-1 0 0 1 83 159)" fill="white"/>
<rect width="19" height="19" transform="matrix(-1 0 0 1 83 121)" fill="white"/>
<rect width="19" height="19" transform="matrix(-1 0 0 1 102 102)" fill="white"/>
</svg>
