<svg width="261" height="261" viewBox="0 0 261 261" fill="none" xmlns="http://www.w3.org/2000/svg">
<rect width="261" height="261" rx="80" fill="#7187FF"/>
<rect width="19" height="19" transform="matrix(-1 0 0 1 103 62)" fill="white"/>
<rect width="19" height="19" transform="matrix(-1 0 0 1 122 62)" fill="white"/>
<rect width="19" height="19" transform="matrix(-1 0 0 1 178 119)" fill="white"/>
<rect width="19" height="19" transform="matrix(-1 0 0 1 141 62)" fill="white"/>
<rect width="19" height="19" transform="matrix(-1 0 0 1 197 119)" fill="white"/>
<rect width="19" height="19" transform="matrix(-1 0 0 1 197 138)" fill="white"/>
<rect width="19" height="19" transform="matrix(-1 0 0 1 197 157)" fill="white"/>
<rect width="19" height="19" transform="matrix(-1 0 0 1 197 176)" fill="white"/>
<rect width="19" height="19" transform="matrix(-1 0 0 1 84 81)" fill="white"/>
<rect width="19" height="19" transform="matrix(-1 0 0 1 159 81)" fill="white"/>
<rect width="19" height="19" transform="matrix(-1 0 0 1 84 100)" fill="white"/>
<rect width="19" height="19" transform="matrix(-1 0 0 1 84 119)" fill="white"/>
<rect width="19" height="19" transform="matrix(-1 0 0 1 103 119)" fill="white"/>
<rect width="19" height="19" transform="matrix(-1 0 0 1 121 100)" fill="white"/>
<rect width="19" height="19" transform="matrix(-1 0 0 1 84 138)" fill="white"/>
<rect width="19" height="19" transform="matrix(-1 0 0 1 84 157)" fill="white"/>
<rect width="19" height="19" transform="matrix(-1 0 0 1 84 176)" fill="white"/>
<rect width="19" height="19" transform="matrix(-1 0 0 1 159 100)" fill="white"/>
<rect width="19" height="19" transform="matrix(-1 0 0 1 159 119)" fill="white"/>
<rect width="19" height="19" transform="matrix(-1 0 0 1 159 138)" fill="white"/>
<rect width="19" height="19" transform="matrix(-1 0 0 1 159 157)" fill="white"/>
<rect width="19" height="19" transform="matrix(-1 0 0 1 159 176)" fill="white"/>
</svg>
