<svg width="414" height="414" viewBox="0 0 414 414" fill="none" xmlns="http://www.w3.org/2000/svg">
<path d="M164.664 219V162.04H180.664V219H164.664ZM147.624 175.64V162.04H197.784V175.64H147.624ZM203.798 219V162.04H215.398L236.598 193.08H231.558L252.678 162.04H264.278V219H248.438V188.28L250.758 188.92L239.158 205.56H228.918L217.398 188.92L219.638 188.28V219H203.798Z" fill="#00C3A4"/>
<rect x="322" y="69" width="230" height="46" transform="rotate(-180 322 69)" fill="#00C3A4"/>
<rect x="138" y="345" width="46" height="46" transform="rotate(-180 138 345)" fill="#00C3A4"/>
<rect x="322" y="345" width="46" height="46" transform="rotate(-180 322 345)" fill="#00C3A4"/>
<rect x="368" y="115" width="46" height="46" transform="rotate(-180 368 115)" fill="#00C3A4"/>
<rect x="368" y="161" width="46" height="46" transform="rotate(-180 368 161)" fill="#00C3A4"/>
<rect x="368" y="207" width="46" height="46" transform="rotate(-180 368 207)" fill="#00C3A4"/>
<rect x="368" y="253" width="46" height="46" transform="rotate(-180 368 253)" fill="#00C3A4"/>
<rect x="368" y="299" width="46" height="46" transform="rotate(-180 368 299)" fill="#00C3A4"/>
<rect x="93" y="115" width="46" height="46" transform="rotate(-180 93 115)" fill="#00C3A4"/>
<rect x="93" y="161" width="46" height="46" transform="rotate(-180 93 161)" fill="#00C3A4"/>
<rect x="93" y="207" width="46" height="46" transform="rotate(-180 93 207)" fill="#00C3A4"/>
<rect x="93" y="253" width="46" height="46" transform="rotate(-180 93 253)" fill="#00C3A4"/>
<rect x="93" y="299" width="46" height="46" transform="rotate(-180 93 299)" fill="#00C3A4"/>
<rect x="276" y="391" width="138" height="46" transform="rotate(-180 276 391)" fill="#00C3A4"/>
</svg>
