<svg width="414" height="414" viewBox="0 0 414 414" fill="none" xmlns="http://www.w3.org/2000/svg">
<rect width="185" height="46" transform="matrix(5.1903e-09 1 1 -5.18942e-09 0 46)" fill="#00C3A4"/>
<rect width="230" height="46" transform="matrix(5.1902e-09 1 1 -5.18952e-09 138 184)" fill="#00C3A4"/>
<rect width="230" height="46" transform="matrix(8.22384e-08 -1 -1 -8.22275e-08 276 230)" fill="#00C3A4"/>
<rect width="184" height="46" transform="matrix(8.22384e-08 -1 -1 -8.22275e-08 414 368)" fill="#00C3A4"/>
<rect width="184" height="46" transform="matrix(-1 6.27594e-08 6.27677e-08 1 230 0)" fill="#00C3A4"/>
<rect width="46" height="45.9961" transform="matrix(-1 6.27594e-08 6.27677e-08 1 367.996 137.99)" fill="#00C3A4"/>
<rect width="46" height="45.9961" transform="matrix(1 2.46576e-08 2.46609e-08 -1 46.0039 275.979)" fill="#00C3A4"/>
<rect width="183.997" height="45.9961" transform="matrix(1 2.46576e-08 2.46609e-08 -1 184.004 413.969)" fill="#00C3A4"/>
</svg>
