<svg width="261" height="261" viewBox="0 0 261 261" fill="none" xmlns="http://www.w3.org/2000/svg">
<rect width="261" height="261" rx="80" fill="#7187FF"/>
<rect width="19" height="19" transform="matrix(-1 0 0 1 102 55)" fill="white"/>
<rect width="19" height="19" transform="matrix(-1 0 0 1 121 55)" fill="white"/>
<rect width="19" height="19" transform="matrix(-1 0 0 1 140 55)" fill="white"/>
<rect width="19" height="19" transform="matrix(-1 0 0 1 159 55)" fill="white"/>
<rect width="19" height="19" transform="matrix(-1 0 0 1 178 55)" fill="white"/>
<rect width="19" height="19" transform="matrix(-1 0 0 1 83 74)" fill="white"/>
<rect width="19" height="19" transform="matrix(-1 0 0 1 197 74)" fill="white"/>
<rect width="19" height="19" transform="matrix(-1 0 0 1 83 93)" fill="white"/>
<rect width="19" height="19" transform="matrix(-1 0 0 1 83 112)" fill="white"/>
<rect width="19" height="19" transform="matrix(-1 0 0 1 83 131)" fill="white"/>
<rect width="19" height="19" transform="matrix(-1 0 0 1 83 150)" fill="white"/>
<rect width="19" height="19" transform="matrix(-1 0 0 1 102 169)" fill="white"/>
<rect width="19" height="19" transform="matrix(-1 0 0 1 121 188)" fill="white"/>
<rect width="19" height="19" transform="matrix(-1 0 0 1 140 188)" fill="white"/>
<rect width="19" height="19" transform="matrix(-1 0 0 1 140 96)" fill="white"/>
<rect width="19" height="19" transform="matrix(-1 0 0 1 140 115)" fill="white"/>
<rect width="19" height="19" transform="matrix(-1 0 0 1 140 134)" fill="white"/>
<rect width="19" height="19" transform="matrix(-1 0 0 1 159 96)" fill="white"/>
<rect width="19" height="19" transform="matrix(-1 0 0 1 121 96)" fill="white"/>
<rect width="19" height="19" transform="matrix(-1 0 0 1 197 93)" fill="white"/>
<rect width="19" height="19" transform="matrix(-1 0 0 1 197 112)" fill="white"/>
<rect width="19" height="19" transform="matrix(-1 0 0 1 197 131)" fill="white"/>
<rect width="19" height="19" transform="matrix(-1 0 0 1 197 150)" fill="white"/>
<rect width="19" height="19" transform="matrix(-1 0 0 1 178 169)" fill="white"/>
<rect width="19" height="19" transform="matrix(-1 0 0 1 159 188)" fill="white"/>
</svg>
