<svg width="261" height="261" viewBox="0 0 261 261" fill="none" xmlns="http://www.w3.org/2000/svg">
<rect width="261" height="261" rx="80" fill="#7187FF"/>
<rect width="19" height="19" transform="matrix(-1 0 0 1 110 55)" fill="white"/>
<rect width="19" height="19" transform="matrix(-1 0 0 1 129 55)" fill="white"/>
<rect width="19" height="19" transform="matrix(-1 0 0 1 148 74)" fill="white"/>
<rect width="19" height="19" transform="matrix(-1 0 0 1 167 93)" fill="white"/>
<rect width="19" height="19" transform="matrix(-1 0 0 1 186 112)" fill="white"/>
<rect width="19" height="19" transform="matrix(-1 0 0 1 110 74)" fill="white"/>
<rect width="19" height="19" transform="matrix(-1 0 0 1 110 93)" fill="white"/>
<rect width="19" height="19" transform="matrix(-1 0 0 1 110 112)" fill="white"/>
<rect width="19" height="19" transform="matrix(-1 0 0 1 110 131)" fill="white"/>
<rect width="19" height="19" transform="matrix(-1 0 0 1 110 150)" fill="white"/>
<rect width="19" height="19" transform="matrix(-1 0 0 1 110 169)" fill="white"/>
<rect width="19" height="19" transform="matrix(-1 0 0 1 110 188)" fill="white"/>
<rect width="19" height="19" transform="matrix(-1 0 0 1 129 188)" fill="white"/>
<rect width="19" height="19" transform="matrix(-1 0 0 1 148 169)" fill="white"/>
<rect width="19" height="19" transform="matrix(-1 0 0 1 186 131)" fill="white"/>
<rect width="19" height="19" transform="matrix(-1 0 0 1 167 150)" fill="white"/>
</svg>
