<svg width="24" height="24" viewBox="0 0 24 24" fill="none" xmlns="http://www.w3.org/2000/svg">
<path d="M15.8028 15.8039L21.1059 21.1069M15.8028 15.8039C15.1092 16.5125 14.2818 17.0756 13.3687 17.4623C12.4557 17.8491 11.4749 18.051 10.4833 18.0563C9.49168 18.0616 8.50886 17.8702 7.5917 17.4931C6.67454 17.1161 5.84125 16.5609 5.14006 15.8597C4.43887 15.1585 3.88369 14.3252 3.50664 13.4081C3.1296 12.4909 2.93818 11.5081 2.94347 10.5165C2.94875 9.52483 3.15062 8.5441 3.53741 7.63101C3.9242 6.71792 4.48823 5.89059 5.19685 5.19691C6.60838 3.81513 8.50805 3.04598 10.4833 3.0565C12.4586 3.06702 14.3499 3.85636 15.7467 5.2531C17.1434 6.64983 17.9327 8.54119 17.9433 10.5165C17.9538 12.4917 17.1846 14.3924 15.8028 15.8039Z" stroke="white" stroke-width="2.5" stroke-linecap="square"/>
</svg>
