<svg width="42" height="42" viewBox="0 0 42 42" fill="none" xmlns="http://www.w3.org/2000/svg">
<rect width="42" height="42" rx="21" fill="#363636"/>
<g clip-path="url(#clip0_46_616)">
<path d="M11.717 15.26C11.266 14.841 11.041 14.323 11.041 13.706C11.041 13.074 11.266 12.548 11.717 12.129C12.167 11.71 12.748 11.5 13.46 11.5C14.156 11.5 14.729 11.71 15.179 12.129C15.63 12.548 15.856 13.074 15.856 13.706C15.856 14.323 15.63 14.841 15.179 15.26C14.729 15.679 14.156 15.888 13.46 15.888C12.748 15.888 12.167 15.679 11.717 15.26ZM15.476 17.264V30.498H11.42V17.264H15.476Z" fill="white"/>
<path d="M29.6002 18.6271C30.5252 19.6311 30.9872 21.0111 30.9872 22.7661V30.4981H26.9542V23.3111C26.9542 22.4261 26.7252 21.7381 26.2662 21.2481C25.8072 20.7581 25.1912 20.5131 24.4162 20.5131C23.6412 20.5131 23.0242 20.7581 22.5662 21.2481C22.1062 21.7381 21.8782 22.4271 21.8782 23.3111V30.4981H17.8242V17.2641H21.8812V19.0191C22.2912 18.4341 22.8452 17.9721 23.5412 17.6321C24.2352 17.2921 25.0192 17.1221 25.8882 17.1221C27.4372 17.1221 28.6752 17.6241 29.6002 18.6271Z" fill="white"/>
</g>
<defs>
<clipPath id="clip0_46_616">
<rect width="19.973" height="19" fill="white" transform="translate(11.0137 11.5)"/>
</clipPath>
</defs>
</svg>
