<svg width="42" height="42" viewBox="0 0 42 42" fill="none" xmlns="http://www.w3.org/2000/svg">
<rect width="42" height="42" rx="21" fill="#363636"/>
<g clip-path="url(#clip0_46_611)">
<path fill-rule="evenodd" clip-rule="evenodd" d="M32.615 15.911C32.156 14.189 31.299 13.526 29.72 13.288C28.814 13.162 24.452 13 20.988 13C17.525 13 13.163 13.162 12.257 13.288C10.68 13.526 9.819 14.192 9.366 15.911C9.21 16.485 9 19.652 9 20.857V21.123C9 22.331 9.21 25.496 9.366 26.072C9.819 27.791 10.68 28.453 12.257 28.691C13.163 28.818 17.53 28.977 20.996 28.977L20.981 28.98C24.447 28.98 28.813 28.818 29.72 28.691C31.299 28.453 32.156 27.791 32.615 26.072C32.766 25.496 32.977 22.331 32.977 21.123V20.857C32.977 19.652 32.766 16.485 32.615 15.911ZM18.113 23.878V18.101L23.862 20.923L18.113 23.878Z" fill="white"/>
</g>
<defs>
<clipPath id="clip0_46_611">
<rect width="24" height="16" fill="white" transform="translate(9 13)"/>
</clipPath>
</defs>
</svg>
